<svg xmlns="http://www.w3.org/2000/svg" xmlns:xlink="http://www.w3.org/1999/xlink" preserveAspectRatio="xMidYMid meet" width="400" height="400" viewBox="0 0 400 400" style="width:100%;height:100%"><defs><animate repeatCount="indefinite" dur="1s" begin="0s" xlink:href="#_R_G_L_0_G_D_0_P_0" fill="freeze" attributeName="opacity" from="1" to="0" keyTimes="0;0.5;0.6666667;1" values="1;1;0;0" keySplines="0.167 0.167 0.833 0.833;0.167 0.167 0.833 0.833;0 0 0 0" calcMode="spline"/><animateMotion repeatCount="indefinite" dur="1s" begin="0s" xlink:href="#_R_G_L_0_G_D_0_P_0_G_0_T_0" fill="freeze" keyTimes="0;0.6666667;1" path="M121.5 33 C121.5,57.33 121.5,154.67 121.5,179 C121.5,179 121.5,179 121.5,179 " keyPoints="0;1;1" keySplines="0.167 0.167 0.833 0.833;0 0 0 0" calcMode="spline"/><animate repeatCount="indefinite" dur="1s" begin="0s" xlink:href="#_R_G_L_0_G_M" fill="freeze" attributeName="opacity" from="1" to="0" keyTimes="0;0.7;0.7;1" values="1;1;0;0" keySplines="0 0 0 0;0 0 0 0;0 0 0 0" calcMode="spline"/><animate attributeType="XML" attributeName="opacity" dur="1s" from="0" to="1" xlink:href="#time_group"/></defs><g id="_R_G"><g id="_R_G_L_2_G" transform=" translate(200, 352.951) translate(-0.371, 31.913)"><path id="_R_G_L_2_G_D_0_P_0" fill="#fefefe" fill-opacity="1" fill-rule="nonzero" d=" M168.16 -32.65 C170.29,-30.68 171.45,-27.96 171.63,-24.51 C171.63,-24.51 146.38,-24.51 146.38,-24.51 C146.81,-27.84 148.21,-30.52 150.59,-32.56 C152.96,-34.59 155.97,-35.61 159.61,-35.61 C163.18,-35.61 166.04,-34.62 168.16,-32.65z  M161.36 -6.01 C157.23,-6.01 153.86,-7.12 151.24,-9.34 C148.61,-11.56 147.15,-14.61 146.84,-18.5 C146.84,-18.5 178.85,-18.5 178.85,-18.5 C179.15,-20.04 179.31,-21.71 179.31,-23.49 C179.31,-29.11 177.46,-33.67 173.76,-37.18 C170.12,-40.76 165.53,-42.55 159.98,-42.55 C153.25,-42.55 148.01,-40.48 144.25,-36.35 C140.43,-32.22 138.52,-27.04 138.52,-20.81 C138.52,-14.21 140.55,-8.94 144.62,-4.99 C148.63,-1.05 154.03,0.93 160.81,0.93 C167.22,0.93 172.43,-0.89 176.44,-4.53 C176.44,-4.53 174.13,-10.36 174.13,-10.36 C171.05,-7.46 166.79,-6.01 161.36,-6.01z "/><path id="_R_G_L_2_G_D_1_P_0" fill="#fefefe" fill-opacity="1" fill-rule="nonzero" d=" M115.39 -42.36 C112.37,-42.36 109.57,-41.72 106.98,-40.42 C104.39,-39.13 102.32,-37.37 100.78,-35.15 C99.98,-37.37 98.46,-39.13 96.24,-40.42 C94.02,-41.72 91.34,-42.36 88.2,-42.36 C85.55,-42.36 82.97,-41.81 80.47,-40.7 C77.98,-39.59 75.96,-38.14 74.41,-36.35 C74.41,-36.35 74.41,-41.62 74.41,-41.62 C74.41,-41.62 67.01,-41.62 67.01,-41.62 C67.01,-41.62 67.01,0 67.01,0 C67.01,0 74.41,0 74.41,0 C74.41,0 74.41,-29.78 74.41,-29.78 C77.07,-33.55 80.7,-35.43 85.33,-35.43 C88.1,-35.43 90.28,-34.66 91.85,-33.11 C93.42,-31.57 94.21,-29.48 94.21,-26.82 C94.21,-26.82 94.21,0 94.21,0 C94.21,0 101.61,0 101.61,0 C101.61,0 101.61,-26.45 101.61,-26.45 C101.61,-28.12 101.58,-29.11 101.52,-29.41 C102.5,-31.26 103.97,-32.73 105.91,-33.81 C107.85,-34.89 110.03,-35.43 112.43,-35.43 C118.41,-35.43 121.4,-32.04 121.4,-25.25 C121.4,-25.25 121.4,0 121.4,0 C121.4,0 128.8,0 128.8,0 C128.8,0 128.8,-27.29 128.8,-27.29 C128.8,-37.34 124.33,-42.36 115.39,-42.36z "/><path id="_R_G_L_2_G_D_2_P_0" fill="#fefefe" fill-opacity="1" fill-rule="nonzero" d=" M28.81 0.74 C32.7,0.74 35.97,-0.31 38.62,-2.4 C38.62,-2.4 36.95,-8.05 36.95,-8.05 C35.04,-6.81 33.28,-6.2 31.68,-6.2 C28.41,-6.2 26.78,-8.94 26.78,-14.43 C26.78,-14.43 26.78,-64.75 26.78,-64.75 C26.78,-64.75 19.38,-64.75 19.38,-64.75 C19.38,-64.75 19.38,-11.1 19.38,-11.1 C19.38,-3.21 22.52,0.74 28.81,0.74z "/><path id="_R_G_L_2_G_D_3_P_0" fill="#fefefe" fill-opacity="1" fill-rule="nonzero" d=" M1.99 0.74 C5.87,0.74 9.14,-0.31 11.79,-2.4 C11.79,-2.4 10.13,-8.05 10.13,-8.05 C8.22,-6.81 6.46,-6.2 4.86,-6.2 C1.59,-6.2 -0.05,-8.94 -0.05,-14.43 C-0.05,-14.43 -0.05,-64.75 -0.05,-64.75 C-0.05,-64.75 -7.45,-64.75 -7.45,-64.75 C-7.45,-64.75 -7.45,-11.1 -7.45,-11.1 C-7.45,-3.21 -4.3,0.74 1.99,0.74z "/><path id="_R_G_L_2_G_D_4_P_0" fill="#fefefe" fill-opacity="1" fill-rule="nonzero" d=" M-50.55 -31.45 C-47.9,-34.22 -44.48,-35.61 -40.28,-35.61 C-36.09,-35.61 -32.67,-34.22 -30.01,-31.45 C-27.3,-28.61 -25.94,-25.07 -25.94,-20.81 C-25.94,-16.43 -27.29,-12.87 -29.97,-10.13 C-32.65,-7.38 -36.09,-6.01 -40.28,-6.01 C-44.48,-6.01 -47.93,-7.4 -50.64,-10.18 C-53.29,-12.89 -54.62,-16.43 -54.62,-20.81 C-54.62,-25.19 -53.26,-28.74 -50.55,-31.45z  M-40.28 0.93 C-33.68,0.93 -28.35,-1.11 -24.28,-5.18 C-20.15,-9.31 -18.08,-14.52 -18.08,-20.81 C-18.08,-27.1 -20.15,-32.28 -24.28,-36.35 C-28.35,-40.48 -33.68,-42.55 -40.28,-42.55 C-46.88,-42.55 -52.25,-40.48 -56.38,-36.35 C-60.45,-32.28 -62.48,-27.1 -62.48,-20.81 C-62.48,-14.58 -60.45,-9.37 -56.38,-5.18 C-52.18,-1.11 -46.82,0.93 -40.28,0.93z "/><path id="_R_G_L_2_G_D_5_P_0" fill="#fefefe" fill-opacity="1" fill-rule="nonzero" d=" M-83.76 -29.51 C-81.72,-33.45 -78.82,-35.43 -75.06,-35.43 C-73.09,-35.43 -71.21,-34.9 -69.42,-33.85 C-69.42,-33.85 -66.83,-40.79 -66.83,-40.79 C-68.25,-41.84 -70.41,-42.36 -73.3,-42.36 C-77.81,-42.36 -81.29,-40.48 -83.76,-36.72 C-83.76,-36.72 -83.76,-41.62 -83.76,-41.62 C-83.76,-41.62 -91.16,-41.62 -91.16,-41.62 C-91.16,-41.62 -91.16,0 -91.16,0 C-91.16,0 -83.76,0 -83.76,0 C-83.76,0 -83.76,-29.51 -83.76,-29.51z "/><path id="_R_G_L_2_G_D_6_P_0" fill="#fefefe" fill-opacity="1" fill-rule="nonzero" d=" M-116.22 -6.01 C-120.48,-6.01 -124.06,-7.37 -126.95,-10.08 C-129.79,-12.73 -131.21,-16.31 -131.21,-20.81 C-131.21,-25.07 -129.82,-28.58 -127.05,-31.36 C-124.21,-34.19 -120.85,-35.61 -116.96,-35.61 C-112.22,-35.61 -108.24,-34.16 -105.03,-31.26 C-105.03,-31.26 -101.61,-37.09 -101.61,-37.09 C-105.25,-40.73 -110.7,-42.55 -117.98,-42.55 C-124.02,-42.55 -129.05,-40.45 -133.06,-36.26 C-137.07,-32.07 -139.07,-26.92 -139.07,-20.81 C-139.07,-14.21 -137.04,-8.94 -132.97,-4.99 C-128.83,-1.05 -123.44,0.93 -116.78,0.93 C-109.69,0.93 -104.35,-1.39 -100.78,-6.01 C-100.78,-6.01 -104.29,-11.38 -104.29,-11.38 C-107.44,-7.8 -111.41,-6.01 -116.22,-6.01z "/><path id="_R_G_L_2_G_D_7_P_0" fill="#fefefe" fill-opacity="1" fill-rule="nonzero" d=" M-157.06 -7.08 C-158.45,-6.06 -160.22,-5.55 -162.38,-5.55 C-164.35,-5.55 -166.57,-6.07 -169.04,-7.12 C-171.38,-8.17 -173.17,-9.4 -174.4,-10.82 C-174.4,-10.82 -178.57,-5.55 -178.57,-5.55 C-177.58,-4.01 -175.58,-2.53 -172.55,-1.11 C-169.59,0.25 -166.48,0.93 -163.21,0.93 C-158.59,0.93 -154.76,-0.12 -151.74,-2.22 C-148.66,-4.38 -147.12,-7.52 -147.12,-11.65 C-147.12,-14.31 -147.89,-16.53 -149.43,-18.32 C-150.97,-20.1 -152.85,-21.41 -155.07,-22.25 C-157.29,-23.08 -159.5,-23.82 -161.69,-24.47 C-163.88,-25.11 -165.74,-25.95 -167.28,-26.96 C-168.82,-27.98 -169.59,-29.29 -169.59,-30.89 C-169.59,-32.37 -168.98,-33.61 -167.74,-34.59 C-166.51,-35.58 -164.91,-36.08 -162.93,-36.08 C-159.05,-36.08 -155.57,-34.72 -152.48,-32.01 C-152.48,-32.01 -148.97,-37.65 -148.97,-37.65 C-152.42,-40.92 -157.2,-42.55 -163.3,-42.55 C-167.56,-42.55 -170.98,-41.47 -173.57,-39.31 C-176.16,-37.15 -177.46,-34.32 -177.46,-30.8 C-177.46,-28.03 -176.69,-25.7 -175.14,-23.82 C-173.6,-21.94 -171.72,-20.56 -169.5,-19.7 C-167.28,-18.84 -165.08,-18.08 -162.89,-17.44 C-160.7,-16.79 -158.83,-15.97 -157.29,-14.98 C-155.75,-14 -154.98,-12.76 -154.98,-11.28 C-154.98,-9.5 -155.67,-8.09 -157.06,-7.08z "/></g><g id="_R_G_L_1_G" transform=" translate(200, 138) translate(-27, -86.5)"><path id="_R_G_L_1_G_D_0_P_0" stroke="#ffffff" stroke-linecap="round" stroke-linejoin="round" fill="none" stroke-width="6" stroke-opacity="1" d=" M97.5 29 C97.5,29 97.5,144 97.5,144 C97.5,182.08 66.58,213 28.5,213 C28.5,213 25.5,213 25.5,213 C-12.58,213 -43.5,182.08 -43.5,144 C-43.5,144 -43.5,29 -43.5,29 C-43.5,-9.08 -12.58,-40 25.5,-40 C25.5,-40 28.5,-40 28.5,-40 C66.58,-40 97.5,-9.08 97.5,29z "/></g><g id="_R_G_L_0_G_M"><g id="_R_G_L_0_G" transform=" translate(201, 77.95) scale(0.4, 0.4) translate(-121.5, -33)"><g id="_R_G_L_0_G_D_0_P_0_G_0_T_0"><path id="_R_G_L_0_G_D_0_P_0" fill="#ffffff" fill-opacity="1" fill-rule="nonzero" d=" M0 -35.5 C19.59,-35.5 35.5,-19.59 35.5,0 C35.5,19.59 19.59,35.5 0,35.5 C-19.59,35.5 -35.5,19.59 -35.5,0 C-35.5,-19.59 -19.59,-35.5 0,-35.5z "/></g></g></g></g><g id="time_group"/></svg>