<svg xmlns="http://www.w3.org/2000/svg" viewBox="0 0 1000 1000"><defs><style>.cls-1{fill:#4351dd;}.cls-2{fill:#1d2890;}</style></defs><title>logo_blue</title><g id="Layer_4" data-name="Layer 4"><circle class="cls-1" cx="500" cy="500" r="500"/></g><g id="cycles1"><circle class="cls-1" cx="500" cy="500" r="407"/></g><g id="text_contur" data-name="text contur"><path class="cls-2" d="M481.58,648.53q-50,28.83-124.38,28.83-82.44,0-130-45.63T179.68,506q0-80.54,51.95-131.29T369.83,324q54.33,0,95.78,15v72.2q-39.56-22.87-96.74-22.88-47.88,0-78,31.1t-30.14,83q0,52.66,27,81.49t73,28.83q27.64,0,43.85-7.86V538.21H336.23V476.73H481.58Z"/><path class="cls-2" d="M848.52,671.41H764.65l-24.3-76H618.83l-24.07,76h-83.4L635.74,329.72H727ZM722.71,536.3,686,421.45a149.42,149.42,0,0,1-5.72-30.73h-1.91a130.52,130.52,0,0,1-5.95,29.78L635.27,536.3Z"/></g></svg>