<svg xmlns="http://www.w3.org/2000/svg" viewBox="0 0 1000 1000"><defs><style>.cls-1{fill:#1d2890;}.cls-2{fill:#4351dd;}</style></defs><title>logo_GA</title><g id="Layer_4" data-name="Layer 4"><circle class="cls-1" cx="500" cy="500" r="500"/></g><g id="cycles1"><circle class="cls-2" cx="500" cy="500" r="407"/></g><g id="text_contur" data-name="text contur"><path class="cls-1" d="M487.44,621.87q-41,23.64-101.95,23.64-67.58,0-106.54-37.41t-39-103q0-66,42.58-107.62t113.28-41.6q44.54,0,78.52,12.3v59.18q-32.43-18.75-79.3-18.75-39.26,0-64,25.49t-24.71,68.07q0,43.15,22.17,66.79t59.86,23.64q22.65,0,35.94-6.45V531.44H368.3V481.05H487.44Z"/><path class="cls-1" d="M788.22,640.62H719.47l-19.92-62.3H599.94l-19.72,62.3H511.86L613.81,360.54h74.81ZM685.1,529.88,655,435.74a122.78,122.78,0,0,1-4.69-25.2h-1.56A106.93,106.93,0,0,1,643.89,435l-30.47,94.92Z"/></g></svg>