<?xml version="1.0" encoding="utf-8"?>
<!-- Generator: Adobe Illustrator 23.0.1, SVG Export Plug-In . SVG Version: 6.00 Build 0)  -->
<svg version="1.1" id="Layer_1" xmlns="http://www.w3.org/2000/svg" xmlns:xlink="http://www.w3.org/1999/xlink" x="0px" y="0px"
	 viewBox="0 0 628 628" style="enable-background:new 0 0 628 628;" xml:space="preserve">
<style type="text/css">
	.st0{display:none;}
	.st1{display:inline;fill:none;}
	.st2{display:inline;}
	.st3{clip-path:url(#SVGID_2_);}
	.st4{clip-path:url(#SVGID_4_);}
	.st5{fill-rule:evenodd;clip-rule:evenodd;fill:#005FF9;}
	.st6{display:none;fill:none;}
	.st7{display:none;fill-rule:evenodd;clip-rule:evenodd;fill:#FFFFFF;}
	.st8{fill:#FF9E00;}
	.st9{fill:#005FF9;}
	.st10{display:inline;fill:#BC6262;}
	.st11{fill:#F2F2F2;}
</style>
<g xmlns:serif="http://www.serif.com/" class="st0">
	<rect id="h44px_-mail_-_bg" x="-186" y="-53.3" serif:id="h44px_@mail_&amp;_bg" class="st1" width="1920" height="734.6">
	</rect>
	<g class="st2">
		<g>
			<defs>
				<circle id="SVGID_1_" cx="314" cy="314" r="314.1"/>
			</defs>
			<clipPath id="SVGID_2_">
				<use xlink:href="#SVGID_1_"  style="overflow:visible;"/>
			</clipPath>
			<g class="st3">
				<g>
					<defs>
						<rect id="SVGID_3_" x="-114.4" y="-0.1" width="1641.7" height="628.1"/>
					</defs>
					<clipPath id="SVGID_4_">
						<use xlink:href="#SVGID_3_"  style="overflow:visible;"/>
					</clipPath>
					<g class="st4">
						<path class="st5" d="M1527.3,57c0-31.5-25.6-57.1-57.1-57.1H-57.3c-31.5,0-57.1,25.6-57.1,57.1v514
							c0,31.5,25.6,57.1,57.1,57.1h1527.5c31.5,0,57.1-25.6,57.1-57.1L1527.3,57L1527.3,57z"/>
						<g>
							<rect x="114" y="114.1" class="st6" width="1184.9" height="399.7"/>
							<rect x="1251.5" y="151.1" class="st7" width="37.9" height="257.2"/>
							<path class="st7" d="M1210.5,408.3h-37.9V226.1h37.9V408.3z M1191.6,144.7c14.1,0,25.6,11.5,25.6,25.6s-11.5,25.6-25.6,25.6
								s-25.6-11.5-25.6-25.6S1177.5,144.7,1191.6,144.7z"/>
							<path class="st7" d="M1131.7,408.3h-37.2v-19.9c-13.3,15.1-36.9,24.6-59,24.6c-52.9,0-95.8-42.9-95.8-95.8
								s42.9-95.8,95.8-95.8c22.1,0,44.4,8.3,59,23.1v-18.4h37.2V408.3L1131.7,408.3z M1036.7,259.7c32.6,0,58.3,23.3,58.3,57.5
								s-25.7,57.7-58.3,57.7c-32.6,0-57.4-25.1-57.4-57.7C979.3,284.6,1004.1,259.7,1036.7,259.7z"/>
							<path class="st7" d="M661.6,408.3h-37.2V226.1h37.2v12.7c8.3-7.8,23.8-17.4,45.3-17.4c26.4,0,46.1,11.1,59.6,29
								c14.8-17.7,39.1-29,63.9-29c46.5,0,78.3,31.4,78.3,80.4v106.6h-37.2V301.8c0-23.8-19.4-43.1-43.1-43.1
								c-23.8,0-43.1,19.4-43.1,43.1v106.6h-37.2V301.8c0-23.8-19.4-43.1-43.1-43.1s-43.1,19.4-43.1,43.1L661.6,408.3L661.6,408.3z"
								/>
							<path class="st8" d="M374,314c0,33.1-27,60.1-60.1,60.1s-60.1-27-60.1-60.1s27-60.1,60.1-60.1S374,280.9,374,314
								 M313.9,114.1C203.7,114.1,114,203.8,114,314s89.6,199.9,199.9,199.9c40.4,0,79.3-12,112.6-34.8l0.6-0.4l-26.9-31.3l-0.5,0.3
								c-25.6,16.5-55.3,25.2-85.8,25.2C226.3,472.9,155,401.6,155,314s71.3-158.9,158.9-158.9S472.8,226.4,472.8,314
								c0,11.3-1.3,22.8-3.7,34.1c-5,20.6-19.5,26.9-30.3,26.1c-10.9-0.9-23.7-8.7-23.8-27.7V332v-18c0-55.7-45.3-101.1-101.1-101.1
								S212.8,258.3,212.8,314s45.3,101.1,101.1,101.1c27.1,0,52.5-10.6,71.6-29.8c11.1,17.3,29.3,28.2,49.9,29.8
								c1.8,0.1,3.6,0.2,5.4,0.2c14.5,0,29-4.9,40.6-13.7c12-9.1,20.9-22.3,25.9-38.1c0.8-2.6,2.2-8.4,2.2-8.4v-0.2
								c2.9-12.7,4.2-25.3,4.2-40.9C513.7,203.8,424.1,114.1,313.9,114.1"/>
						</g>
					</g>
				</g>
			</g>
		</g>
	</g>
</g>
<g id="Layer_3">
	<circle class="st9" cx="314" cy="314" r="314"/>
</g>
<g class="st0">
	<rect x="315.6" y="301.5" class="st10" width="69.5" height="12.5"/>
	<rect x="244.6" y="301.5" class="st10" width="69.5" height="12.5"/>
</g>
<g class="st0">
	<g class="st2">
		<path class="st8" d="M462.9,190.3H165.1c-17.5,0-31.7,14.2-31.7,31.7v184c0,17.5,14.2,31.7,31.7,31.7h297.7
			c17.5,0,31.7-14.2,31.7-31.7V222C494.6,204.5,480.4,190.3,462.9,190.3z M458.7,211.4l-4.2,3.5L326.6,321.4
			c-7.3,6.1-17.9,6.1-25.2,0L173.5,215l-4.2-3.5H458.7z M154.6,226.7l104.2,86.8l-104.2,69.3V226.7z M462.9,416.6H165.1
			c-5.1,0-9.4-3.6-10.4-8.5l120.9-80.5l12.1,10.1c7.6,6.3,16.9,9.5,26.1,9.5s18.6-3.2,26.1-9.5l12.1-10.1l120.9,80.5
			C472.2,412.9,468,416.6,462.9,416.6z M473.4,382.8l-104.2-69.3l104.2-86.8V382.8z"/>
	</g>
</g>
<g>
	<g>
		<path class="st11" d="M482.1,174.3H145.9c-19.8,0-35.8,16.1-35.8,35.8v207.7c0,19.8,16.1,35.8,35.8,35.8h336.1
			c19.8,0,35.8-16.1,35.8-35.8V210.1C517.9,190.4,501.8,174.3,482.1,174.3z M477.4,198.2l-4.8,4L328.2,322.4
			c-8.2,6.9-20.2,6.9-28.4,0L155.4,202.2l-4.8-4H477.4z M134,215.4l117.6,98L134,391.7V215.4z M482.1,429.8H145.9
			c-5.8,0-10.6-4.1-11.7-9.6l136.6-90.9l13.7,11.4c8.6,7.1,19,10.7,29.5,10.7s21-3.6,29.5-10.7l13.7-11.4l136.6,90.9
			C492.7,425.7,487.8,429.8,482.1,429.8z M494,391.7l-117.6-78.3l117.6-98V391.7z"/>
	</g>
</g>
</svg>
