<svg xmlns="http://www.w3.org/2000/svg" xmlns:xlink="http://www.w3.org/1999/xlink" preserveAspectRatio="xMidYMid meet" width="500" height="500" viewBox="0 0 500 500" style="width:100%;height:100%"><defs><animateMotion repeatCount="indefinite" dur="2s" begin="0s" xlink:href="#_R_G_L_0_G_L_1_G" fill="freeze" keyTimes="0;0.0666667;0.2666667;0.3333333;0.6;0.6666667;0.9666667;1" path="M207.71 332.18 C207.71,332.18 207.71,332.18 207.71,332.18 C207.71,301.43 207.71,178.43 207.71,147.68 C207.71,147.68 207.71,147.68 207.71,147.68 C237.54,147.51 356.87,146.84 386.71,146.68 C386.71,146.68 386.71,146.68 386.71,146.68 C389.81,221.09 364.92,331.09 207.71,332.18 C207.71,332.18 207.71,332.18 207.71,332.18 " keyPoints="0;0;0.28;0.28;0.55;0.55;1;1" keySplines="0.333 0 0.667 1;0.333 0 0.667 1;0.333 0.333 0.667 0.667;0.333 0 0.667 1;0.333 0.333 0.667 0.667;0.333 0 0.667 1;0 0 0 0" calcMode="spline"/><animateTransform repeatCount="indefinite" dur="2s" begin="0s" xlink:href="#_R_G_L_0_G_L_1_G" fill="freeze" attributeName="transform" from="-162.145 -104.008" to="-162.145 -104.008" type="translate" additive="sum" keyTimes="0;1" values="-162.145 -104.008;-162.145 -104.008" keySplines="0 0 1 1" calcMode="spline"/><animate attributeType="XML" attributeName="opacity" dur="2s" from="0" to="1" xlink:href="#time_group"/></defs><g id="_R_G"><g id="_R_G_L_0_G" transform=" translate(250, 258) translate(-256, -256)"><g id="_R_G_L_0_G_L_2_G" transform=" translate(277.333, 247.467) translate(-213.583, -247.716)"><path id="_R_G_L_0_G_L_2_G_D_0_P_0" fill="#8395a7" fill-opacity="1" fill-rule="nonzero" d=" M307.45 478.12 C307.45,478.12 94.12,478.12 94.12,478.12 C89.4,478.12 85.58,481.94 85.58,486.65 C85.58,491.36 89.4,495.18 94.12,495.18 C94.12,495.18 315.98,495.18 315.98,495.18 C317.1,495.18 318.2,494.96 319.23,494.53 C320.27,494.11 321.22,493.48 322.02,492.68 C322.02,492.68 424.42,390.28 424.42,390.28 C425.21,389.49 425.84,388.54 426.27,387.49 C426.69,386.46 426.91,385.36 426.92,384.25 C426.92,384.25 426.92,42.92 426.92,42.92 C426.89,19.36 407.8,0.28 384.25,0.25 C384.25,0.25 42.92,0.25 42.92,0.25 C19.36,0.28 0.28,19.36 0.25,42.92 C0.25,42.92 0.25,350.12 0.25,350.12 C0.25,354.83 4.07,358.65 8.78,358.65 C13.5,358.65 17.32,354.83 17.32,350.12 C17.32,350.12 17.32,42.92 17.32,42.92 C17.32,28.78 28.78,17.32 42.92,17.32 C42.92,17.32 384.25,17.32 384.25,17.32 C398.39,17.32 409.85,28.78 409.85,42.92 C409.85,42.92 409.85,375.72 409.85,375.72 C409.85,375.72 350.12,375.72 350.12,375.72 C326.57,375.75 307.48,394.83 307.45,418.38 C307.45,418.38 307.45,478.12 307.45,478.12z  M350.12 392.78 C350.12,392.78 397.78,392.78 397.78,392.78 C397.78,392.78 324.52,466.05 324.52,466.05 C324.52,466.05 324.52,418.38 324.52,418.38 C324.52,404.25 335.98,392.78 350.12,392.78z "/><path id="_R_G_L_0_G_L_2_G_D_1_P_0" fill="#8395a7" fill-opacity="1" fill-rule="nonzero" d=" M236 104.14 C236,104.14 54.5,104.14 54.5,104.14 C51.16,104.14 48.45,106.85 48.45,110.19 C48.45,113.53 51.16,116.24 54.5,116.24 C54.5,116.24 236,116.24 236,116.24 C239.34,116.24 242.05,113.53 242.05,110.19 C242.05,106.85 239.34,104.14 236,104.14z "/><path id="_R_G_L_0_G_L_2_G_D_2_P_0" fill="#8395a7" fill-opacity="1" fill-rule="nonzero" d=" M75.68 139.4 C75.68,139.4 214.83,139.4 214.83,139.4 C218.17,139.4 220.88,136.69 220.88,133.35 C220.88,130.01 218.17,127.3 214.83,127.3 C214.83,127.3 75.68,127.3 75.68,127.3 C72.33,127.3 69.63,130.01 69.63,133.35 C69.63,136.69 72.33,139.4 75.68,139.4z "/><path id="_R_G_L_0_G_L_2_G_D_3_P_0" fill="#8395a7" fill-opacity="1" fill-rule="nonzero" d=" M75.68 184.3 C75.68,184.3 214.83,184.3 214.83,184.3 C218.17,184.3 220.88,181.59 220.88,178.25 C220.88,174.91 218.17,172.2 214.83,172.2 C214.83,172.2 75.68,172.2 75.68,172.2 C72.33,172.2 69.63,174.91 69.63,178.25 C69.63,181.59 72.33,184.3 75.68,184.3z "/></g><g id="_R_G_L_0_G_L_1_G"><path id="_R_G_L_0_G_L_1_G_D_0_P_0" fill="#8395a7" fill-opacity="1" fill-rule="nonzero" d=" M7 231.62 C7,231.62 66.1,170.51 66.1,170.51 C75.1,183.61 86.68,194.81 100.07,203.37 C100.07,203.37 40.97,264.48 40.97,264.48 C36.44,269.16 30.43,271.57 24.38,271.67 C18.33,271.77 12.24,269.57 7.56,265.04 C3.02,260.65 0.46,254.75 0.35,248.44 C0.25,242.13 2.61,236.16 7,231.62z "/><path id="_R_G_L_0_G_L_1_G_D_1_P_0" fill="#8395a7" fill-opacity="1" fill-rule="nonzero" d=" M165.3 206.21 C221.82,205.26 267.04,158.51 266.1,101.99 C265.15,45.47 218.4,0.25 161.88,1.19 C105.36,2.14 60.14,48.89 61.09,105.41 C62.03,161.93 108.78,207.15 165.3,206.21z  M92.64 104.89 C91.98,65.76 123.28,33.4 162.4,32.74 C201.53,32.09 233.89,63.39 234.55,102.52 C235.2,141.64 203.9,174 164.78,174.66 C125.65,175.31 93.29,144.01 92.64,104.89z "/></g><g id="_R_G_L_0_G_L_0_G" transform=" translate(393.066, 143.549) scale(1.14, 1.14) translate(-56.511, -67.462)"><path id="_R_G_L_0_G_L_0_G_D_0_P_0" fill="#8395a7" fill-opacity="1" fill-rule="nonzero" d=" M0.75 19.98 C1.4,16.96 2.47,13.97 4.04,11.39 C7.63,5.48 13.1,2.31 20.12,2.31 C27.22,2.31 33.2,5.38 38.92,9.26 C45.02,13.39 51.34,17.15 58.43,19.37 C60.77,20.1 63.24,20.41 65.6,21.07 C66.54,21.33 67.64,21.84 68.23,22.48 C67.58,23.02 66.55,23.53 65.64,23.68 C59.79,24.63 54.54,22.34 49.21,20.5 C42.96,18.33 36.69,16.22 30.46,14.01 C26.82,12.73 23.27,12.83 19.79,14.4 C16.88,15.71 15.1,18.11 14.96,21.25 C14.74,26.24 15.97,31.04 18.39,35.4 C20.31,38.85 22.89,41.95 24.71,45.44 C27.71,51.21 29.01,57.47 29.23,64 C29.46,71.01 28.05,77.79 26.8,84.62 C25.22,93.18 25.38,101.76 27.39,110.22 C28.99,116.97 31.52,123.41 34.65,129.61 C35.17,130.65 35.54,131.78 35.82,132.92 C35.95,133.4 35.98,134.13 35.59,134.51 C35.21,134.67 34.26,134.37 33.97,134.01 C31.69,131.19 29.29,128.44 27.35,125.4 C22.12,117.23 19.82,108.02 18.78,98.53 C18.05,91.83 17.75,85.07 17.48,78.33 C17.36,75.25 18,72.14 17.9,69.06 C17.7,62.98 15.74,57.28 13.15,51.86 C10.81,46.95 8.2,42.15 5.42,37.47 C3.28,33.86 1.72,30.09 0.75,26.04 C0.31,23.81 0.25,22.69 0.75,19.98z "/><path id="_R_G_L_0_G_L_0_G_D_1_P_0" fill="#8395a7" fill-opacity="1" fill-rule="nonzero" d=" M46.75 11.23 C48.31,11.23 51.43,11.26 52.98,11.38 C64.29,12.26 75.26,10.9 85.89,6.76 C90.37,5.01 95.09,4.32 99.93,4.93 C106.63,5.79 111.14,10.45 111.83,17.17 C112.77,26.39 110.26,34.85 106.04,42.87 C103.64,47.41 100.81,51.72 98.31,56.21 C94.91,62.32 93.21,68.96 93.03,75.89 C92.89,81.27 93.48,86.66 93.45,92.04 C93.4,103.21 89.93,113.4 83.98,122.77 C81.91,126.04 79.61,129.17 77.34,132.31 C77.01,132.75 76.22,133.18 75.65,133.11 C75.31,132.62 75.23,131.83 75.41,131.34 C77.03,126.99 78.75,122.67 80.43,118.33 C82.52,112.92 83.6,107.27 84.21,101.52 C85,94.02 84.54,86.57 82.99,79.21 C81.88,73.94 82.07,68.7 83.63,63.67 C85.15,58.74 87.26,53.97 89.34,49.23 C92.47,42.1 95.37,34.91 97.04,27.28 C98.26,21.71 95.53,17.78 89.83,17.52 C85.11,17.31 80.33,17.52 75.62,17.97 C66.46,18.83 57.75,17.46 49.46,13.47 C48.89,13.2 48.38,12.92 47.84,12.48 C47.34,12.06 46.83,11.51 46.75,11.23z "/><path id="_R_G_L_0_G_L_0_G_D_2_P_0" fill="#8395a7" fill-opacity="1" fill-rule="nonzero" d=" M38.41 130.27 C37.57,128.75 36.32,127.33 35.94,125.71 C34.65,120.21 33.22,114.69 32.65,109.09 C31.28,95.63 34.29,82.85 39.8,70.6 C41.38,67.08 43.54,64 46.6,61.62 C52.11,57.32 59.13,58.11 64.69,63.56 C70.47,69.23 73.39,76.34 75.31,84.01 C76.96,90.55 77.81,97.19 77.56,103.92 C77.27,111.97 76.47,119.96 73.41,127.53 C73.25,127.95 72.84,128.56 72.39,128.56 C71.89,128.39 71.64,127.84 71.59,127.44 C70.93,122.39 70.28,117.34 69.72,112.28 C69.21,107.71 68.91,103.11 68.32,98.55 C67.81,94.51 67.51,90.35 66.24,86.54 C65.1,83.12 63.09,79.84 60.9,76.94 C57.63,72.6 52,73.14 48.36,77.67 C45.73,80.94 43.98,84.64 42.44,88.51 C40.25,94.02 39.63,99.78 39.58,105.62 C39.52,113.24 39.62,120.86 39.61,128.48 C39.61,129.01 39.5,129.54 39.35,130.08 C39.24,130.37 38.89,130.78 38.41,130.27z "/><path id="_R_G_L_0_G_L_0_G_D_3_P_0" fill="#8395a7" fill-opacity="1" fill-rule="nonzero" d=" M37.25 5.96 C37.57,6.17 37.84,6.33 38.96,6.47 C40.08,6.6 51.91,6.54 58.38,6.69 C61.47,6.75 64.56,7.01 67.63,7.34 C73.08,7.92 78.42,7.74 83.51,5.45 C83.93,5.26 84.76,4.61 85.11,4.26 C84.75,3.89 83.93,3.53 83.49,3.35 C78.07,1.16 72.34,0.55 66.58,0.37 C62.67,0.25 58.75,0.49 54.84,0.65 C49.59,0.88 41.78,2.82 39.72,4.16 C37.65,5.5 37.25,5.96 37.25,5.96z "/></g></g></g><g id="time_group"/></svg>