<svg xmlns="http://www.w3.org/2000/svg" xmlns:xlink="http://www.w3.org/1999/xlink" preserveAspectRatio="xMidYMid meet" width="500" height="500" viewBox="0 0 500 500" style="width:100%;height:100%"><defs><animate repeatCount="indefinite" dur="2s" begin="0s" xlink:href="#_R_G_L_0_G_L_4_G" fill="freeze" attributeName="opacity" from="1" to="0" keyTimes="0;0.1333333;0.1833333;1" values="1;1;0;0" keySplines="0.167 0.167 0.833 0.833;0.167 0.167 0.833 0.833;0 0 0 0" calcMode="spline"/><animateMotion repeatCount="indefinite" dur="2s" begin="0s" xlink:href="#_R_G_L_0_G_L_4_G" fill="freeze" keyTimes="0;0.1666667;1" path="M416.95 121.15 C423.28,126.09 448.58,145.84 454.91,150.78 C454.91,150.78 454.91,150.78 454.91,150.78 " keyPoints="0;1;1" keySplines="0.167 0.167 0.833 0.833;0 0 0 0" calcMode="spline"/><animateTransform repeatCount="indefinite" dur="2s" begin="0s" xlink:href="#_R_G_L_0_G_L_4_G" fill="freeze" attributeName="transform" from="0 0" to="1 1" type="scale" additive="sum" keyTimes="0;0.1666667;1" values="0 0;1 1;1 1" keySplines="0.167 0.167 0.833 0.833;0 0 0 0" calcMode="spline"/><animateTransform repeatCount="indefinite" dur="2s" begin="0s" xlink:href="#_R_G_L_0_G_L_4_G" fill="freeze" attributeName="transform" from="-1.5 -1.5" to="-1.5 -1.5" type="translate" additive="sum" keyTimes="0;1" values="-1.5 -1.5;-1.5 -1.5" keySplines="0 0 1 1" calcMode="spline"/><animate repeatCount="indefinite" dur="2s" begin="0s" xlink:href="#_R_G_L_0_G_L_0_G_D_0_P_0" fill="freeze" attributeName="opacity" from="1" to="0" keyTimes="0;0.4333333;0.4833333;1" values="1;1;0;0" keySplines="0.167 0.167 0.833 0.833;0.167 0.167 0.833 0.833;0 0 0 0" calcMode="spline"/><animate repeatCount="indefinite" dur="2s" begin="0s" xlink:href="#_R_G_L_0_G_L_0_G_D_1_P_0" fill="freeze" attributeName="opacity" from="1" to="0" keyTimes="0;0.4666667;0.5166667;1" values="1;1;0;0" keySplines="0.167 0.167 0.833 0.833;0.167 0.167 0.833 0.833;0 0 0 0" calcMode="spline"/><animate repeatCount="indefinite" dur="2s" begin="0s" xlink:href="#_R_G_L_0_G_L_0_G_D_2_P_0" fill="freeze" attributeName="opacity" from="1" to="0" keyTimes="0;0.5666667;0.6166667;1" values="1;1;0;0" keySplines="0.167 0.167 0.833 0.833;0.167 0.167 0.833 0.833;0 0 0 0" calcMode="spline"/><animate repeatCount="indefinite" dur="2s" begin="0s" xlink:href="#_R_G_L_0_G_L_0_G_D_3_P_0" fill="freeze" attributeName="opacity" from="1" to="0" keyTimes="0;0.5;0.55;1" values="1;1;0;0" keySplines="0.167 0.167 0.833 0.833;0.167 0.167 0.833 0.833;0 0 0 0" calcMode="spline"/><animate repeatCount="indefinite" dur="2s" begin="0s" xlink:href="#_R_G_L_0_G_L_0_G_D_4_P_0" fill="freeze" attributeName="opacity" from="1" to="0" keyTimes="0;0.6333333;0.6833333;1" values="1;1;0;0" keySplines="0.167 0.167 0.833 0.833;0.167 0.167 0.833 0.833;0 0 0 0" calcMode="spline"/><animate repeatCount="indefinite" dur="2s" begin="0s" xlink:href="#_R_G_L_0_G_L_0_G_D_5_P_0" fill="freeze" attributeName="opacity" from="1" to="0" keyTimes="0;0.5333333;0.5833333;1" values="1;1;0;0" keySplines="0.167 0.167 0.833 0.833;0.167 0.167 0.833 0.833;0 0 0 0" calcMode="spline"/><animate repeatCount="indefinite" dur="2s" begin="0s" xlink:href="#_R_G_L_0_G_L_0_G_D_6_P_0" fill="freeze" attributeName="opacity" from="1" to="0" keyTimes="0;0.6;0.65;1" values="1;1;0;0" keySplines="0.167 0.167 0.833 0.833;0.167 0.167 0.833 0.833;0 0 0 0" calcMode="spline"/><animate repeatCount="indefinite" dur="2s" begin="0s" xlink:href="#_R_G_L_0_G_L_0_G_D_7_P_0" fill="freeze" attributeName="opacity" from="1" to="0" keyTimes="0;0.4;0.45;1" values="1;1;0;0" keySplines="0.167 0.167 0.833 0.833;0.167 0.167 0.833 0.833;0 0 0 0" calcMode="spline"/><animate repeatCount="indefinite" dur="2s" begin="0s" xlink:href="#_R_G_L_0_G_L_0_G_D_8_P_0" fill="freeze" attributeName="opacity" from="1" to="0" keyTimes="0;0.6666667;0.7166667;1" values="1;1;0;0" keySplines="0.167 0.167 0.833 0.833;0.167 0.167 0.833 0.833;0 0 0 0" calcMode="spline"/><animate attributeType="XML" attributeName="opacity" dur="2s" from="0" to="1" xlink:href="#time_group"/></defs><g id="_R_G"><g id="_R_G_L_0_G" transform=" translate(250, 250) scale(0.4, 0.4) translate(-500, -500)"><g id="_R_G_L_0_G_L_4_G_N_4_T_0" transform=" translate(85.701, 188.425) scale(0.81, 0.81) translate(-220.304, -225.367)"><g id="_R_G_L_0_G_L_4_G"><path id="_R_G_L_0_G_L_4_G_D_0_P_0" stroke="#8395a7" stroke-linecap="round" stroke-linejoin="round" fill="none" stroke-width="5" stroke-opacity="1" d=" M16.56 1.5 C16.56,1.5 157.13,101.51 157.13,101.51 "/><path id="_R_G_L_0_G_L_4_G_D_1_P_0" stroke="#8395a7" stroke-linecap="round" stroke-linejoin="round" fill="none" stroke-width="5" stroke-opacity="1" d=" M1.5 8.16 C1.5,8.16 100.48,113.95 100.48,113.95 "/><path id="_R_G_L_0_G_L_4_G_D_2_P_0" stroke="#8395a7" stroke-linecap="round" stroke-linejoin="round" fill="none" stroke-width="5" stroke-opacity="1" d=" M57.35 46.78 C57.35,46.78 96.34,87.12 96.34,87.12 "/></g></g><g id="_R_G_L_0_G_L_3_G" transform=" translate(85.701, 188.425) scale(0.81, 0.81) translate(-220.304, -225.367)"><path id="_R_G_L_0_G_L_3_G_D_0_P_0" fill="#8395a7" fill-opacity="1" fill-rule="nonzero" d=" M170.65 167.57 C170.65,167.57 151.67,147.75 151.67,147.75 C145.92,141.82 136.46,141.56 130.41,147.31 C130.41,147.31 79.98,195.84 79.98,195.84 C79.98,195.84 75.73,191.33 75.73,191.33 C70.32,185.76 61.56,185.15 55.41,190.08 C55.41,190.08 9.6,227.24 9.6,227.24 C6.17,229.99 4.12,234.17 4.05,238.61 C4.05,238.61 0.31,433.73 0.31,433.73 C0.25,437.82 1.82,441.81 4.82,444.67 C10.69,450.48 20.27,450.4 26.09,444.53 C26.09,444.53 163.97,304.09 163.97,304.09 C169.67,298.33 169.69,288.98 164.06,283.17 C164.06,283.17 159.8,278.66 159.8,278.66 C159.8,278.66 210.23,230.24 210.23,230.24 C216.16,224.49 216.43,215.03 210.68,208.98 C210.68,208.98 191.7,189.16 191.7,189.16 C184.45,182.04 177.55,174.8 170.65,167.57z  M127.62 288.68 C127.62,288.68 132.23,293.43 132.23,293.43 C132.23,293.43 31.05,396.57 31.05,396.57 C31.05,396.57 33.97,246.2 33.97,246.2 C33.97,246.2 63.56,222.12 63.56,222.12 C63.56,222.12 68.74,227.46 68.74,227.46 C68.74,227.46 127.62,288.68 127.62,288.68z  M178.38 218.99 C178.38,218.99 138.87,257.06 138.87,257.06 C138.87,257.06 100.8,217.55 100.8,217.55 C100.8,217.55 140.31,179.48 140.31,179.48 C140.31,179.48 178.38,218.99 178.38,218.99z "/><path id="_R_G_L_0_G_L_3_G_D_1_P_0" fill="#8395a7" fill-opacity="1" fill-rule="nonzero" d=" M140.3 157.39 C156.35,192.47 180.79,214.59 201.99,211.65 C205.73,211.12 210.08,209.79 214.68,206.7 C214.68,206.7 324.34,99.6 324.34,99.6 C324.34,99.6 400.58,142.63 400.58,142.63 C400.58,142.63 400.69,142.63 400.69,142.74 C407.76,146.71 416.8,144.16 420.65,137.09 C420.65,137.09 436.75,108.48 436.75,108.48 C440.36,102.1 438.73,94.01 432.84,89.6 C432.84,89.6 322.19,4.66 322.19,4.66 C316.54,0.25 308.47,0.71 303.25,5.54 C249.05,56 194.74,106.7 140.3,157.39z  M178.58 198.89 C174.15,190.06 169.62,181.22 165.19,172.51 C165.19,172.51 179.06,160.1 179.06,160.1 C179.89,159.53 180.72,158.96 181.43,158.27 C181.43,158.27 314.24,35.28 314.24,35.28 C314.24,35.28 404.9,104.94 404.9,104.94 C404.9,104.94 402.26,109.69 402.26,109.69 C402.26,109.69 329.15,68.58 329.15,68.58 C323.47,65.34 316.33,66.28 311.7,70.89 C311.7,70.89 194.8,185.12 194.8,185.12 C189.35,189.71 184.02,194.3 178.58,198.89z "/></g><g id="_R_G_L_0_G_L_2_G" transform=" translate(811.736, 224.339) scale(0.9, 0.9) translate(-246.416, -243.21)"><path id="_R_G_L_0_G_L_2_G_D_0_P_0" fill="#8395a7" fill-opacity="1" fill-rule="nonzero" d=" M491.43 469.58 C491.43,469.58 492.52,376.8 492.52,376.8 C492.58,372.71 491.01,368.72 488.13,365.87 C488.13,365.87 320.06,193.55 320.06,193.55 C314.07,187.5 304.26,187.35 298.21,193.33 C298.21,193.33 285.75,205.41 285.75,205.41 C285.75,205.41 227.53,145.83 227.53,145.83 C240.49,132.13 247.9,114.13 248.42,95.43 C249.1,44.25 194.01,1.91 125.77,1.08 C57.53,0.25 1.49,41.22 0.93,92.4 C0.25,143.58 55.34,185.93 123.58,186.76 C151.74,187.43 179.55,180.15 203.73,165.68 C203.73,165.68 263.67,227.15 263.67,227.15 C263.67,227.15 251.21,239.23 251.21,239.23 C245.16,245.21 245,255.03 250.99,261.08 C250.99,261.08 464.85,480.27 464.85,480.27 C469.22,484.78 475.86,486.17 481.62,483.81 C487.5,481.44 491.33,475.89 491.43,469.58z  M217.46 94.95 C217.05,128.49 174.19,156.34 123.95,155.67 C73.7,155.01 31.49,126.19 31.9,92.65 C32.3,59.11 75.16,31.26 125.41,31.93 C175.77,32.59 217.98,61.42 217.46,94.95z  M460.92 431.83 C460.92,431.83 283.88,250.49 283.88,250.49 C283.88,250.49 308.68,226.22 308.68,226.22 C308.68,226.22 461.45,382.75 461.45,382.75 C461.45,382.75 460.92,431.83 460.92,431.83z "/></g><g id="_R_G_L_0_G_L_1_G" transform=" translate(490.677, 594.833) translate(-331.002, -395.379)"><path id="_R_G_L_0_G_L_1_G_D_0_P_0" fill="#8395a7" fill-opacity="1" fill-rule="nonzero" d=" M3.2 116.26 C7.02,98.46 13.29,80.88 22.51,65.72 C43.64,30.96 75.82,12.38 117.09,12.35 C158.78,12.32 193.97,30.4 227.58,53.19 C263.42,77.5 300.63,99.6 342.31,112.65 C356.04,116.95 370.54,118.78 384.45,122.63 C389.95,124.15 396.41,127.19 399.92,130.95 C396.08,134.13 390.01,137.08 384.69,137.96 C350.3,143.59 319.43,130.14 288.1,119.28 C251.36,106.55 214.5,94.13 177.84,81.15 C156.49,73.6 135.57,74.18 115.14,83.41 C98.02,91.14 87.55,105.26 86.73,123.69 C85.41,153.06 92.65,181.27 106.91,206.89 C118.2,227.18 133.34,245.37 144.04,265.92 C161.71,299.84 169.36,336.62 170.62,375 C171.98,416.25 163.67,456.11 156.3,496.25 C147.07,546.59 147.98,597 159.8,646.76 C169.22,686.41 184.11,724.26 202.48,760.72 C205.56,766.83 207.7,773.53 209.39,780.17 C210.11,782.99 210.3,787.29 208.03,789.52 C205.76,790.51 200.21,788.74 198.48,786.59 C185.11,770.02 170.99,753.84 159.55,735.97 C128.81,687.96 115.33,633.83 109.22,578.01 C104.9,538.62 103.13,498.9 101.55,459.27 C100.82,441.17 104.62,422.89 104.02,404.78 C102.83,369.03 91.31,335.54 76.11,303.68 C62.33,274.79 46.97,246.57 30.65,219.04 C18.08,197.83 8.91,175.67 3.2,151.88 C0.58,138.75 0.25,132.15 3.2,116.26z "/><path id="_R_G_L_0_G_L_1_G_D_1_P_0" fill="#8395a7" fill-opacity="1" fill-rule="nonzero" d=" M273.61 64.82 C282.81,64.82 301.1,64.98 310.25,65.69 C376.75,70.87 441.23,62.88 503.7,38.53 C530.03,28.26 557.8,24.19 586.24,27.8 C625.66,32.8 652.18,60.22 656.22,99.74 C661.75,153.92 647,203.68 622.16,250.8 C608.08,277.51 591.45,302.86 576.74,329.26 C556.74,365.13 546.73,404.19 545.69,444.94 C544.89,476.54 548.31,508.24 548.17,539.88 C547.87,605.56 527.46,665.44 492.5,720.51 C480.29,739.74 466.81,758.17 453.43,776.61 C451.54,779.22 446.87,781.71 443.5,781.34 C441.54,778.45 441.02,773.82 442.1,770.92 C451.63,745.31 461.72,719.92 471.59,694.45 C483.91,662.61 490.26,629.41 493.83,595.62 C498.49,551.52 495.77,507.7 486.65,464.43 C480.12,433.46 481.25,402.67 490.4,373.09 C499.38,344.09 511.78,316.06 524.01,288.18 C542.38,246.27 559.46,203.98 569.27,159.14 C576.43,126.41 560.39,103.29 526.9,101.79 C499.13,100.55 471.06,101.8 443.35,104.42 C389.47,109.51 338.27,101.41 289.54,77.98 C286.18,76.36 283.19,74.77 280.05,72.15 C277.11,69.7 274.1,66.42 273.61,64.82z "/><path id="_R_G_L_0_G_L_1_G_D_2_P_0" fill="#8395a7" fill-opacity="1" fill-rule="nonzero" d=" M224.61 764.61 C219.62,755.71 212.31,747.35 210.06,737.8 C202.47,705.48 194.05,673 190.71,640.11 C182.67,560.95 200.36,485.87 232.76,413.85 C242.07,393.16 254.71,375.05 272.71,361.03 C305.15,335.74 346.38,340.42 379.08,372.45 C413.07,405.76 430.22,447.57 441.54,492.66 C451.21,531.14 456.21,570.16 454.76,609.71 C453.03,657.02 448.35,704.02 430.38,748.53 C429.4,750.96 427.01,754.59 424.33,754.55 C421.39,753.56 419.97,750.34 419.66,747.99 C415.76,718.3 411.96,688.6 408.64,658.84 C405.65,631.97 403.88,604.95 400.46,578.14 C397.43,554.42 395.63,529.97 388.17,507.54 C381.48,487.41 369.7,468.17 356.8,451.09 C337.56,425.61 304.51,428.75 283.08,455.38 C267.62,474.6 257.33,496.36 248.3,519.1 C235.41,551.53 231.76,585.38 231.49,619.72 C231.13,664.5 231.69,709.29 231.64,754.07 C231.64,757.24 231.02,760.34 230.12,763.51 C229.48,765.21 227.44,767.64 224.61,764.61z "/><path id="_R_G_L_0_G_L_1_G_D_3_P_0" fill="#8395a7" fill-opacity="1" fill-rule="nonzero" d=" M217.78 33.81 C219.64,35.05 221.22,36.01 227.82,36.81 C234.42,37.61 303.92,37.22 341.96,38.08 C360.13,38.49 378.32,40.01 396.4,41.93 C428.43,45.33 459.81,44.29 489.73,30.81 C492.22,29.68 497.05,25.86 499.13,23.82 C497.01,21.66 492.17,19.52 489.6,18.48 C457.74,5.61 424.06,2 390.2,0.96 C367.23,0.25 344.17,1.65 321.17,2.63 C290.29,3.93 244.42,15.35 232.27,23.24 C220.13,31.12 217.78,33.81 217.78,33.81z "/></g><g id="_R_G_L_0_G_L_0_G" transform=" translate(496.875, 431.375) translate(3.125, 68.625)"><g id="_R_G_L_0_G_L_0_G_D_0_P_0_G_0_T_0"><path id="_R_G_L_0_G_L_0_G_D_0_P_0" fill="#8395a7" fill-opacity="1" fill-rule="nonzero" d=" M146 -165 C146,-165 119.5,-107.5 119.5,-107.5 C119.5,-107.5 163.5,-87 163.5,-87 C163.5,-87 190,-151 190,-151 C190,-151 146,-165 146,-165z "/></g><g id="_R_G_L_0_G_L_0_G_D_1_P_0_G_0_T_0"><path id="_R_G_L_0_G_L_0_G_D_1_P_0" fill="#8395a7" fill-opacity="1" fill-rule="nonzero" d=" M155 -12 C155,-12 131.5,-9 131.5,-9 C131.5,-9 144.25,23.25 144.25,23.25 C144.25,23.25 162.5,14 162.5,14 C162.5,14 155,-12 155,-12z "/></g><g id="_R_G_L_0_G_L_0_G_D_2_P_0_G_0_T_0"><path id="_R_G_L_0_G_L_0_G_D_2_P_0" fill="#8395a7" fill-opacity="1" fill-rule="nonzero" d=" M75.5 -52.5 C75.5,-52.5 59.25,-3.75 59.25,-3.75 C59.25,-3.75 97.25,7.25 97.25,7.25 C97.25,7.25 111,-40.75 111,-40.75 C111,-40.75 75.5,-52.5 75.5,-52.5z "/></g><g id="_R_G_L_0_G_L_0_G_D_3_P_0_G_0_T_0"><path id="_R_G_L_0_G_L_0_G_D_3_P_0" fill="#8395a7" fill-opacity="1" fill-rule="nonzero" d=" M51.25 -119.25 C51.25,-119.25 30.5,-117 30.5,-117 C30.5,-117 38.25,-86 38.25,-86 C38.25,-86 58.5,-87.75 58.5,-87.75 C58.5,-87.75 51.25,-119.25 51.25,-119.25z "/></g><g id="_R_G_L_0_G_L_0_G_D_4_P_0_G_0_T_0"><path id="_R_G_L_0_G_L_0_G_D_4_P_0" fill="#8395a7" fill-opacity="1" fill-rule="nonzero" d=" M-11.5 -24.75 C-11.5,-24.75 -31.25,-23.75 -31.25,-23.75 C-31.25,-23.75 -23.75,6.75 -23.75,6.75 C-23.75,6.75 -6,5 -6,5 C-6,5 -11.5,-24.75 -11.5,-24.75z "/></g><g id="_R_G_L_0_G_L_0_G_D_5_P_0_G_0_T_0"><path id="_R_G_L_0_G_L_0_G_D_5_P_0" fill="#8395a7" fill-opacity="1" fill-rule="nonzero" d=" M-110.25 -46.25 C-110.25,-46.25 -133.75,10.75 -133.75,10.75 C-133.75,10.75 -90.5,27.75 -90.5,27.75 C-90.5,27.75 -67.5,-29 -67.5,-29 C-67.5,-29 -110.25,-46.25 -110.25,-46.25z "/></g><g id="_R_G_L_0_G_L_0_G_D_6_P_0_G_0_T_0"><path id="_R_G_L_0_G_L_0_G_D_6_P_0" fill="#8395a7" fill-opacity="1" fill-rule="nonzero" d=" M-63 -117.5 C-63,-117.5 -81.5,-74 -81.5,-74 C-81.5,-74 -50.25,-61.25 -50.25,-61.25 C-50.25,-61.25 -34.5,-105.25 -34.5,-105.25 C-34.5,-105.25 -63,-117.5 -63,-117.5z "/></g><g id="_R_G_L_0_G_L_0_G_D_7_P_0_G_0_T_0"><path id="_R_G_L_0_G_L_0_G_D_7_P_0" fill="#8395a7" fill-opacity="1" fill-rule="nonzero" d=" M-114 -129.5 C-114,-129.5 -129.5,-128.5 -129.5,-128.5 C-129.5,-128.5 -125.25,-101.25 -125.25,-101.25 C-125.25,-101.25 -110.75,-103 -110.75,-103 C-110.75,-103 -114,-129.5 -114,-129.5z "/></g><g id="_R_G_L_0_G_L_0_G_D_8_P_0_G_0_T_0"><path id="_R_G_L_0_G_L_0_G_D_8_P_0" fill="#8395a7" fill-opacity="1" fill-rule="nonzero" d=" M-178 -142.25 C-178,-142.25 -196.25,-140.25 -196.25,-140.25 C-196.25,-140.25 -193.75,-111 -193.75,-111 C-193.75,-111 -177.25,-112 -177.25,-112 C-177.25,-112 -178,-142.25 -178,-142.25z "/></g></g></g></g><g id="time_group"/></svg>