<svg xmlns="http://www.w3.org/2000/svg" xmlns:xlink="http://www.w3.org/1999/xlink" preserveAspectRatio="xMidYMid meet" width="512" height="512" viewBox="0 0 512 512" style="width:100%;height:100%"><defs><animateMotion repeatCount="indefinite" dur="4s" begin="0s" xlink:href="#_R_G_L_8_G" fill="freeze" keyTimes="0;0.1083333;0.2083333;0.225;0.3416667;0.3916667;0.4416667;0.475;0.5166667;0.625;1" path="M113.66 394.11 C113.66,394.11 113.66,394.11 113.66,394.11 C113.66,394.11 113.66,245.11 113.66,245.11 C113.66,245.11 113.66,245.11 113.66,245.11 C113.66,245.11 207.11,247.35 222.56,243.17 C238,239 171.68,173.03 186.34,141.01 C201,109 246.27,121.43 265.59,124.11 C293.13,127.92 325.61,141.75 327.56,164.38 C329.5,187 318.78,199.85 296.64,226.05 C274.5,252.25 113.66,245.11 113.66,245.11 C113.66,245.11 113.66,245.11 113.66,245.11 " keyPoints="0;0;0.19;0.19;0.32;0.47;0.58;0.68;0.77;1;1" keySplines="0.167 0.167 0.667 1;0.167 0.167 0.667 1;0.333 0.333 0.833 0.833;0.167 0.167 0.833 0.833;0.167 0.167 0.833 0.833;0.167 0.167 0.833 0.833;0.167 0.167 0.833 0.833;0.167 0.167 0.833 0.833;0.167 0.167 0.833 0.833;0 0 0 0" calcMode="spline"/><animateTransform repeatCount="indefinite" dur="4s" begin="0s" xlink:href="#_R_G_L_8_G" fill="freeze" attributeName="transform" from="-85.659 -54.343" to="-85.659 -54.343" type="translate" additive="sum" keyTimes="0;1" values="-85.659 -54.343;-85.659 -54.343" keySplines="0 0 1 1" calcMode="spline"/><animateMotion repeatCount="indefinite" dur="4s" begin="0s" xlink:href="#_R_G_L_6_G" fill="freeze" keyTimes="0;0.0416667;0.2;1" path="M258.31 444.7 C258.31,444.7 258.31,444.7 258.31,444.7 C258.31,403.7 258.31,239.7 258.31,198.7 C258.31,198.7 258.31,198.7 258.31,198.7 " keyPoints="0;0;1;1" keySplines="0.333 0 0.667 1;0.333 0 0.667 1;0 0 0 0" calcMode="spline"/><animateTransform repeatCount="indefinite" dur="4s" begin="0s" xlink:href="#_R_G_L_6_G" fill="freeze" attributeName="transform" from="1.17 1.17" to="1.17 1.17" type="scale" additive="sum" keyTimes="0;1" values="1.17 1.17;1.17 1.17" keySplines="0 0 1 1" calcMode="spline"/><animateTransform repeatCount="indefinite" dur="4s" begin="0s" xlink:href="#_R_G_L_6_G" fill="freeze" attributeName="transform" from="-75.83 -90.54" to="-75.83 -90.54" type="translate" additive="sum" keyTimes="0;1" values="-75.83 -90.54;-75.83 -90.54" keySplines="0 0 1 1" calcMode="spline"/><animate repeatCount="indefinite" dur="4s" begin="0s" xlink:href="#_R_G_L_3_G" fill="freeze" attributeName="opacity" from="0" to="0" keyTimes="0;0.2916667;0.3333333;0.5666667;0.6083333;1" values="0;0;0.3;0.3;0;0" keySplines="0.167 0.167 0.833 0.833;0.167 0.167 0.833 0.833;0.167 0.167 0.833 0.833;0.167 0.167 0.833 0.833;0 0 0 0" calcMode="spline"/><animateMotion repeatCount="indefinite" dur="4s" begin="0s" xlink:href="#_R_G_L_3_G_N_11_T_0" fill="freeze" keyTimes="0;0.1083333;0.2083333;0.225;0.3416667;0.3916667;0.4416667;0.475;0.5166667;0.625;1" path="M113.66 394.11 C113.66,394.11 113.66,394.11 113.66,394.11 C113.66,394.11 113.66,245.11 113.66,245.11 C113.66,245.11 113.66,245.11 113.66,245.11 C113.66,245.11 207.11,247.35 222.56,243.17 C238,239 171.68,173.03 186.34,141.01 C201,109 246.27,121.43 265.59,124.11 C293.13,127.92 325.61,141.75 327.56,164.38 C329.5,187 318.78,199.85 296.64,226.05 C274.5,252.25 113.66,245.11 113.66,245.11 C113.66,245.11 113.66,245.11 113.66,245.11 " keyPoints="0;0;0.19;0.19;0.32;0.47;0.58;0.68;0.77;1;1" keySplines="0.167 0.167 0.667 1;0.167 0.167 0.667 1;0.333 0.333 0.833 0.833;0.167 0.167 0.833 0.833;0.167 0.167 0.833 0.833;0.167 0.167 0.833 0.833;0.167 0.167 0.833 0.833;0.167 0.167 0.833 0.833;0.167 0.167 0.833 0.833;0 0 0 0" calcMode="spline"/><animateTransform repeatCount="indefinite" dur="4s" begin="0s" xlink:href="#_R_G_L_3_G_N_11_T_0" fill="freeze" attributeName="transform" from="-85.659 -54.343" to="-85.659 -54.343" type="translate" additive="sum" keyTimes="0;1" values="-85.659 -54.343;-85.659 -54.343" keySplines="0 0 1 1" calcMode="spline"/><animate repeatCount="indefinite" dur="4s" begin="0s" xlink:href="#_R_G_L_2_G" fill="freeze" attributeName="opacity" from="0" to="0" keyTimes="0;0.2916667;0.3333333;0.5666667;0.6083333;1" values="0;0;1;1;0;0" keySplines="0.167 0.167 0.833 0.833;0.167 0.167 0.833 0.833;0.167 0.167 0.833 0.833;0.167 0.167 0.833 0.833;0 0 0 0" calcMode="spline"/><animateMotion repeatCount="indefinite" dur="4s" begin="0s" xlink:href="#_R_G_L_2_G_N_11_T_0" fill="freeze" keyTimes="0;0.1083333;0.2083333;0.225;0.3416667;0.3916667;0.4416667;0.475;0.5166667;0.625;1" path="M113.66 394.11 C113.66,394.11 113.66,394.11 113.66,394.11 C113.66,394.11 113.66,245.11 113.66,245.11 C113.66,245.11 113.66,245.11 113.66,245.11 C113.66,245.11 207.11,247.35 222.56,243.17 C238,239 171.68,173.03 186.34,141.01 C201,109 246.27,121.43 265.59,124.11 C293.13,127.92 325.61,141.75 327.56,164.38 C329.5,187 318.78,199.85 296.64,226.05 C274.5,252.25 113.66,245.11 113.66,245.11 C113.66,245.11 113.66,245.11 113.66,245.11 " keyPoints="0;0;0.19;0.19;0.32;0.47;0.58;0.68;0.77;1;1" keySplines="0.167 0.167 0.667 1;0.167 0.167 0.667 1;0.333 0.333 0.833 0.833;0.167 0.167 0.833 0.833;0.167 0.167 0.833 0.833;0.167 0.167 0.833 0.833;0.167 0.167 0.833 0.833;0.167 0.167 0.833 0.833;0.167 0.167 0.833 0.833;0 0 0 0" calcMode="spline"/><animateTransform repeatCount="indefinite" dur="4s" begin="0s" xlink:href="#_R_G_L_2_G_N_11_T_0" fill="freeze" attributeName="transform" from="-85.659 -54.343" to="-85.659 -54.343" type="translate" additive="sum" keyTimes="0;1" values="-85.659 -54.343;-85.659 -54.343" keySplines="0 0 1 1" calcMode="spline"/><animate repeatCount="indefinite" dur="4s" begin="0s" xlink:href="#_R_G_L_1_G" fill="freeze" attributeName="opacity" from="0" to="1" keyTimes="0;0.7083333;0.75;1" values="0;0;1;1" keySplines="0.167 0.167 0.833 0.833;0.167 0.167 0.833 0.833;0 0 0 0" calcMode="spline"/><animate repeatCount="indefinite" dur="4s" begin="0s" xlink:href="#_R_G_L_1_G_M" fill="freeze" attributeName="opacity" from="0" to="1" keyTimes="0;0.7083333;0.7083342;1" values="0;0;1;1" keySplines="0 0 0 0;0 0 0 0;0 0 0 0" calcMode="spline"/><animate repeatCount="indefinite" dur="4s" begin="0s" xlink:href="#_R_G_L_0_G_D_0_P_0" fill="freeze" attributeName="d" attributeType="XML" from="M161.5 -161.87 C161.5,-161.87 161.56,-161.81 161.56,-161.81 C161.56,-161.81 161.66,-161.78 161.66,-161.78 " to="M161.5 -161.87 C161.5,-161.87 170.63,-154.62 174.25,-149.87 C176.13,-152.12 190.25,-176.75 200.63,-182.25 " keyTimes="0;0.75;0.775;0.8083333;1" values="M161.5 -161.87 C161.5,-161.87 161.56,-161.81 161.56,-161.81 C161.56,-161.81 161.66,-161.78 161.66,-161.78 ;M161.5 -161.87 C161.5,-161.87 161.56,-161.81 161.56,-161.81 C161.56,-161.81 161.66,-161.78 161.66,-161.78 ;M161.5 -161.87 C167.5,-157.5 174.25,-149.87 174.25,-149.87 C174.25,-149.87 174.34,-149.84 174.34,-149.84 ;M161.5 -161.87 C161.5,-161.87 170.63,-154.62 174.25,-149.87 C176.13,-152.12 190.25,-176.75 200.63,-182.25 ;M161.5 -161.87 C161.5,-161.87 170.63,-154.62 174.25,-149.87 C176.13,-152.12 190.25,-176.75 200.63,-182.25 " keySplines="0.167 0.167 0.833 0.833;0.167 0.167 0.833 0.833;0.167 0.167 0.833 0.833;0 0 0 0" calcMode="spline"/><animate repeatCount="indefinite" dur="4s" begin="0s" xlink:href="#_R_G_L_0_G_M" fill="freeze" attributeName="opacity" from="0" to="1" keyTimes="0;0.75;0.7500008;1" values="0;0;1;1" keySplines="0 0 0 0;0 0 0 0;0 0 0 0" calcMode="spline"/><animate attributeType="XML" attributeName="opacity" dur="4s" from="0" to="1" xlink:href="#time_group"/></defs><g id="_R_G"><g id="_R_G_L_10_G"><rect id="_R_G_L_10_G_S" fill="#000000" width="512" height="512"/></g><g id="_R_G_L_9_G" transform=" translate(256, 256) translate(-248.25, -208.25)"><path id="_R_G_L_9_G_D_0_P_0" fill="#ffffff" fill-opacity="1" fill-rule="nonzero" d=" M468.25 0.25 C468.25,0.25 28.25,0.25 28.25,0.25 C12.79,0.27 0.27,12.79 0.25,28.25 C0.25,28.25 0.25,324.25 0.25,324.25 C0.27,339.71 12.79,352.23 28.25,352.25 C28.25,352.25 190.49,352.25 190.49,352.25 C190.49,352.25 185.69,376.25 185.69,376.25 C185.69,376.25 152.25,376.25 152.25,376.25 C147.83,376.25 144.25,379.83 144.25,384.25 C144.25,384.25 144.25,408.25 144.25,408.25 C144.25,412.67 147.83,416.25 152.25,416.25 C152.25,416.25 344.25,416.25 344.25,416.25 C348.67,416.25 352.25,412.67 352.25,408.25 C352.25,408.25 352.25,384.25 352.25,384.25 C352.25,379.83 348.67,376.25 344.25,376.25 C344.25,376.25 310.81,376.25 310.81,376.25 C310.81,376.25 306.01,352.25 306.01,352.25 C306.01,352.25 468.25,352.25 468.25,352.25 C483.71,352.23 496.23,339.71 496.25,324.25 C496.25,324.25 496.25,28.25 496.25,28.25 C496.23,12.79 483.71,0.27 468.25,0.25z   "/></g><g id="_R_G_L_8_G"><path id="_R_G_L_8_G_D_0_P_0" fill="#8395a7" fill-opacity="1" fill-rule="nonzero" d=" M3.78 121.23 C3.78,121.23 34.68,89.28 34.68,89.28 C39.39,96.13 45.44,101.98 52.45,106.46 C52.45,106.46 21.54,138.41 21.54,138.41 C19.17,140.86 16.03,142.12 12.87,142.17 C9.7,142.23 6.52,141.07 4.07,138.7 C1.7,136.41 0.36,133.33 0.3,130.03 C0.25,126.73 1.48,123.6 3.78,121.23z "/><path id="_R_G_L_8_G_D_1_P_0" fill="#8395a7" fill-opacity="1" fill-rule="nonzero" d=" M86.55 107.94 C116.11,107.45 139.75,83 139.26,53.45 C138.76,23.89 114.32,0.25 84.76,0.74 C55.21,1.24 31.57,25.68 32.06,55.24 C32.55,84.79 57,108.44 86.55,107.94z  M48.56 54.96 C48.22,34.51 64.58,17.58 85.04,17.24 C105.5,16.9 122.42,33.27 122.76,53.72 C123.1,74.18 106.74,91.1 86.28,91.45 C65.82,91.79 48.9,75.42 48.56,54.96z "/></g><g id="_R_G_L_7_G" transform=" translate(256, 256) translate(0, 0)"><path id="_R_G_L_7_G_D_0_P_0" fill="#ffffff" fill-opacity="1" fill-rule="nonzero" d=" M271 83.5 C271,83.5 -272.5,83.5 -272.5,83.5 C-272.5,83.5 -272.5,268 -272.5,268 C-272.5,268 271,268 271,268 C271,268 271,83.5 271,83.5z "/></g><g id="_R_G_L_6_G"><path id="_R_G_L_6_G_D_0_P_0" fill="#8395a7" fill-opacity="1" fill-rule="nonzero" d=" M0.92 26.76 C1.8,22.69 3.23,18.67 5.34,15.21 C10.16,7.27 17.52,3.02 26.95,3.02 C36.48,3.01 44.52,7.14 52.2,12.35 C60.39,17.9 68.89,22.95 78.41,25.94 C81.55,26.92 84.87,27.33 88.04,28.21 C89.3,28.56 90.78,29.26 91.58,30.12 C90.7,30.84 89.31,31.52 88.1,31.72 C80.24,33 73.19,29.93 66.03,27.45 C57.63,24.54 49.21,21.7 40.83,18.74 C35.95,17.01 31.17,17.14 26.5,19.25 C22.59,21.02 20.2,24.25 20.01,28.46 C19.71,35.17 21.36,41.61 24.62,47.47 C27.2,52.11 30.66,56.26 33.11,60.96 C37.14,68.71 38.89,77.11 39.18,85.88 C39.49,95.31 37.59,104.42 35.91,113.59 C33.8,125.09 34.01,136.61 36.71,147.98 C38.86,157.04 42.26,165.69 46.46,174.02 C47.17,175.42 47.65,176.95 48.04,178.47 C48.2,179.11 48.25,180.1 47.73,180.61 C47.21,180.83 45.94,180.43 45.55,179.94 C42.49,176.15 39.26,172.45 36.65,168.37 C29.63,157.4 26.55,145.03 25.15,132.27 C24.16,123.27 23.76,114.2 23.4,105.14 C23.23,101 24.1,96.83 23.96,92.69 C23.69,84.52 21.06,76.87 17.58,69.59 C14.44,62.99 10.92,56.54 7.2,50.25 C4.32,45.4 2.23,40.34 0.92,34.9 C0.32,31.9 0.25,30.39 0.92,26.76z "/><path id="_R_G_L_6_G_D_1_P_0" fill="#8395a7" fill-opacity="1" fill-rule="nonzero" d=" M62.71 15.01 C64.82,15.01 69,15.04 71.09,15.2 C86.28,16.39 101.02,14.56 115.29,9 C121.31,6.65 127.65,5.72 134.15,6.55 C143.16,7.69 149.22,13.95 150.14,22.99 C151.41,35.37 148.04,46.74 142.36,57.51 C139.14,63.61 135.34,69.4 131.98,75.43 C127.41,83.63 125.13,92.55 124.89,101.87 C124.71,109.09 125.49,116.33 125.45,123.56 C125.39,138.57 120.72,152.25 112.73,164.84 C109.94,169.23 106.86,173.44 103.8,177.66 C103.37,178.25 102.31,178.82 101.54,178.74 C101.09,178.08 100.97,177.02 101.22,176.36 C103.39,170.5 105.7,164.7 107.95,158.88 C110.77,151.61 112.22,144.02 113.04,136.3 C114.1,126.22 113.48,116.21 111.4,106.32 C109.9,99.24 110.16,92.21 112.26,85.45 C114.31,78.82 117.14,72.42 119.93,66.05 C124.13,56.47 128.03,46.81 130.28,36.56 C131.91,29.08 128.25,23.8 120.6,23.45 C114.25,23.17 107.83,23.46 101.5,24.05 C89.19,25.22 77.49,23.36 66.35,18.01 C65.59,17.64 64.9,17.28 64.19,16.68 C63.52,16.12 62.83,15.37 62.71,15.01z "/><path id="_R_G_L_6_G_D_2_P_0" fill="#8395a7" fill-opacity="1" fill-rule="nonzero" d=" M51.52 174.91 C50.38,172.88 48.71,170.97 48.19,168.79 C46.46,161.4 44.54,153.98 43.77,146.46 C41.94,128.38 45.98,111.22 53.38,94.76 C55.51,90.03 58.4,85.89 62.51,82.69 C69.92,76.91 79.35,77.98 86.82,85.3 C94.58,92.91 98.5,102.47 101.09,112.77 C103.3,121.56 104.44,130.48 104.11,139.52 C103.72,150.33 102.65,161.07 98.54,171.24 C98.32,171.79 97.77,172.62 97.16,172.61 C96.49,172.39 96.16,171.65 96.09,171.11 C95.2,164.33 94.33,157.54 93.57,150.74 C92.89,144.6 92.48,138.43 91.7,132.3 C91.01,126.88 90.6,121.29 88.9,116.17 C87.37,111.57 84.67,107.17 81.72,103.27 C77.33,97.45 69.78,98.17 64.88,104.25 C61.35,108.64 59,113.62 56.93,118.81 C53.99,126.22 53.15,133.96 53.09,141.81 C53.01,152.04 53.14,162.27 53.13,172.5 C53.13,173.23 52.98,173.94 52.78,174.66 C52.63,175.05 52.16,175.6 51.52,174.91z "/><path id="_R_G_L_6_G_D_3_P_0" fill="#8395a7" fill-opacity="1" fill-rule="nonzero" d=" M49.96 7.92 C50.38,8.2 50.74,8.42 52.25,8.6 C53.76,8.79 69.64,8.7 78.33,8.89 C82.49,8.99 86.64,9.34 90.77,9.77 C98.09,10.55 105.26,10.31 112.1,7.23 C112.67,6.98 113.77,6.1 114.25,5.64 C113.76,5.14 112.66,4.65 112.07,4.42 C104.79,1.48 97.1,0.65 89.36,0.41 C84.11,0.25 78.84,0.57 73.58,0.79 C66.53,1.09 56.04,3.7 53.27,5.5 C50.49,7.31 49.96,7.92 49.96,7.92z "/></g><g id="_R_G_L_5_G" transform=" translate(256, 256) translate(0, 0)"><path id="_R_G_L_5_G_D_0_P_0" fill="#ffffff" fill-opacity="1" fill-rule="nonzero" d=" M271 83.5 C271,83.5 -272.5,83.5 -272.5,83.5 C-272.5,83.5 -272.5,268 -272.5,268 C-272.5,268 271,268 271,268 C271,268 271,83.5 271,83.5z "/></g><g id="_R_G_L_4_G" transform=" translate(256, 256) translate(-248.25, -208.25)"><path id="_R_G_L_4_G_D_0_P_0" fill="#8395a7" fill-opacity="1" fill-rule="nonzero" d=" M468.25 0.25 C468.25,0.25 28.25,0.25 28.25,0.25 C12.79,0.27 0.27,12.79 0.25,28.25 C0.25,28.25 0.25,324.25 0.25,324.25 C0.27,339.71 12.79,352.23 28.25,352.25 C28.25,352.25 190.49,352.25 190.49,352.25 C190.49,352.25 185.69,376.25 185.69,376.25 C185.69,376.25 152.25,376.25 152.25,376.25 C147.83,376.25 144.25,379.83 144.25,384.25 C144.25,384.25 144.25,408.25 144.25,408.25 C144.25,412.67 147.83,416.25 152.25,416.25 C152.25,416.25 344.25,416.25 344.25,416.25 C348.67,416.25 352.25,412.67 352.25,408.25 C352.25,408.25 352.25,384.25 352.25,384.25 C352.25,379.83 348.67,376.25 344.25,376.25 C344.25,376.25 310.81,376.25 310.81,376.25 C310.81,376.25 306.01,352.25 306.01,352.25 C306.01,352.25 468.25,352.25 468.25,352.25 C483.71,352.23 496.23,339.71 496.25,324.25 C496.25,324.25 496.25,28.25 496.25,28.25 C496.23,12.79 483.71,0.27 468.25,0.25z    M336.25 400.25 C336.25,400.25 160.25,400.25 160.25,400.25 C160.25,400.25 160.25,392.25 160.25,392.25 C160.25,392.25 336.25,392.25 336.25,392.25 C336.25,392.25 336.25,400.25 336.25,400.25z  M202.01 376.25 C202.01,376.25 206.81,352.25 206.81,352.25 C206.81,352.25 289.69,352.25 289.69,352.25 C289.69,352.25 294.49,376.25 294.49,376.25 C294.49,376.25 202.01,376.25 202.01,376.25z  M480.25 324.25 C480.24,330.88 474.88,336.24 468.25,336.25 C468.25,336.25 28.25,336.25 28.25,336.25 C21.63,336.24 16.25,330.88 16.25,324.25 C16.25,324.25 16.25,304.25 16.25,304.25 C16.25,304.25 480.25,304.25 480.25,304.25 C480.25,304.25 480.25,324.25 480.25,324.25z  M480.25 288.25 C480.25,288.25 16.25,288.25 16.25,288.25 C16.25,288.25 16.25,28.25 16.25,28.25 C16.25,21.63 21.63,16.26 28.25,16.25 C28.25,16.25 468.25,16.25 468.25,16.25 C474.88,16.26 480.24,21.63 480.25,28.25 C480.25,28.25 480.25,288.25 480.25,288.25z "/><path id="_R_G_L_4_G_D_1_P_0" fill="#8395a7" fill-opacity="1" fill-rule="nonzero" d=" M256.25 312.25 C256.25,312.25 240.25,312.25 240.25,312.25 C235.83,312.25 232.25,315.83 232.25,320.25 C232.25,324.67 235.83,328.25 240.25,328.25 C240.25,328.25 256.25,328.25 256.25,328.25 C260.67,328.25 264.25,324.67 264.25,320.25 C264.25,315.83 260.67,312.25 256.25,312.25z "/></g><g id="_R_G_L_3_G_N_11_T_0"><g id="_R_G_L_3_G" transform=" translate(85.659, 54.343) translate(0, 0)"><path id="_R_G_L_3_G_D_0_P_0" fill="#000000" fill-opacity="1" fill-rule="nonzero" d=" M-37.1 0.62 C-37.44,-19.84 -21.08,-36.76 -0.62,-37.1 C19.84,-37.44 36.76,-21.08 37.1,-0.62 C37.44,19.84 21.08,36.76 0.62,37.1 C-19.84,37.44 -36.76,21.08 -37.1,0.62z "/></g></g><g id="_R_G_L_2_G_N_11_T_0"><g id="_R_G_L_2_G" transform=" translate(85.239, 54.23) translate(-129.32, -227.78)"><path id="_R_G_L_2_G_D_0_P_0" stroke="#ffffff" stroke-linecap="round" stroke-linejoin="round" fill="none" stroke-width="4" stroke-opacity="1" d=" M98.7 220.73 C98.7,220.73 98.7,233.08 98.7,233.08 "/><path id="_R_G_L_2_G_D_1_P_0" stroke="#ffffff" stroke-linecap="round" stroke-linejoin="round" fill="none" stroke-width="4" stroke-opacity="1" d=" M106.72 212.23 C106.72,212.23 106.72,220.35 106.72,220.35 "/><path id="_R_G_L_2_G_D_2_P_0" stroke="#ffffff" stroke-linecap="round" stroke-linejoin="round" fill="none" stroke-width="4" stroke-opacity="1" d=" M106.72 227.01 C106.72,227.01 106.72,240.83 106.72,240.83 "/><path id="_R_G_L_2_G_D_3_P_0" stroke="#ffffff" stroke-linecap="round" stroke-linejoin="round" fill="none" stroke-width="4" stroke-opacity="1" d=" M113.8 240.22 C113.8,240.22 113.8,254.04 113.8,254.04 "/><path id="_R_G_L_2_G_D_4_P_0" stroke="#ffffff" stroke-linecap="round" stroke-linejoin="round" fill="none" stroke-width="4" stroke-opacity="1" d=" M98.7 214.6 C98.7,214.6 98.7,215.81 98.7,215.81 "/><path id="_R_G_L_2_G_D_5_P_0" stroke="#ffffff" stroke-linecap="round" stroke-linejoin="round" fill="none" stroke-width="4" stroke-opacity="1" d=" M106.72 204.08 C106.72,204.08 106.72,206.34 106.72,206.34 "/><path id="_R_G_L_2_G_D_6_P_0" stroke="#ffffff" stroke-linecap="round" stroke-linejoin="round" fill="none" stroke-width="4" stroke-opacity="1" d=" M113.8 206.33 C113.8,206.33 113.8,216.45 113.8,216.45 "/><path id="_R_G_L_2_G_D_7_P_0" stroke="#ffffff" stroke-linecap="round" stroke-linejoin="round" fill="none" stroke-width="4" stroke-opacity="1" d=" M113.8 222.75 C113.8,222.75 113.8,232.87 113.8,232.87 "/><path id="_R_G_L_2_G_D_8_P_0" stroke="#ffffff" stroke-linecap="round" stroke-linejoin="round" fill="none" stroke-width="4" stroke-opacity="1" d=" M113.8 199.31 C113.8,199.31 113.8,200.44 113.8,200.44 "/><path id="_R_G_L_2_G_D_9_P_0" stroke="#ffffff" stroke-linecap="round" stroke-linejoin="round" fill="none" stroke-width="4" stroke-opacity="1" d=" M147.48 240.22 C147.48,240.22 147.48,254.04 147.48,254.04 "/><path id="_R_G_L_2_G_D_10_P_0" stroke="#ffffff" stroke-linecap="round" stroke-linejoin="round" fill="none" stroke-width="4" stroke-opacity="1" d=" M147.48 210.74 C147.48,210.74 147.48,216.45 147.48,216.45 "/><path id="_R_G_L_2_G_D_11_P_0" stroke="#ffffff" stroke-linecap="round" stroke-linejoin="round" fill="none" stroke-width="4" stroke-opacity="1" d=" M154.19 222.75 C154.19,222.75 154.19,228.46 154.19,228.46 "/><path id="_R_G_L_2_G_D_12_P_0" stroke="#ffffff" stroke-linecap="round" stroke-linejoin="round" fill="none" stroke-width="4" stroke-opacity="1" d=" M147.48 222.75 C147.48,222.75 147.48,232.87 147.48,232.87 "/><path id="_R_G_L_2_G_D_13_P_0" stroke="#ffffff" stroke-linecap="round" stroke-linejoin="round" fill="none" stroke-width="4" stroke-opacity="1" d=" M154.19 234.52 C154.19,234.52 154.19,248.34 154.19,248.34 "/><path id="_R_G_L_2_G_D_14_P_0" stroke="#ffffff" stroke-linecap="round" stroke-linejoin="round" fill="none" stroke-width="4" stroke-opacity="1" d=" M154.19 207.17 C154.19,207.17 154.19,217.29 154.19,217.29 "/><path id="_R_G_L_2_G_D_15_P_0" stroke="#ffffff" stroke-linecap="round" stroke-linejoin="round" fill="none" stroke-width="4" stroke-opacity="1" d=" M147.48 201.02 C147.48,201.02 147.48,205.87 147.48,205.87 "/><path id="_R_G_L_2_G_D_16_P_0" stroke="#ffffff" stroke-linecap="round" stroke-linejoin="round" fill="none" stroke-width="4" stroke-opacity="1" d=" M120.88 245.73 C120.88,245.73 120.88,259.54 120.88,259.54 "/><path id="_R_G_L_2_G_D_17_P_0" stroke="#ffffff" stroke-linecap="round" stroke-linejoin="round" fill="none" stroke-width="4" stroke-opacity="1" d=" M120.88 204.33 C120.88,204.33 120.88,216.45 120.88,216.45 "/><path id="_R_G_L_2_G_D_18_P_0" stroke="#ffffff" stroke-linecap="round" stroke-linejoin="round" fill="none" stroke-width="4" stroke-opacity="1" d=" M120.88 223.15 C120.88,223.15 120.88,239.81 120.88,239.81 "/><path id="_R_G_L_2_G_D_19_P_0" stroke="#ffffff" stroke-linecap="round" stroke-linejoin="round" fill="none" stroke-width="4" stroke-opacity="1" d=" M120.88 196.18 C120.88,196.18 120.88,197.3 120.88,197.3 "/><path id="_R_G_L_2_G_D_20_P_0" stroke="#ffffff" stroke-linecap="round" stroke-linejoin="round" fill="none" stroke-width="4" stroke-opacity="1" d=" M140.5 209.99 C140.5,209.99 140.5,197.53 140.5,197.53 "/><path id="_R_G_L_2_G_D_21_P_0" stroke="#ffffff" stroke-linecap="round" stroke-linejoin="round" fill="none" stroke-width="4" stroke-opacity="1" d=" M140.5 251.39 C140.5,251.39 140.5,239.27 140.5,239.27 "/><path id="_R_G_L_2_G_D_22_P_0" stroke="#ffffff" stroke-linecap="round" stroke-linejoin="round" fill="none" stroke-width="4" stroke-opacity="1" d=" M140.5 232.56 C140.5,232.56 140.5,215.91 140.5,215.91 "/><path id="_R_G_L_2_G_D_23_P_0" stroke="#ffffff" stroke-linecap="round" stroke-linejoin="round" fill="none" stroke-width="4" stroke-opacity="1" d=" M140.5 259.54 C140.5,259.54 140.5,258.41 140.5,258.41 "/><path id="_R_G_L_2_G_D_24_P_0" stroke="#ffffff" stroke-linecap="round" stroke-linejoin="round" fill="none" stroke-width="4" stroke-opacity="1" d=" M127.39 250.65 C127.39,250.65 127.39,260.51 127.39,260.51 "/><path id="_R_G_L_2_G_D_25_P_0" stroke="#ffffff" stroke-linecap="round" stroke-linejoin="round" fill="none" stroke-width="4" stroke-opacity="1" d=" M127.39 205.21 C127.39,205.21 127.39,210.74 127.39,210.74 "/><path id="_R_G_L_2_G_D_26_P_0" stroke="#ffffff" stroke-linecap="round" stroke-linejoin="round" fill="none" stroke-width="4" stroke-opacity="1" d=" M127.39 217.73 C127.39,217.73 127.39,243.94 127.39,243.94 "/><path id="_R_G_L_2_G_D_27_P_0" stroke="#ffffff" stroke-linecap="round" stroke-linejoin="round" fill="none" stroke-width="4" stroke-opacity="1" d=" M127.39 195.06 C127.39,195.06 127.39,198.77 127.39,198.77 "/><path id="_R_G_L_2_G_D_28_P_0" stroke="#ffffff" stroke-linecap="round" stroke-linejoin="round" fill="none" stroke-width="4" stroke-opacity="1" d=" M159.94 225.36 C159.94,225.36 159.94,234.52 159.94,234.52 "/><path id="_R_G_L_2_G_D_29_P_0" stroke="#ffffff" stroke-linecap="round" stroke-linejoin="round" fill="none" stroke-width="4" stroke-opacity="1" d=" M159.94 240.22 C159.94,240.22 159.94,241.84 159.94,241.84 "/><path id="_R_G_L_2_G_D_30_P_0" stroke="#ffffff" stroke-linecap="round" stroke-linejoin="round" fill="none" stroke-width="4" stroke-opacity="1" d=" M159.94 215.2 C159.94,215.2 159.94,218.92 159.94,218.92 "/><path id="_R_G_L_2_G_D_31_P_0" stroke="#ffffff" stroke-linecap="round" stroke-linejoin="round" fill="none" stroke-width="4" stroke-opacity="1" d=" M134.08 245.73 C134.08,245.73 134.08,259.79 134.08,259.79 "/><path id="_R_G_L_2_G_D_32_P_0" stroke="#ffffff" stroke-linecap="round" stroke-linejoin="round" fill="none" stroke-width="4" stroke-opacity="1" d=" M134.08 213.1 C134.08,213.1 134.08,220.98 134.08,220.98 "/><path id="_R_G_L_2_G_D_33_P_0" stroke="#ffffff" stroke-linecap="round" stroke-linejoin="round" fill="none" stroke-width="4" stroke-opacity="1" d=" M134.08 227.81 C134.08,227.81 134.08,238.87 134.08,238.87 "/><path id="_R_G_L_2_G_D_34_P_0" stroke="#ffffff" stroke-linecap="round" stroke-linejoin="round" fill="none" stroke-width="4" stroke-opacity="1" d=" M134.08 196.17 C134.08,196.17 134.08,205.87 134.08,205.87 "/><path id="_R_G_L_2_G_D_35_P_0" stroke="#ffffff" stroke-linecap="round" stroke-linejoin="round" fill="none" stroke-width="4" stroke-opacity="1" d=" M98.7 237.88 C98.7,237.88 98.7,238.65 98.7,238.65 "/><path id="_R_G_L_2_G_D_36_P_0" stroke="#ffffff" stroke-linecap="round" stroke-linejoin="round" fill="none" stroke-width="4" stroke-opacity="1" d=" M106.72 248.79 C106.72,248.79 106.72,249.56 106.72,249.56 "/></g></g><g id="_R_G_L_1_G_M"><g id="_R_G_L_1_G" transform=" translate(256, 256) translate(0, 0)"><path id="_R_G_L_1_G_D_0_P_0" stroke="#8395a7" stroke-linecap="round" stroke-linejoin="round" fill="none" stroke-width="5" stroke-opacity="1" d=" M192.75 -172.25 C192.75,-172.25 192.75,-139.25 192.75,-139.25 C192.75,-136.49 190.51,-134.25 187.75,-134.25 C187.75,-134.25 156.25,-134.25 156.25,-134.25 C153.49,-134.25 151.25,-136.49 151.25,-139.25 C151.25,-139.25 151.25,-172.25 151.25,-172.25 C151.25,-175.01 153.49,-177.25 156.25,-177.25 C156.25,-177.25 187.75,-177.25 187.75,-177.25 C190.51,-177.25 192.75,-175.01 192.75,-172.25z "/></g></g><g id="_R_G_L_0_G_M"><g id="_R_G_L_0_G" transform=" translate(256, 256) translate(0, 0)"><path id="_R_G_L_0_G_D_0_P_0" stroke="#8395a7" stroke-linecap="round" stroke-linejoin="round" fill="none" stroke-width="5" stroke-opacity="1" d=" M161.5 -161.87 C161.5,-161.87 161.56,-161.81 161.56,-161.81 C161.56,-161.81 161.66,-161.78 161.66,-161.78 "/></g></g></g><g id="time_group"/></svg>