<svg xmlns="http://www.w3.org/2000/svg" xmlns:xlink="http://www.w3.org/1999/xlink" preserveAspectRatio="xMidYMid meet" width="500" height="500" viewBox="0 0 500 500" style="width:100%;height:100%"><defs><animateTransform repeatCount="indefinite" dur="2s" begin="0s" xlink:href="#_R_G_L_0_G_L_3_G" fill="freeze" attributeName="transform" from="0" to="0" type="rotate" additive="sum" keyTimes="0;0.6166667;0.7333333;0.85;0.95;1" values="0;0;-5;5;0;0" keySplines="0.333 0 0.667 1;0.333 0 0.667 1;0.333 0 0.667 1;0.333 0 0.667 1;0 0 0 0" calcMode="spline"/><animateTransform repeatCount="indefinite" dur="2s" begin="0s" xlink:href="#_R_G_L_0_G_L_3_G" fill="freeze" attributeName="transform" from="-334.983 -246.198" to="-334.983 -246.198" type="translate" additive="sum" keyTimes="0;1" values="-334.983 -246.198;-334.983 -246.198" keySplines="0 0 1 1" calcMode="spline"/><animate repeatCount="indefinite" dur="2s" begin="0s" xlink:href="#_R_G_L_0_G_L_2_G_D_0_P_0" fill="freeze" attributeName="d" attributeType="XML" from="M-273.5 -282 C-273.5,-282 -273.5,-282 -273.5,-282 " to="M-273.5 -282 C-273.5,-282 -53,-282 -53,-282 " keyTimes="0;0.05;0.2166667;1" values="M-273.5 -282 C-273.5,-282 -273.5,-282 -273.5,-282 ;M-273.5 -282 C-273.5,-282 -273.5,-282 -273.5,-282 ;M-273.5 -282 C-273.5,-282 -53,-282 -53,-282 ;M-273.5 -282 C-273.5,-282 -53,-282 -53,-282 " keySplines="0.167 0.167 0.833 0.833;0.167 0.167 0.833 0.833;0 0 0 0" calcMode="spline"/><animate repeatCount="indefinite" dur="2s" begin="0s" xlink:href="#_R_G_L_0_G_L_2_G_D_1_P_0" fill="freeze" attributeName="d" attributeType="XML" from="M-273.5 -282 C-273.5,-282 -273.5,-282 -273.5,-282 " to="M-273.5 -282 C-273.5,-282 -53,-282 -53,-282 " keyTimes="0;0.05;0.2166667;1" values="M-273.5 -282 C-273.5,-282 -273.5,-282 -273.5,-282 ;M-273.5 -282 C-273.5,-282 -273.5,-282 -273.5,-282 ;M-273.5 -282 C-273.5,-282 -53,-282 -53,-282 ;M-273.5 -282 C-273.5,-282 -53,-282 -53,-282 " keySplines="0.167 0.167 0.833 0.833;0.167 0.167 0.833 0.833;0 0 0 0" calcMode="spline"/><animate repeatCount="indefinite" dur="2s" begin="0s" xlink:href="#_R_G_L_0_G_L_2_G_M" fill="freeze" attributeName="opacity" from="0" to="1" keyTimes="0;0.05;0.0500017;1" values="0;0;1;1" keySplines="0 0 0 0;0 0 0 0;0 0 0 0" calcMode="spline"/><animate repeatCount="indefinite" dur="2s" begin="0s" xlink:href="#_R_G_L_0_G_L_1_G_D_0_P_0" fill="freeze" attributeName="d" attributeType="XML" from="M-273.5 -282 C-273.5,-282 -273.5,-282 -273.5,-282 " to="M-273.5 -282 C-273.5,-282 164,-282 164,-282 " keyTimes="0;0.2666667;0.4333333;1" values="M-273.5 -282 C-273.5,-282 -273.5,-282 -273.5,-282 ;M-273.5 -282 C-273.5,-282 -273.5,-282 -273.5,-282 ;M-273.5 -282 C-273.5,-282 164,-282 164,-282 ;M-273.5 -282 C-273.5,-282 164,-282 164,-282 " keySplines="0.167 0.167 0.833 0.833;0.167 0.167 0.833 0.833;0 0 0 0" calcMode="spline"/><animate repeatCount="indefinite" dur="2s" begin="0s" xlink:href="#_R_G_L_0_G_L_1_G_D_1_P_0" fill="freeze" attributeName="d" attributeType="XML" from="M-273.5 -282 C-273.5,-282 -273.5,-282 -273.5,-282 " to="M-273.5 -282 C-273.5,-282 164,-282 164,-282 " keyTimes="0;0.2666667;0.4333333;1" values="M-273.5 -282 C-273.5,-282 -273.5,-282 -273.5,-282 ;M-273.5 -282 C-273.5,-282 -273.5,-282 -273.5,-282 ;M-273.5 -282 C-273.5,-282 164,-282 164,-282 ;M-273.5 -282 C-273.5,-282 164,-282 164,-282 " keySplines="0.167 0.167 0.833 0.833;0.167 0.167 0.833 0.833;0 0 0 0" calcMode="spline"/><animate repeatCount="indefinite" dur="2s" begin="0s" xlink:href="#_R_G_L_0_G_L_1_G_M" fill="freeze" attributeName="opacity" from="0" to="1" keyTimes="0;0.2666667;0.2666683;1" values="0;0;1;1" keySplines="0 0 0 0;0 0 0 0;0 0 0 0" calcMode="spline"/><animate repeatCount="indefinite" dur="2s" begin="0s" xlink:href="#_R_G_L_0_G_L_0_G_D_0_P_0" fill="freeze" attributeName="d" attributeType="XML" from="M-273.5 -282 C-273.5,-282 -273.5,-282 -273.5,-282 " to="M-273.5 -282 C-273.5,-282 164,-282 164,-282 " keyTimes="0;0.5;0.6666667;1" values="M-273.5 -282 C-273.5,-282 -273.5,-282 -273.5,-282 ;M-273.5 -282 C-273.5,-282 -273.5,-282 -273.5,-282 ;M-273.5 -282 C-273.5,-282 164,-282 164,-282 ;M-273.5 -282 C-273.5,-282 164,-282 164,-282 " keySplines="0.167 0.167 0.833 0.833;0.167 0.167 0.833 0.833;0 0 0 0" calcMode="spline"/><animate repeatCount="indefinite" dur="2s" begin="0s" xlink:href="#_R_G_L_0_G_L_0_G_D_1_P_0" fill="freeze" attributeName="d" attributeType="XML" from="M-273.5 -282 C-273.5,-282 -273.5,-282 -273.5,-282 " to="M-273.5 -282 C-273.5,-282 164,-282 164,-282 " keyTimes="0;0.5;0.6666667;1" values="M-273.5 -282 C-273.5,-282 -273.5,-282 -273.5,-282 ;M-273.5 -282 C-273.5,-282 -273.5,-282 -273.5,-282 ;M-273.5 -282 C-273.5,-282 164,-282 164,-282 ;M-273.5 -282 C-273.5,-282 164,-282 164,-282 " keySplines="0.167 0.167 0.833 0.833;0.167 0.167 0.833 0.833;0 0 0 0" calcMode="spline"/><animate repeatCount="indefinite" dur="2s" begin="0s" xlink:href="#_R_G_L_0_G_L_0_G_M" fill="freeze" attributeName="opacity" from="0" to="1" keyTimes="0;0.5;0.5000017;1" values="0;0;1;1" keySplines="0 0 0 0;0 0 0 0;0 0 0 0" calcMode="spline"/><animate attributeType="XML" attributeName="opacity" dur="2s" from="0" to="1" xlink:href="#time_group"/></defs><g id="_R_G"><g id="_R_G_L_0_G" transform=" translate(229, 250) scale(0.53, 0.53) translate(-500, -500)"><g id="_R_G_L_0_G_L_4_G" transform=" translate(463.191, 455.453) translate(-366.92, -425.587)"><path id="_R_G_L_0_G_L_4_G_D_0_P_0" fill="#8395a7" fill-opacity="1" fill-rule="nonzero" d=" M325.64 836.23 C325.64,822.8 312.59,821.59 312.59,821.59 C312.59,821.59 73.58,821.59 73.58,821.59 C49.28,821.59 29.58,801.89 29.58,777.59 C29.58,777.59 29.58,249.58 29.58,249.58 C29.58,249.58 29.58,73.58 29.58,73.58 C29.58,49.28 49.28,29.58 73.58,29.58 C73.58,29.58 161.59,29.58 161.59,29.58 C161.59,29.58 528.25,29.58 528.25,29.58 C528.25,29.58 528.25,132.25 528.25,132.25 C528.3,172.73 561.11,205.54 601.59,205.58 C601.59,205.58 704.26,205.58 704.26,205.58 C704.26,205.58 704.26,464.11 704.26,464.11 C704.26,464.11 704.86,476.16 718.47,476.16 C732.66,476.16 733.59,465.67 733.59,465.67 C733.59,465.67 733.59,190.92 733.59,190.92 C733.59,189 733.21,187.11 732.48,185.35 C731.75,183.55 730.66,181.92 729.29,180.55 C729.29,180.55 553.29,4.55 553.29,4.55 C551.92,3.17 550.29,2.09 548.5,1.37 C546.73,0.63 544.83,0.25 542.92,0.25 C542.92,0.25 161.59,0.25 161.59,0.25 C161.59,0.25 73.58,0.25 73.58,0.25 C33.1,0.3 0.3,33.1 0.25,73.58 C0.25,73.58 0.25,249.58 0.25,249.58 C0.25,249.58 0.25,777.59 0.25,777.59 C0.3,818.07 33.1,850.88 73.58,850.92 C73.58,850.92 312.4,850.92 312.4,850.92 C312.4,850.92 325.64,850.92 325.64,836.23z  M557.59 132.25 C557.59,132.25 557.59,50.32 557.59,50.32 C557.59,50.32 683.52,176.25 683.52,176.25 C683.52,176.25 601.59,176.25 601.59,176.25 C577.29,176.25 557.59,156.55 557.59,132.25z "/></g><g id="_R_G_L_0_G_L_3_G" transform=" translate(679.909, 736.929)"><path id="_R_G_L_0_G_L_3_G_D_0_P_0" stroke="#8395a7" stroke-linecap="round" stroke-linejoin="round" fill="none" stroke-width="18.36" stroke-opacity="1" d=" M71.37 260.93 C71.37,260.93 57.08,253.05 57.08,253.05 C48.77,248.25 45.9,237.53 50.7,229.22 C50.7,229.22 130.57,90.87 130.57,90.87 C135.37,82.57 146.09,79.69 154.4,84.49 C154.4,84.49 168.69,92.38 168.69,92.38 C187.26,103.1 193.69,127.08 182.96,145.65 C182.96,145.65 124.65,246.66 124.65,246.66 C113.92,265.24 89.95,271.66 71.37,260.93z "/><path id="_R_G_L_0_G_L_3_G_D_1_P_0" stroke="#8395a7" stroke-linecap="round" stroke-linejoin="round" fill="none" stroke-width="18.36" stroke-opacity="1" d=" M544.28 250.61 C557.18,274.64 579.95,286.01 598.85,275.87 C598.85,275.87 613.42,268.5 613.42,268.5 C621.87,263.97 624.07,251.46 618.3,240.71 C618.3,240.71 522.26,61.73 522.26,61.73 C516.49,50.98 504.86,45.9 496.4,50.44 C496.4,50.44 481.84,57.8 481.84,57.8 C462.93,67.94 454.24,93.16 467.14,117.19 "/><path id="_R_G_L_0_G_L_3_G_D_2_P_0" stroke="#8395a7" stroke-linecap="round" stroke-linejoin="round" fill="none" stroke-width="18.36" stroke-opacity="1" d=" M480.49 136.95 C472.85,124.56 467.19,116.29 465.5,115.81 C458.42,113.79 445.62,122.21 431.47,118.51 C417.32,114.8 396.8,102.49 384.98,102.13 C364.77,101.51 328.13,113.62 328.13,113.62 "/><path id="_R_G_L_0_G_L_3_G_D_3_P_0" stroke="#8395a7" stroke-linecap="round" stroke-linejoin="round" fill="none" stroke-width="18.36" stroke-opacity="1" d=" M186.22 109.07 C186.22,109.07 214.52,126.59 237.43,117.83 C260.34,109.07 272.46,98.88 290.32,102.12 C308.17,105.37 321.47,116.27 321.47,116.27 C321.47,116.27 299.77,125.88 294.36,136.7 C288.64,148.15 302.5,162.28 296.79,182.75 C292.75,197.23 295.37,225.97 310.2,223.95 C325.02,221.93 348.26,212.5 349.27,204.41 C350.29,196.33 354.33,181.84 354.33,181.84 C354.33,181.84 531.19,282.23 531.19,282.23 C531.19,282.23 551.4,268.42 550.05,262.02 C549.27,258.29 523.11,209.99 500.01,169.9 "/><path id="_R_G_L_0_G_L_3_G_D_4_P_0" stroke="#8395a7" stroke-linecap="round" stroke-linejoin="round" fill="none" stroke-width="18.36" stroke-opacity="1" d=" M148.18 369.74 C148.18,369.74 148.18,369.74 148.18,369.74 C136.9,360.71 135.05,344.09 144.08,332.81 C144.08,332.81 187.33,278.75 187.33,278.75 C196.36,267.47 212.98,265.62 224.27,274.65 C235.55,283.68 237.4,300.3 228.37,311.59 C228.37,311.59 185.11,365.64 185.11,365.64 C176.09,376.93 159.47,378.77 148.18,369.74z "/><path id="_R_G_L_0_G_L_3_G_D_5_P_0" stroke="#8395a7" stroke-linecap="round" stroke-linejoin="round" fill="none" stroke-width="18.36" stroke-opacity="1" d=" M189.72 402.98 C189.72,402.98 189.72,402.98 189.72,402.98 C178.44,393.95 176.59,377.33 185.62,366.05 C185.62,366.05 228.88,311.99 228.88,311.99 C237.9,300.71 254.52,298.86 265.81,307.89 C277.09,316.92 278.94,333.54 269.91,344.83 C269.91,344.83 226.66,398.88 226.66,398.88 C217.63,410.17 201.01,412.01 189.72,402.98z "/><path id="_R_G_L_0_G_L_3_G_D_6_P_0" stroke="#8395a7" stroke-linecap="round" stroke-linejoin="round" fill="none" stroke-width="18.36" stroke-opacity="1" d=" M395.74 271.02 C395.74,271.02 477.2,325.23 477.2,325.23 C489.05,333.5 491.98,349.96 483.71,361.82 C475.45,373.67 458.98,376.6 447.13,368.33 C447.13,368.33 365.02,312.21 365.02,312.21 "/><path id="_R_G_L_0_G_L_3_G_D_7_P_0" stroke="#8395a7" stroke-linecap="round" stroke-linejoin="round" fill="none" stroke-width="18.36" stroke-opacity="1" d=" M430.63 356.93 C442.48,365.2 443.01,388.77 432.31,399.46 C422.8,408.98 406.46,408.73 391.89,402.33 C391.89,402.33 341.19,372.01 341.19,372.01 "/><path id="_R_G_L_0_G_L_3_G_D_8_P_0" stroke="#8395a7" stroke-linecap="round" stroke-linejoin="round" fill="none" stroke-width="18.36" stroke-opacity="1" d=" M518.89 275.25 C518.89,275.25 529.7,282.06 536.07,290.31 C542.45,298.57 545.16,319.46 534.73,329.9 C519.73,344.89 491.25,335.22 479.4,326.95 "/><path id="_R_G_L_0_G_L_3_G_D_9_P_0" stroke="#8395a7" stroke-linecap="round" stroke-linejoin="round" fill="none" stroke-width="15.321" stroke-opacity="1" d=" M243.9 420.23 C243.9,420.23 243.9,420.23 243.9,420.23 C232.61,411.21 230.77,394.59 239.8,383.3 C239.8,383.3 259.94,358.12 259.94,358.12 C268.97,346.84 285.59,344.99 296.88,354.02 C308.16,363.05 310.01,379.67 300.98,390.96 C300.98,390.96 280.83,416.13 280.83,416.13 C271.8,427.42 255.18,429.26 243.9,420.23z "/><path id="_R_G_L_0_G_L_3_G_D_10_P_0" stroke="#8395a7" stroke-linecap="round" stroke-linejoin="round" fill="none" stroke-width="15.321" stroke-opacity="1" d=" M106.6 334.03 C106.6,334.03 106.6,334.03 106.6,334.03 C95.31,325 93.47,308.38 102.5,297.1 C102.5,297.1 122.64,271.92 122.64,271.92 C131.67,260.63 148.29,258.79 159.58,267.82 C170.86,276.85 172.71,293.47 163.68,304.75 C163.68,304.75 143.53,329.93 143.53,329.93 C134.5,341.21 117.88,343.06 106.6,334.03z "/><path id="_R_G_L_0_G_L_3_G_D_11_P_0" stroke="#8395a7" stroke-linecap="round" stroke-linejoin="round" fill="none" stroke-width="18.36" stroke-opacity="1" d=" M289.81 407.5 C289.81,407.5 334.96,436.86 334.96,436.86 C334.96,436.86 358.89,446.5 373.19,430.46 C391.21,410.24 372.92,390.99 372.92,390.99 "/></g><g id="_R_G_L_0_G_L_2_G_M"><g id="_R_G_L_0_G_L_2_G" transform=" translate(336.75, 218) translate(163.25, 282)"><path id="_R_G_L_0_G_L_2_G_D_0_P_0" fill="#8395a7" fill-opacity="1" fill-rule="nonzero" d=" M-273.5 -282 C-273.5,-282 -273.5,-282 -273.5,-282 "/><path id="_R_G_L_0_G_L_2_G_D_1_P_0" stroke="#8395a7" stroke-linecap="round" stroke-linejoin="round" fill="none" stroke-width="22" stroke-opacity="1" d=" M-273.5 -282 C-273.5,-282 -273.5,-282 -273.5,-282 "/></g></g><g id="_R_G_L_0_G_L_1_G_M"><g id="_R_G_L_0_G_L_1_G" transform=" translate(336.75, 308) translate(163.25, 282)"><path id="_R_G_L_0_G_L_1_G_D_0_P_0" fill="#8395a7" fill-opacity="1" fill-rule="nonzero" d=" M-273.5 -282 C-273.5,-282 -273.5,-282 -273.5,-282 "/><path id="_R_G_L_0_G_L_1_G_D_1_P_0" stroke="#8395a7" stroke-linecap="round" stroke-linejoin="round" fill="none" stroke-width="22" stroke-opacity="1" d=" M-273.5 -282 C-273.5,-282 -273.5,-282 -273.5,-282 "/></g></g><g id="_R_G_L_0_G_L_0_G_M"><g id="_R_G_L_0_G_L_0_G" transform=" translate(336.75, 389) translate(163.25, 282)"><path id="_R_G_L_0_G_L_0_G_D_0_P_0" fill="#8395a7" fill-opacity="1" fill-rule="nonzero" d=" M-273.5 -282 C-273.5,-282 -273.5,-282 -273.5,-282 "/><path id="_R_G_L_0_G_L_0_G_D_1_P_0" stroke="#8395a7" stroke-linecap="round" stroke-linejoin="round" fill="none" stroke-width="22" stroke-opacity="1" d=" M-273.5 -282 C-273.5,-282 -273.5,-282 -273.5,-282 "/></g></g></g></g><g id="time_group"/></svg>