<?xml version="1.0" encoding="utf-8"?>
<!-- Generator: Adobe Illustrator 23.0.1, SVG Export Plug-In . SVG Version: 6.00 Build 0)  -->
<svg version="1.1" id="Layer_1" xmlns="http://www.w3.org/2000/svg" xmlns:xlink="http://www.w3.org/1999/xlink" x="0px" y="0px"
	 viewBox="0 0 1000 870" style="enable-background:new 0 0 1000 870;" xml:space="preserve">
<style type="text/css">
	.st0{fill:#4351DD;}
	.st1{fill:none;stroke:#1D2890;stroke-width:42.1377;stroke-linecap:round;stroke-linejoin:round;stroke-miterlimit:10;}
	.st2{display:none;}
	.st3{display:inline;fill:#1D2890;}
	.st4{font-family:'MyanmarText-Bold';}
	.st5{font-size:359.8646px;}
	.st6{enable-background:new    ;}
	.st7{fill:#1D2890;}
</style>
<polygon class="st0" points="737.87,23 261.14,23 22.77,435.86 261.14,848.73 737.87,848.73 976.24,435.86 "/>
<polygon class="st1" points="737.87,23 261.14,23 22.77,435.86 261.14,848.73 737.87,848.73 976.24,435.86 "/>
<g id="text_1" class="st2">
	<text transform="matrix(1 0 0 1 252.5781 566.6766)" class="st3 st4 st5">GA</text>
</g>
<g id="text_1_1_">
	<g class="st6">
		<path class="st7" d="M488.21,549.81c-24.6,14.18-55.17,21.26-91.72,21.26c-40.53,0-72.48-11.21-95.85-33.65
			c-23.37-22.43-35.06-53.33-35.06-92.69c0-39.59,12.77-71.87,38.31-96.82c25.54-24.95,59.51-37.43,101.92-37.43
			c26.71,0,50.25,3.69,70.64,11.07v53.24c-19.45-11.25-43.23-16.87-71.34-16.87c-23.55,0-42.73,7.64-57.55,22.93
			c-14.82,15.29-22.23,35.7-22.23,61.24c0,25.89,6.65,45.92,19.94,60.09c13.29,14.17,31.25,21.26,53.86,21.26
			c13.59,0,24.36-1.93,32.33-5.8v-49.2h-50.43v-45.33h107.19V549.81z"/>
		<path class="st7" d="M758.81,566.68h-61.85l-17.92-56.05h-89.61l-17.75,56.05h-61.5L601.9,314.7h67.3L758.81,566.68z
			 M666.04,467.05l-27.06-84.69c-1.99-6.33-3.4-13.88-4.22-22.67h-1.41c-0.59,7.38-2.05,14.7-4.39,21.96l-27.41,85.4H666.04z"/>
	</g>
</g>
</svg>
