<svg xmlns="http://www.w3.org/2000/svg" xmlns:xlink="http://www.w3.org/1999/xlink" preserveAspectRatio="xMidYMid meet" width="500" height="500" viewBox="0 0 500 500" style="width:100%;height:100%"><defs><animateMotion repeatCount="indefinite" dur="2s" begin="0s" xlink:href="#_R_G_L_4_G" fill="freeze" keyTimes="0;0.1833333;0.7;1" path="M262 295.93 C262,295.93 262,295.93 262,295.93 C252.5,280.59 214.5,219.26 205,203.93 C205,203.93 205,203.93 205,203.93 " keyPoints="0;0;1;1" keySplines="0.333 0 0.667 1;0.333 0 0.667 1;0 0 0 0" calcMode="spline"/><animateTransform repeatCount="indefinite" dur="2s" begin="0s" xlink:href="#_R_G_L_4_G" fill="freeze" attributeName="transform" from="-262 -295.927" to="-262 -295.927" type="translate" additive="sum" keyTimes="0;1" values="-262 -295.927;-262 -295.927" keySplines="0 0 1 1" calcMode="spline"/><animateMotion repeatCount="indefinite" dur="2s" begin="0s" xlink:href="#_R_G_L_3_G" fill="freeze" keyTimes="0;0.1833333;0.7;1" path="M262 295.93 C262,295.93 262,295.93 262,295.93 C252.5,280.59 205,203.93 205,203.93 C205,203.93 252.5,280.59 262,295.93 " keyPoints="0;0;0.5;1" keySplines="0.333 0 0.667 1;0.333 0 0.667 1;0.333 0 0.833 1" calcMode="spline"/><animateTransform repeatCount="indefinite" dur="2s" begin="0s" xlink:href="#_R_G_L_3_G" fill="freeze" attributeName="transform" from="-262 -295.927" to="-262 -295.927" type="translate" additive="sum" keyTimes="0;1" values="-262 -295.927;-262 -295.927" keySplines="0 0 1 1" calcMode="spline"/><animateTransform repeatCount="indefinite" dur="2s" begin="0s" xlink:href="#_R_G_L_2_G" fill="freeze" attributeName="transform" from="0" to="90" type="rotate" additive="sum" keyTimes="0;0.7;1" values="0;90;90" keySplines="0.167 0.167 0.833 0.833;0 0 0 0" calcMode="spline"/><animateTransform repeatCount="indefinite" dur="2s" begin="0s" xlink:href="#_R_G_L_2_G" fill="freeze" attributeName="transform" from="1 1" to="0 0" type="scale" additive="sum" keyTimes="0;0.7;0.9;1" values="1 1;1 1;0 0;0 0" keySplines="0.167 0.167 0.667 1;0.167 0.167 0.667 1;0 0 0 0" calcMode="spline"/><animateTransform repeatCount="indefinite" dur="2s" begin="0s" xlink:href="#_R_G_L_2_G" fill="freeze" attributeName="transform" from="-410.5 -242" to="-410.5 -242" type="translate" additive="sum" keyTimes="0;1" values="-410.5 -242;-410.5 -242" keySplines="0 0 1 1" calcMode="spline"/><animateMotion repeatCount="indefinite" dur="2s" begin="0s" xlink:href="#_R_G_L_2_G_N_6_T_0" fill="freeze" keyTimes="0;0.1833333;0.7;1" path="M262 295.93 C262,295.93 262,295.93 262,295.93 C252.5,280.59 214.5,219.26 205,203.93 C205,203.93 205,203.93 205,203.93 " keyPoints="0;0;1;1" keySplines="0.333 0 0.667 1;0.333 0 0.667 1;0 0 0 0" calcMode="spline"/><animateTransform repeatCount="indefinite" dur="2s" begin="0s" xlink:href="#_R_G_L_2_G_N_6_T_0" fill="freeze" attributeName="transform" from="-262 -295.927" to="-262 -295.927" type="translate" additive="sum" keyTimes="0;1" values="-262 -295.927;-262 -295.927" keySplines="0 0 1 1" calcMode="spline"/><animateTransform repeatCount="indefinite" dur="2s" begin="0s" xlink:href="#_R_G_L_1_G" fill="freeze" attributeName="transform" from="0" to="-90" type="rotate" additive="sum" keyTimes="0;0.7;1" values="0;-90;-90" keySplines="0.167 0.167 0.833 0.833;0 0 0 0" calcMode="spline"/><animateTransform repeatCount="indefinite" dur="2s" begin="0s" xlink:href="#_R_G_L_1_G" fill="freeze" attributeName="transform" from="1 1" to="0 0" type="scale" additive="sum" keyTimes="0;0.7;0.9;1" values="1 1;1 1;0 0;0 0" keySplines="0.167 0.167 0.667 1;0.167 0.167 0.667 1;0 0 0 0" calcMode="spline"/><animateTransform repeatCount="indefinite" dur="2s" begin="0s" xlink:href="#_R_G_L_1_G" fill="freeze" attributeName="transform" from="-433.5 -322" to="-433.5 -322" type="translate" additive="sum" keyTimes="0;1" values="-433.5 -322;-433.5 -322" keySplines="0 0 1 1" calcMode="spline"/><animateMotion repeatCount="indefinite" dur="2s" begin="0s" xlink:href="#_R_G_L_1_G_N_6_T_0" fill="freeze" keyTimes="0;0.1833333;0.7;1" path="M262 295.93 C262,295.93 262,295.93 262,295.93 C252.5,280.59 214.5,219.26 205,203.93 C205,203.93 205,203.93 205,203.93 " keyPoints="0;0;1;1" keySplines="0.333 0 0.667 1;0.333 0 0.667 1;0 0 0 0" calcMode="spline"/><animateTransform repeatCount="indefinite" dur="2s" begin="0s" xlink:href="#_R_G_L_1_G_N_6_T_0" fill="freeze" attributeName="transform" from="-262 -295.927" to="-262 -295.927" type="translate" additive="sum" keyTimes="0;1" values="-262 -295.927;-262 -295.927" keySplines="0 0 1 1" calcMode="spline"/><animateTransform repeatCount="indefinite" dur="2s" begin="0s" xlink:href="#_R_G_L_0_G" fill="freeze" attributeName="transform" from="20" to="120" type="rotate" additive="sum" keyTimes="0;0.7;1" values="20;120;120" keySplines="0.167 0.167 0.833 0.833;0 0 0 0" calcMode="spline"/><animateTransform repeatCount="indefinite" dur="2s" begin="0s" xlink:href="#_R_G_L_0_G" fill="freeze" attributeName="transform" from="1 1" to="0 0" type="scale" additive="sum" keyTimes="0;0.7;0.9;1" values="1 1;1 1;0 0;0 0" keySplines="0.167 0.167 0.667 1;0.167 0.167 0.667 1;0 0 0 0" calcMode="spline"/><animateTransform repeatCount="indefinite" dur="2s" begin="0s" xlink:href="#_R_G_L_0_G" fill="freeze" attributeName="transform" from="-337.5 -362" to="-337.5 -362" type="translate" additive="sum" keyTimes="0;1" values="-337.5 -362;-337.5 -362" keySplines="0 0 1 1" calcMode="spline"/><animateMotion repeatCount="indefinite" dur="2s" begin="0s" xlink:href="#_R_G_L_0_G_N_6_T_0" fill="freeze" keyTimes="0;0.1833333;0.7;1" path="M262 295.93 C262,295.93 262,295.93 262,295.93 C252.5,280.59 214.5,219.26 205,203.93 C205,203.93 205,203.93 205,203.93 " keyPoints="0;0;1;1" keySplines="0.333 0 0.667 1;0.333 0 0.667 1;0 0 0 0" calcMode="spline"/><animateTransform repeatCount="indefinite" dur="2s" begin="0s" xlink:href="#_R_G_L_0_G_N_6_T_0" fill="freeze" attributeName="transform" from="-262 -295.927" to="-262 -295.927" type="translate" additive="sum" keyTimes="0;1" values="-262 -295.927;-262 -295.927" keySplines="0 0 1 1" calcMode="spline"/><animate attributeType="XML" attributeName="opacity" dur="2s" from="0" to="1" xlink:href="#time_group"/></defs><g id="_R_G"><g id="_R_G_L_5_G"><path id="_R_G_L_5_G_D_0_P_0" stroke="#039be5" stroke-linecap="round" stroke-linejoin="round" fill="none" stroke-width="13" stroke-opacity="1" d=" M184.5 50.5 C153.5,48.5 138.88,67.04 129.5,103.5 C120.5,138.5 122.01,171.26 127.5,179.5 C137.5,194.5 217.5,197.5 228.5,188.5 C239.03,179.89 229.26,111.44 224.5,90.5 C219.5,68.5 200.96,51.56 184.5,50.5z "/><path id="_R_G_L_5_G_D_1_P_0" stroke="#039be5" stroke-linecap="round" stroke-linejoin="round" fill="none" stroke-width="13" stroke-opacity="1" d=" M292.5 50.5 C261.5,48.5 248.87,67.04 239.5,103.5 C230.5,138.5 234.01,178.26 239.5,186.5 C249.5,201.5 327.5,194.5 338.5,185.5 C349.03,176.89 344.5,115.5 335.5,91.5 C327.58,70.38 308.96,51.56 292.5,50.5z "/><path id="_R_G_L_5_G_D_2_P_0" stroke="#039be5" stroke-linecap="round" stroke-linejoin="round" fill="none" stroke-width="13" stroke-opacity="1" d=" M397.5 50.5 C379.5,50.5 361.88,67.04 352.5,103.5 C343.5,138.5 345.01,168.26 350.5,176.5 C360.5,191.5 420.45,186.55 430.5,176.5 C439.5,167.5 433.5,116.5 426.5,90.5 C420.64,68.72 413.99,50.5 397.5,50.5z "/><path id="_R_G_L_5_G_D_3_P_0" stroke="#039be5" stroke-linecap="round" stroke-linejoin="round" fill="none" stroke-width="13" stroke-opacity="1" d=" M70.61 50.5 C88.61,50.5 106.23,67.04 115.61,103.5 C124.61,138.5 123.1,168.26 117.61,176.5 C107.61,191.5 47.66,186.55 37.61,176.5 C28.61,167.5 34.61,116.5 41.61,90.5 C47.47,68.72 54.11,50.5 70.61,50.5z "/></g><g id="_R_G_L_4_G"><path id="_R_G_L_4_G_D_0_P_0" stroke="#039be5" stroke-linecap="round" stroke-linejoin="round" fill="none" stroke-width="13" stroke-opacity="1" d=" M396.38 197.25 C395.22,191.98 393.92,187.28 392.5,183.5 C384.58,162.38 365.96,143.56 349.5,142.5 C318.5,140.5 305.88,159.04 296.5,195.5 C287.5,230.5 291.01,270.26 296.5,278.5 C306.5,293.5 384.5,286.5 395.5,277.5 "/><path id="_R_G_L_4_G_D_1_P_0" stroke="#039be5" stroke-linecap="round" stroke-linejoin="round" fill="none" stroke-width="13" stroke-opacity="1" d=" M323.5 208.5 C323.5,208.5 321.5,236.5 321.5,236.5 "/><path id="_R_G_L_4_G_D_2_P_0" stroke="#039be5" stroke-linecap="round" stroke-linejoin="round" fill="none" stroke-width="13" stroke-opacity="1" d=" M331.5 169.5 C331.5,169.5 326.5,183.5 326.5,183.5 "/></g><g id="_R_G_L_3_G"><path id="_R_G_L_3_G_D_0_P_0" stroke="#039be5" stroke-linecap="round" stroke-linejoin="round" fill="none" stroke-width="13" stroke-opacity="1" d=" M90.5 449.5 C90.5,449.5 252.5,292.5 252.5,292.5 C252.5,292.5 255.14,289.53 255.14,289.53 C258.66,285.57 263.1,282.54 268.08,280.71 C268.08,280.71 328.5,258.5 328.5,258.5 "/><path id="_R_G_L_3_G_D_1_P_0" stroke="#039be5" stroke-linecap="round" stroke-linejoin="round" fill="none" stroke-width="13" stroke-opacity="1" d=" M131.5 449.5 C131.5,449.5 318.5,287.5 318.5,287.5 "/></g><g id="_R_G_L_2_G_N_6_T_0"><g id="_R_G_L_2_G" transform=" translate(411.5, 238)"><path id="_R_G_L_2_G_D_0_P_0" stroke="#039be5" stroke-linecap="round" stroke-linejoin="round" fill="none" stroke-width="13" stroke-opacity="1" d=" M410.5 217.5 C410.5,217.5 410.5,226.5 410.5,226.5 "/><path id="_R_G_L_2_G_D_1_P_0" stroke="#039be5" stroke-linecap="round" stroke-linejoin="round" fill="none" stroke-width="13" stroke-opacity="1" d=" M410.5 257.5 C410.5,257.5 410.5,266.5 410.5,266.5 "/><path id="_R_G_L_2_G_D_2_P_0" stroke="#039be5" stroke-linecap="round" stroke-linejoin="round" fill="none" stroke-width="13" stroke-opacity="1" d=" M435 242.2 C435,242.2 426,242.13 426,242.13 "/><path id="_R_G_L_2_G_D_3_P_0" stroke="#039be5" stroke-linecap="round" stroke-linejoin="round" fill="none" stroke-width="13" stroke-opacity="1" d=" M395 241.87 C395,241.87 386,241.8 386,241.8 "/></g></g><g id="_R_G_L_1_G_N_6_T_0"><g id="_R_G_L_1_G" transform=" translate(437.5, 311.5)"><path id="_R_G_L_1_G_D_0_P_0" stroke="#039be5" stroke-linecap="round" stroke-linejoin="round" fill="none" stroke-width="13" stroke-opacity="1" d=" M433.5 297.5 C433.5,297.5 433.5,306.5 433.5,306.5 "/><path id="_R_G_L_1_G_D_1_P_0" stroke="#039be5" stroke-linecap="round" stroke-linejoin="round" fill="none" stroke-width="13" stroke-opacity="1" d=" M433.5 337.5 C433.5,337.5 433.5,346.5 433.5,346.5 "/><path id="_R_G_L_1_G_D_2_P_0" stroke="#039be5" stroke-linecap="round" stroke-linejoin="round" fill="none" stroke-width="13" stroke-opacity="1" d=" M458 322.2 C458,322.2 449,322.13 449,322.13 "/><path id="_R_G_L_1_G_D_3_P_0" stroke="#039be5" stroke-linecap="round" stroke-linejoin="round" fill="none" stroke-width="13" stroke-opacity="1" d=" M418 321.87 C418,321.87 409,321.8 409,321.8 "/></g></g><g id="_R_G_L_0_G_N_6_T_0"><g id="_R_G_L_0_G" transform=" translate(363.858, 346)"><path id="_R_G_L_0_G_D_0_P_0" stroke="#039be5" stroke-linecap="round" stroke-linejoin="round" fill="none" stroke-width="13" stroke-opacity="1" d=" M337.5 337.5 C337.5,337.5 337.5,346.5 337.5,346.5 "/><path id="_R_G_L_0_G_D_1_P_0" stroke="#039be5" stroke-linecap="round" stroke-linejoin="round" fill="none" stroke-width="13" stroke-opacity="1" d=" M337.5 377.5 C337.5,377.5 337.5,386.5 337.5,386.5 "/><path id="_R_G_L_0_G_D_2_P_0" stroke="#039be5" stroke-linecap="round" stroke-linejoin="round" fill="none" stroke-width="13" stroke-opacity="1" d=" M362 362.2 C362,362.2 353,362.13 353,362.13 "/><path id="_R_G_L_0_G_D_3_P_0" stroke="#039be5" stroke-linecap="round" stroke-linejoin="round" fill="none" stroke-width="13" stroke-opacity="1" d=" M322 361.87 C322,361.87 313,361.8 313,361.8 "/></g></g></g><g id="time_group"/></svg>