<svg xmlns="http://www.w3.org/2000/svg" xmlns:xlink="http://www.w3.org/1999/xlink" preserveAspectRatio="xMidYMid meet" width="500" height="500" viewBox="0 0 500 500" style="width:100%;height:100%"><defs><animate repeatCount="indefinite" dur="2s" begin="0s" xlink:href="#_R_G_L_2_G_M" fill="freeze" attributeName="opacity" from="0" to="1" keyTimes="0;0.7;0.7000017;1" values="0;0;1;1" keySplines="0 0 0 0;0 0 0 0;0 0 0 0" calcMode="spline"/><animateMotion repeatCount="indefinite" dur="2s" begin="0s" xlink:href="#_R_G_L_0_G" fill="freeze" keyTimes="0;0.0833333;0.5166667;1" path="M-12.4 -564.93 C-12.4,-564.93 -12.4,-564.93 -12.4,-564.93 C-12.4,-501.34 -12.4,-247.01 -12.4,-183.43 C-12.4,-183.43 -12.4,-183.43 -12.4,-183.43 " keyPoints="0;0;1;1" keySplines="0.333 0 0.667 1;0.333 0 0.667 1;0 0 0 0" calcMode="spline"/><animateTransform repeatCount="indefinite" dur="2s" begin="0s" xlink:href="#_R_G_L_0_G" fill="freeze" attributeName="transform" from="0" to="0" type="rotate" additive="sum" keyTimes="0;0.4333333;0.5166667;0.6166667;0.7;1" values="0;0;2.5;-2.5;0;0" keySplines="0.333 0 0.667 1;0.333 0 0.667 1;0.333 0 0.667 1;0.333 0 0.667 1;0 0 0 0" calcMode="spline"/><animateTransform repeatCount="indefinite" dur="2s" begin="0s" xlink:href="#_R_G_L_0_G" fill="freeze" attributeName="transform" from="-237.596 -66.073" to="-237.596 -66.073" type="translate" additive="sum" keyTimes="0;1" values="-237.596 -66.073;-237.596 -66.073" keySplines="0 0 1 1" calcMode="spline"/><animate attributeType="XML" attributeName="opacity" dur="2s" from="0" to="1" xlink:href="#time_group"/></defs><g id="_R_G"><g id="_R_G_L_2_G_M"><g id="_R_G_L_2_G" transform=" translate(250, 250) translate(0, 0)"><path id="_R_G_L_2_G_D_0_P_0" fill="#039be5" fill-opacity="1" fill-rule="nonzero" d=" M-54.5 -97.75 C-54.5,-97.75 -60,-67.5 -60,-67.5 C-60,-67.5 -134,-67.75 -134,-67.75 C-134,-67.75 -125,-51.75 -125,-51.75 C-125,-51.75 -46,-55.25 -46,-55.25 C-46,-55.25 -44,-87.75 -44,-87.75 C-44,-87.75 31.75,-85.75 31.75,-85.75 C31.75,-85.75 31,-58.25 31,-58.25 C31,-58.25 102.75,-55.25 102.75,-55.25 C102.75,-55.25 107,-69.75 107,-69.75 C107,-69.75 44,-69.75 44,-69.75 C44,-69.75 43.5,-95.25 43.5,-95.25 C43.5,-95.25 -54.5,-97.75 -54.5,-97.75z "/></g></g><g id="_R_G_L_1_G_N_1_T_0" transform=" translate(250, 250) scale(0.5, 0.5) translate(0, 0)"><g id="_R_G_L_1_G" transform=" translate(-5.488, 107.471) translate(-244.512, -357.471)"><path id="_R_G_L_1_G_D_0_P_0" fill="#039be5" fill-opacity="1" fill-rule="nonzero" d=" M111.53 619.78 C93.16,583.33 78.27,545.48 68.85,505.82 C57.04,456.06 56.12,405.65 65.36,355.31 C72.72,315.18 81.04,275.32 79.68,234.06 C78.41,195.69 70.76,158.9 53.09,124.98 C53.03,124.87 52.97,124.76 52.91,124.64 C52.91,124.64 -34.1,124.64 -34.1,124.64 C-27.41,137.21 -20.96,149.91 -14.84,162.74 C0.36,194.6 11.89,228.09 13.07,263.84 C13.67,281.96 9.88,300.23 10.6,318.33 C12.18,357.96 13.96,397.68 18.27,437.08 C24.39,492.9 37.86,547.02 68.6,595.04 C80.04,612.91 94.16,629.09 107.53,645.65 C109.26,647.8 114.82,649.57 117.08,648.59 C119.36,646.35 119.16,642.06 118.45,639.24 C116.75,632.59 114.61,625.89 111.53,619.78z "/><path id="_R_G_L_1_G_D_1_P_0" fill="#039be5" fill-opacity="1" fill-rule="nonzero" d=" M485.79 188.32 C497.77,166.84 511.02,146.04 523.12,124.64 C523.12,124.64 442.78,124.64 442.78,124.64 C439.61,132.2 436.35,139.73 433.06,147.24 C420.84,175.12 408.43,203.15 399.46,232.15 C390.3,261.73 389.17,292.53 395.7,323.49 C404.82,366.76 407.55,410.58 402.89,454.68 C399.32,488.48 392.97,521.68 380.64,553.51 C370.78,578.99 360.68,604.38 351.16,629.98 C350.08,632.88 350.59,637.52 352.55,640.41 C355.92,640.78 360.59,638.28 362.48,635.68 C375.86,617.23 389.35,598.8 401.55,579.58 C436.51,524.51 456.92,464.62 457.22,398.95 C457.36,367.3 453.94,335.61 454.75,304.01 C455.79,263.25 465.79,224.19 485.79,188.32z "/><path id="_R_G_L_1_G_D_2_P_0" fill="#039be5" fill-opacity="1" fill-rule="nonzero" d=" M133.67 623.68 C128.68,614.77 121.36,606.41 119.11,596.86 C111.52,564.54 103.11,532.07 99.76,499.17 C91.72,420.02 109.42,344.94 141.81,272.91 C151.12,252.23 163.77,234.11 181.76,220.09 C214.21,194.8 255.44,199.49 288.13,231.52 C322.12,264.82 339.27,306.64 350.6,351.73 C360.26,390.2 365.26,429.22 363.81,468.78 C362.08,516.08 357.41,563.08 339.44,607.6 C338.46,610.02 336.06,613.66 333.39,613.61 C330.45,612.62 329.02,609.4 328.71,607.05 C324.81,577.37 321.01,547.66 317.69,517.9 C314.7,491.03 312.93,464.02 309.51,437.21 C306.48,413.48 304.69,389.03 297.23,366.6 C290.54,346.47 278.75,327.24 265.85,310.15 C246.61,284.67 213.56,287.82 192.14,314.45 C176.68,333.66 166.39,355.43 157.35,378.16 C144.47,410.6 140.82,444.44 140.54,478.79 C140.19,523.57 140.74,568.35 140.7,613.13 C140.69,616.3 140.07,619.4 139.17,622.57 C138.54,624.28 136.49,626.7 133.67,623.68z "/><path id="_R_G_L_1_G_D_3_P_0" fill="#039be5" fill-opacity="1" fill-rule="nonzero" d=" M-13.63 147.43 C-13.63,147.43 168.57,147.43 168.57,147.43 C168.57,147.43 168.57,88.86 168.57,88.86 C168.57,88.86 303.32,88.86 303.32,88.86 C303.32,88.86 303.32,147.43 303.32,147.43 C303.32,147.43 488.83,147.43 488.83,147.43 C488.83,147.43 488.83,124.64 488.83,124.64 C488.83,124.64 325.67,124.64 325.67,124.64 C325.67,124.64 325.67,66.07 325.67,66.07 C325.67,66.07 145.45,66.07 145.45,66.07 C145.45,66.07 145.45,124.64 145.45,124.64 C145.45,124.64 -13.63,124.64 -13.63,124.64 C-13.63,124.64 -13.63,147.43 -13.63,147.43z "/></g></g><g id="_R_G_L_0_G_N_1_T_0" transform=" translate(250, 250) scale(0.5, 0.5) translate(0, 0)"><g id="_R_G_L_0_G"><path id="_R_G_L_0_G_D_0_P_0" fill="#039be5" fill-opacity="1" fill-rule="nonzero" d=" M-13.63 125.3 C-13.63,125.3 145.45,125.3 145.45,125.3 C145.45,125.3 145.45,66.73 145.45,66.73 C145.45,66.73 325.67,66.73 325.67,66.73 C325.67,66.73 325.67,125.3 325.67,125.3 C325.67,125.3 488.83,125.3 488.83,125.3 C488.83,125.3 488.83,102.18 488.83,102.18 C488.83,102.18 347.91,102.18 347.91,102.18 C347.91,102.18 347.91,43.62 347.91,43.62 C347.91,43.62 123.65,43.62 123.65,43.62 C123.65,43.62 123.65,102.18 123.65,102.18 C123.65,102.18 -13.63,102.18 -13.63,102.18 C-13.63,102.18 -13.63,125.3 -13.63,125.3z "/><path id="_R_G_L_0_G_D_1_P_0" fill="#039be5" fill-opacity="1" fill-rule="nonzero" d=" M-60.3 78.1 C-51.1,93.61 -42.23,109.36 -33.75,125.3 C-33.75,125.3 53.26,125.3 53.26,125.3 C53.2,125.2 53.15,125.09 53.09,124.98 C42.39,104.44 27.25,86.24 15.96,65.96 C1.7,40.33 -5.54,12.13 -4.22,-17.25 C-3.4,-35.67 7.08,-49.79 24.19,-57.52 C44.63,-66.76 65.54,-67.34 86.89,-59.78 C123.55,-46.8 160.41,-34.39 197.16,-21.65 C228.48,-10.8 259.35,2.65 293.74,-2.98 C299.06,-3.85 305.14,-6.81 308.98,-9.99 C305.47,-13.74 299.01,-16.79 293.5,-18.31 C279.6,-22.16 265.1,-23.98 251.36,-28.28 C209.68,-41.33 172.47,-63.44 136.63,-87.75 C103.03,-110.54 67.83,-128.61 26.14,-128.58 C-15.13,-128.55 -47.31,-109.97 -68.44,-75.21 C-77.65,-60.06 -83.93,-42.48 -87.74,-24.68 C-90.7,-8.79 -90.37,-2.18 -87.74,10.94 C-82.03,34.73 -72.87,56.89 -60.3,78.1z "/><path id="_R_G_L_0_G_D_2_P_0" fill="#039be5" fill-opacity="1" fill-rule="nonzero" d=" M189.1 -68.79 C192.25,-66.17 195.23,-64.57 198.59,-62.96 C247.32,-39.53 298.53,-31.43 352.4,-36.52 C380.11,-39.14 408.19,-40.39 435.96,-39.14 C469.45,-37.64 485.48,-14.53 478.32,18.21 C470.22,55.24 457.16,90.53 442.5,125.3 C442.5,125.3 522.75,125.3 522.75,125.3 C525.64,120.2 528.48,115.06 531.21,109.87 C556.05,62.74 570.81,12.99 565.27,-41.19 C561.24,-80.72 534.72,-108.13 495.29,-113.14 C466.85,-116.75 439.09,-112.67 412.75,-102.41 C350.28,-78.06 285.81,-70.06 219.3,-75.24 C210.16,-75.96 191.86,-76.11 182.66,-76.11 C183.16,-74.51 186.17,-71.24 189.1,-68.79z "/><path id="_R_G_L_0_G_D_3_P_0" fill="#039be5" fill-opacity="1" fill-rule="nonzero" d=" M126.83 -107.13 C128.69,-105.89 130.27,-104.92 136.87,-104.13 C143.47,-103.33 212.98,-103.71 251.02,-102.86 C269.18,-102.45 287.37,-100.93 305.45,-99.01 C337.48,-95.6 368.87,-96.65 398.78,-110.13 C401.27,-111.25 406.1,-115.07 408.18,-117.12 C406.06,-119.27 401.22,-121.42 398.65,-122.45 C366.79,-135.32 333.12,-138.93 299.25,-139.98 C276.28,-140.69 253.22,-139.29 230.23,-138.31 C199.35,-137 153.47,-125.59 141.33,-117.7 C129.18,-109.81 126.83,-107.13 126.83,-107.13z "/></g></g></g><g id="time_group"/></svg>