<svg xmlns="http://www.w3.org/2000/svg" xmlns:xlink="http://www.w3.org/1999/xlink" preserveAspectRatio="xMidYMid meet" width="500" height="500" viewBox="0 0 500 500" style="width:100%;height:100%"><defs><animateMotion repeatCount="indefinite" dur="2s" begin="0s" xlink:href="#_R_G_L_0_G" fill="freeze" keyTimes="0;0.1166667;0.2166667;0.27255;0.4347167;0.5968833;0.6996167;0.9666667;1" path="M-56.46 68.6 C-56.46,68.6 -56.46,68.6 -56.46,68.6 C-56.5,68.69 -56.46,68.6 -56.46,68.6 C-56.46,68.6 -56.46,68.6 -56.46,68.6 C-51.88,68.64 -31.96,69.6 -31.96,69.6 C-31.96,69.6 -31.96,69.6 -31.96,69.6 C-31.96,69.6 -31.96,69.6 -31.96,69.6 C-33.04,59.68 -51.63,63.32 -56.46,68.6 C-56.46,68.6 -56.46,68.6 -56.46,68.6 " keyPoints="0;0;0;0;0.46;0.46;0.46;1;1" keySplines="0.333 0 0.833 0.833;0.333 0 0.833 0.833;0.167 0.167 0.667 0.667;0.333 0 0.833 0.833;0.167 0.167 0.833 0.833;0.167 0.167 0.667 0.667;0.333 0 0.667 1;0 0 0 0" calcMode="spline"/><animateTransform repeatCount="indefinite" dur="2s" begin="0s" xlink:href="#_R_G_L_0_G" fill="freeze" attributeName="transform" from="0" to="0" type="rotate" additive="sum" keyTimes="0;0.1166667;0.2271333;0.27255;0.5968833;0.6996167;0.9666667;1" values="0;0;-5;-5;4;4;0;0" keySplines="0.333 0 0.833 0.833;0.333 0 0.833 0.833;0.167 0 0.667 1;0.333 0 0.833 0.833;0.167 0 0.667 1;0.333 0 0.667 1;0 0 0 0" calcMode="spline"/><animateTransform repeatCount="indefinite" dur="2s" begin="0s" xlink:href="#_R_G_L_0_G" fill="freeze" attributeName="transform" from="0.5 0.5" to="0.5 0.5" type="scale" additive="sum" keyTimes="0;1" values="0.5 0.5;0.5 0.5" keySplines="0 0 1 1" calcMode="spline"/><animateTransform repeatCount="indefinite" dur="2s" begin="0s" xlink:href="#_R_G_L_0_G" fill="freeze" attributeName="transform" from="349.298 105.405" to="349.298 105.405" type="translate" additive="sum" keyTimes="0;1" values="349.298 105.405;349.298 105.405" keySplines="0 0 1 1" calcMode="spline"/><animate attributeType="XML" attributeName="opacity" dur="2s" from="0" to="1" xlink:href="#time_group"/></defs><g id="_R_G"><g id="_R_G_L_1_G" transform=" translate(238.298, 284.349) scale(0.47, 0.47) translate(-238.298, -254.349)"><path id="_R_G_L_1_G_D_0_P_0" fill="#039be5" fill-opacity="1" fill-rule="nonzero" d=" M-87.74 -24.68 C-83.93,-42.48 -77.65,-60.06 -68.44,-75.21 C-47.31,-109.97 -15.13,-128.55 26.14,-128.58 C67.83,-128.61 103.03,-110.54 136.63,-87.75 C172.47,-63.44 209.68,-41.33 251.36,-28.28 C265.1,-23.98 279.6,-22.16 293.5,-18.31 C299.01,-16.79 305.47,-13.74 308.98,-9.99 C305.14,-6.81 299.06,-3.85 293.74,-2.98 C259.35,2.65 228.48,-10.8 197.16,-21.65 C160.41,-34.38 123.55,-46.81 86.89,-59.78 C65.54,-67.34 44.63,-66.76 24.19,-57.53 C7.08,-49.79 -3.4,-35.68 -4.22,-17.25 C-5.54,12.13 1.7,40.33 15.96,65.96 C27.25,86.24 42.39,104.44 53.09,124.98 C70.76,158.9 78.41,195.69 79.67,234.06 C81.03,275.32 72.72,315.18 65.36,355.31 C56.12,405.65 57.04,456.06 68.85,505.82 C78.27,545.48 93.16,583.33 111.53,619.78 C114.61,625.89 116.75,632.59 118.45,639.24 C119.16,642.06 119.36,646.35 117.08,648.59 C114.82,649.57 109.26,647.8 107.53,645.66 C94.16,629.09 80.04,612.91 68.6,595.04 C37.86,547.02 24.39,492.9 18.27,437.08 C13.95,397.68 12.18,357.96 10.6,318.33 C9.87,300.23 13.67,281.96 13.07,263.84 C11.89,228.09 0.36,194.6 -14.84,162.74 C-28.61,133.86 -43.98,105.63 -60.3,78.1 C-72.87,56.89 -82.03,34.73 -87.74,10.94 C-90.37,-2.18 -90.7,-8.79 -87.74,-24.68z "/><path id="_R_G_L_1_G_D_1_P_0" fill="#039be5" fill-opacity="1" fill-rule="nonzero" d=" M182.66 -76.11 C191.86,-76.11 210.16,-75.96 219.3,-75.24 C285.81,-70.06 350.28,-78.06 412.75,-102.41 C439.09,-112.67 466.85,-116.75 495.29,-113.14 C534.72,-108.13 561.24,-80.72 565.27,-41.2 C570.81,12.99 556.05,62.74 531.21,109.87 C517.14,136.58 500.5,161.93 485.79,188.32 C465.79,224.19 455.79,263.25 454.75,304.01 C453.94,335.61 457.37,367.3 457.22,398.95 C456.92,464.62 436.51,524.51 401.55,579.58 C389.35,598.8 375.86,617.23 362.48,635.68 C360.59,638.28 355.92,640.78 352.55,640.4 C350.59,637.52 350.08,632.88 351.16,629.98 C360.68,604.38 370.78,578.99 380.64,553.51 C392.97,521.68 399.32,488.48 402.89,454.68 C407.55,410.58 404.82,366.76 395.7,323.49 C389.17,292.53 390.3,261.73 399.46,232.15 C408.43,203.16 420.84,175.12 433.06,147.25 C451.43,105.34 468.51,63.05 478.32,18.21 C485.48,-14.53 469.45,-37.64 435.96,-39.14 C408.19,-40.39 380.11,-39.14 352.4,-36.52 C298.53,-31.43 247.32,-39.53 198.59,-62.96 C195.23,-64.57 192.25,-66.17 189.1,-68.79 C186.17,-71.24 183.16,-74.51 182.66,-76.11z "/><path id="_R_G_L_1_G_D_2_P_0" fill="#039be5" fill-opacity="1" fill-rule="nonzero" d=" M133.67 623.68 C128.68,614.77 121.36,606.41 119.11,596.86 C111.52,564.54 103.11,532.07 99.76,499.17 C91.72,420.02 109.42,344.94 141.81,272.91 C151.12,252.23 163.77,234.11 181.76,220.09 C214.21,194.8 255.44,199.49 288.13,231.52 C322.12,264.82 339.27,306.64 350.6,351.73 C360.26,390.2 365.26,429.22 363.81,468.78 C362.08,516.08 357.41,563.08 339.44,607.6 C338.46,610.02 336.06,613.66 333.39,613.61 C330.45,612.62 329.02,609.4 328.71,607.05 C324.81,577.37 321.01,547.66 317.69,517.9 C314.7,491.03 312.93,464.02 309.51,437.21 C306.48,413.48 304.69,389.03 297.23,366.6 C290.54,346.47 278.75,327.24 265.85,310.15 C246.61,284.67 213.56,287.82 192.14,314.45 C176.68,333.66 166.39,355.43 157.35,378.16 C144.47,410.6 140.82,444.44 140.54,478.79 C140.19,523.57 140.74,568.35 140.7,613.13 C140.69,616.3 140.07,619.4 139.17,622.57 C138.54,624.28 136.49,626.7 133.67,623.68z "/><path id="_R_G_L_1_G_D_3_P_0" fill="#039be5" fill-opacity="1" fill-rule="nonzero" d=" M126.83 -107.13 C128.69,-105.89 130.27,-104.92 136.87,-104.13 C143.47,-103.33 212.98,-103.71 251.02,-102.86 C269.18,-102.45 287.37,-100.93 305.45,-99.01 C337.48,-95.6 368.87,-96.65 398.78,-110.13 C401.27,-111.25 406.1,-115.07 408.18,-117.12 C406.06,-119.27 401.22,-121.42 398.65,-122.45 C366.79,-135.32 333.12,-138.93 299.25,-139.98 C276.28,-140.69 253.22,-139.29 230.23,-138.31 C199.35,-137 153.47,-125.59 141.33,-117.7 C129.18,-109.81 126.83,-107.13 126.83,-107.13z "/></g><g id="_R_G_L_0_G"><path id="_R_G_L_0_G_D_0_P_0" fill="#039be5" fill-opacity="1" fill-rule="nonzero" d=" M-64.09 -138.79 C-64.09,-138.79 -65.78,-161.58 -65.78,-161.58 C-66.33,-168.44 -72.27,-173.62 -79.21,-173.13 C-79.21,-173.13 -137.33,-168.67 -137.33,-168.67 C-137.33,-168.67 -137.68,-173.82 -137.68,-173.82 C-138.2,-180.27 -143.5,-185.3 -150.07,-185.39 C-150.07,-185.39 -340.49,-185.79 -340.49,-185.79 C-344.15,-185.84 -347.62,-185.02 -348.64,-182.68 C-349.66,-180.34 -349.19,-176.38 -349.19,-176.38 C-349.19,-176.38 -326.41,-55.52 -326.41,-55.52 C-325.53,-51.45 -323.54,-44.79 -321.45,-41.82 C-317.49,-36.19 -310.61,-36.74 -303.76,-37.43 C-303.76,-37.43 -140.73,-54.6 -140.73,-54.6 C-134.02,-55.28 -129.05,-61.27 -129.59,-68 C-129.59,-68 -129.93,-73.15 -129.93,-73.15 C-129.93,-73.15 -71.87,-77.54 -71.87,-77.54 C-65.01,-78.09 -59.82,-84.03 -60.31,-90.96 C-60.31,-90.96 -62.01,-113.75 -62.01,-113.75 C-62.89,-122.17 -63.49,-130.48 -64.09,-138.79  M-155.92 -83.76 C-155.92,-83.76 -155.48,-78.28 -155.48,-78.28 C-155.48,-78.28 -275.16,-65.62 -275.16,-65.62 C-275.16,-65.62 -295.8,-160.7 -295.8,-160.7 C-295.8,-160.7 -161.81,-160.49 -161.81,-160.49 C-161.81,-160.49 -161.31,-154.31 -161.31,-154.31 C-161.31,-154.31 -155.92,-83.76 -155.92,-83.76z  M-86.37 -101.64 C-86.37,-101.64 -131.94,-98.12 -131.94,-98.12 C-131.94,-98.12 -135.46,-143.69 -135.46,-143.69 C-135.46,-143.69 -89.9,-147.21 -89.9,-147.21 C-89.9,-147.21 -86.37,-101.64 -86.37,-101.64z "/><path id="_R_G_L_0_G_D_1_P_0" fill="#039be5" fill-opacity="1" fill-rule="nonzero" d=" M-78.2 -161.41 C-80.31,-129.34 -75.6,-89.05 -75.6,-89.05 C-75.6,-89.05 -62.58,-89.9 -62.58,-89.9 C-62.58,-89.9 70.69,-101.01 70.69,-101.01 C70.69,-101.01 96.88,-32.96 96.88,-32.96 C96.88,-32.96 96.95,-32.89 96.89,-32.82 C99.33,-26.53 106.49,-23.37 112.71,-25.87 C112.71,-25.87 138.22,-35.73 138.22,-35.73 C143.92,-37.91 147.16,-43.97 145.71,-49.93 C145.71,-49.93 119.63,-163.15 119.63,-163.15 C118.33,-168.98 112.9,-172.97 106.99,-172.63 C45.42,-168.92 -16.35,-165.13 -78.2,-161.41  M-75.6 -114.45 C-73.76,-122.47 -71.99,-130.56 -70.21,-138.5 C-70.21,-138.5 -54.72,-139.13 -54.72,-139.13 C-53.89,-139.05 -53.05,-138.98 -52.23,-139.05 C-52.23,-139.05 98.29,-147.69 98.29,-147.69 C98.29,-147.69 119.63,-54.88 119.63,-54.88 C119.63,-54.88 115.41,-53.23 115.41,-53.23 C115.41,-53.23 90.22,-118.39 90.22,-118.39 C88.29,-123.48 83.2,-126.66 77.79,-126.16 C77.79,-126.16 -57.87,-114.7 -57.87,-114.7 C-63.8,-114.64 -69.66,-114.52 -75.6,-114.45 "/></g></g><g id="time_group"/></svg>