<svg xmlns="http://www.w3.org/2000/svg" xmlns:xlink="http://www.w3.org/1999/xlink" preserveAspectRatio="xMidYMid meet" width="500" height="500" viewBox="0 0 500 500" style="width:100%;height:100%"><defs><animateMotion repeatCount="indefinite" dur="2s" begin="0s" xlink:href="#_R_G_L_1_G" fill="freeze" keyTimes="0;0.7333333;0.9333333;1" path="M242.5 447 C242.5,447 242.5,447 242.5,447 C242.5,365.67 242.5,40.33 242.5,-41 C242.5,-41 242.5,-41 242.5,-41 " keyPoints="0;0;1;1" keySplines="0.333 0 0.833 0.833;0.333 0 0.833 0.833;0 0 0 0" calcMode="spline"/><animateTransform repeatCount="indefinite" dur="2s" begin="0s" xlink:href="#_R_G_L_1_G" fill="freeze" attributeName="transform" from="0" to="17" type="rotate" additive="sum" keyTimes="0;0.0333333;0.3;0.5666667;0.7333333;1" values="0;0;17;3;17;17" keySplines="0.333 0 0.667 1;0.333 0 0.667 1;0.333 0 0.667 1;0.333 0 0.667 1;0 0 0 0" calcMode="spline"/><animateTransform repeatCount="indefinite" dur="2s" begin="0s" xlink:href="#_R_G_L_1_G" fill="freeze" attributeName="transform" from="0.5 0.5" to="0.5 0.5" type="scale" additive="sum" keyTimes="0;1" values="0.5 0.5;0.5 0.5" keySplines="0 0 1 1" calcMode="spline"/><animateTransform repeatCount="indefinite" dur="2s" begin="0s" xlink:href="#_R_G_L_1_G" fill="freeze" attributeName="transform" from="-198.443 -678.48" to="-198.443 -678.48" type="translate" additive="sum" keyTimes="0;1" values="-198.443 -678.48;-198.443 -678.48" keySplines="0 0 1 1" calcMode="spline"/><animateMotion repeatCount="indefinite" dur="2s" begin="0s" xlink:href="#_R_G_L_0_G_N_2_T_0" fill="freeze" keyTimes="0;0.7333333;0.9333333;1" path="M242.5 447 C242.5,447 242.5,447 242.5,447 C242.5,365.67 242.5,40.33 242.5,-41 C242.5,-41 242.5,-41 242.5,-41 " keyPoints="0;0;1;1" keySplines="0.333 0 0.833 0.833;0.333 0 0.833 0.833;0 0 0 0" calcMode="spline"/><animateTransform repeatCount="indefinite" dur="2s" begin="0s" xlink:href="#_R_G_L_0_G_N_2_T_0" fill="freeze" attributeName="transform" from="0" to="17" type="rotate" additive="sum" keyTimes="0;0.0333333;0.3;0.5666667;0.7333333;1" values="0;0;17;3;17;17" keySplines="0.333 0 0.667 1;0.333 0 0.667 1;0.333 0 0.667 1;0.333 0 0.667 1;0 0 0 0" calcMode="spline"/><animateTransform repeatCount="indefinite" dur="2s" begin="0s" xlink:href="#_R_G_L_0_G_N_2_T_0" fill="freeze" attributeName="transform" from="0.5 0.5" to="0.5 0.5" type="scale" additive="sum" keyTimes="0;1" values="0.5 0.5;0.5 0.5" keySplines="0 0 1 1" calcMode="spline"/><animateTransform repeatCount="indefinite" dur="2s" begin="0s" xlink:href="#_R_G_L_0_G_N_2_T_0" fill="freeze" attributeName="transform" from="-198.443 -678.48" to="-198.443 -678.48" type="translate" additive="sum" keyTimes="0;1" values="-198.443 -678.48;-198.443 -678.48" keySplines="0 0 1 1" calcMode="spline"/><animate attributeType="XML" attributeName="opacity" dur="2s" from="0" to="1" xlink:href="#time_group"/></defs><g id="_R_G"><g id="_R_G_L_1_G"><path id="_R_G_L_1_G_D_0_P_0" fill="#039be5" fill-opacity="1" fill-rule="nonzero" d=" M-169.2 147.8 C-168.43,132.17 -165.54,116.39 -159.83,102.26 C-146.72,69.84 -122,49.62 -87,43.88 C-51.63,38.07 -19.28,48.52 12.39,63.2 C46.16,78.85 80.79,92.45 117.95,97.74 C130.21,99.49 142.76,99.02 155.09,100.36 C159.97,100.89 165.87,102.57 169.37,105.27 C166.55,108.5 161.8,111.85 157.41,113.33 C129.02,122.87 100.97,115.74 72.89,110.88 C39.96,105.17 6.97,99.74 -25.93,93.82 C-45.09,90.37 -62.75,93.76 -78.8,104.42 C-92.25,113.35 -99.17,126.78 -97.32,142.52 C-94.36,167.62 -84.31,190.55 -68.66,210.31 C-56.28,225.95 -40.91,239.29 -28.99,255.23 C-9.3,281.56 2.29,311.7 8.68,344.08 C15.55,378.89 14.03,413.85 13.34,448.92 C12.48,492.9 20.25,535.53 37.17,576.1 C50.65,608.44 68.53,638.48 89.17,666.86 C92.63,671.62 95.37,677 97.73,682.41 C98.73,684.7 99.49,688.32 97.87,690.53 C96.08,691.68 91.13,690.95 89.36,689.36 C75.72,677.16 61.5,665.39 49.32,651.82 C16.59,615.35 -2.34,571.31 -15.27,524.8 C-24.39,491.98 -31.4,458.53 -38.23,425.14 C-41.36,409.88 -40.67,393.86 -43.69,378.57 C-49.65,348.41 -64.07,321.6 -81.38,296.68 C-97.07,274.09 -114.01,252.27 -131.67,231.18 C-145.28,214.93 -156.12,197.41 -164.26,178.02 C-168.31,167.25 -169.5,161.69 -169.2,147.8z "/><path id="_R_G_L_1_G_D_1_P_0" fill="#039be5" fill-opacity="1" fill-rule="nonzero" d=" M53.05 66.69 C60.85,65.42 76.39,63.01 84.25,62.35 C141.38,57.52 194.97,41.81 244.58,12.49 C265.5,0.13 288.49,-7.17 313.12,-8.05 C347.25,-9.27 373.55,10.31 382.45,43.28 C394.66,88.47 389.03,132.72 374.5,176.14 C366.26,200.75 355.66,224.56 346.84,248.99 C334.85,282.19 331.77,316.71 336.54,351.42 C340.24,378.34 347.53,404.75 351.8,431.62 C360.65,487.37 351.64,541 329.61,592.56 C321.92,610.56 313.04,628.06 304.24,645.56 C303,648.03 299.38,650.8 296.48,650.95 C294.41,648.77 293.33,644.91 293.85,642.3 C298.38,619.26 303.42,596.32 308.26,573.34 C314.3,544.63 315.09,515.59 313.43,486.43 C311.27,448.37 302.89,411.58 289.15,376.14 C279.33,350.78 276.01,324.5 279.68,298.14 C283.27,272.29 289.91,246.79 296.41,221.45 C306.19,183.36 314.82,145.12 316.93,105.72 C318.46,76.96 301.65,59.57 273.04,62.94 C249.31,65.74 225.67,70.69 202.53,76.75 C157.53,88.54 112.97,88.76 68.39,75.64 C65.31,74.73 62.56,73.8 59.53,72.01 C56.7,70.34 53.69,67.98 53.05,66.69z "/><path id="_R_G_L_1_G_D_2_P_0" fill="#039be5" fill-opacity="1" fill-rule="nonzero" d=" M108.48 667.1 C103.02,660.24 95.65,654.16 92.42,646.37 C81.5,620.01 69.86,593.62 62.47,566.18 C44.68,500.15 49.28,434.01 66.78,368.42 C71.8,349.59 80.02,332.46 93.34,318.08 C117.36,292.13 152.98,290.39 185.16,313.03 C218.61,336.57 238.95,369.66 254.81,406.34 C268.34,437.64 277.99,470.05 282.24,503.8 C287.33,544.17 289.88,584.68 280.8,624.94 C280.31,627.13 278.78,630.54 276.51,630.88 C273.88,630.45 272.22,627.91 271.63,625.96 C264.21,601.32 256.87,576.65 249.93,551.86 C243.66,529.49 238.42,506.82 231.8,484.55 C225.94,464.84 221.03,444.35 211.6,426.35 C203.13,410.2 190.47,395.52 177.15,382.82 C157.3,363.87 129.71,371.12 115.22,396.68 C104.77,415.12 99.06,435.01 94.55,455.55 C88.11,484.85 89.71,514.07 94.24,543.24 C100.14,581.27 106.82,619.18 112.99,657.18 C113.42,659.87 113.32,662.58 113,665.4 C112.7,666.93 111.3,669.27 108.48,667.1z "/><path id="_R_G_L_1_G_D_3_P_0" fill="#039be5" fill-opacity="1" fill-rule="nonzero" d=" M1.39 48.12 C3.14,48.91 4.62,49.51 10.32,49.27 C16.03,49.03 74.94,39.07 107.33,34.53 C122.79,32.36 138.43,31.13 154.04,30.25 C181.68,28.7 208.16,23.46 231.66,7.88 C233.62,6.58 237.19,2.67 238.67,0.64 C236.58,-0.89 232.17,-2.03 229.85,-2.56 C201.04,-9.06 171.97,-7.46 143.1,-3.65 C123.52,-1.06 104.15,3.32 84.78,7.33 C58.76,12.73 21.43,28.77 12.22,37.14 C3.02,45.52 1.39,48.12 1.39,48.12z "/></g><g id="_R_G_L_0_G_N_2_T_0"><g id="_R_G_L_0_G" transform=" translate(552.275, -55.287) translate(-544.414, 46.884)"><path id="_R_G_L_0_G_D_0_P_0" fill="#039be5" fill-opacity="1" fill-rule="nonzero" d="  "/><path id="_R_G_L_0_G_D_1_P_0" fill="#039be5" fill-opacity="1" fill-rule="nonzero" d="  "/><path id="_R_G_L_0_G_D_2_P_0" fill="#039be5" fill-opacity="1" fill-rule="nonzero" d=" M402.62 -142.71 C399.83,-138.21 397.55,-133.41 395.82,-128.4 C385.82,-99.4 397.97,-72.56 402.9,-63.04 C398.85,-65.06 394.65,-66.73 390.33,-68.04 C377.33,-71.94 363.61,-72.79 350.23,-70.53 C350.23,-70.53 350.05,-70.53 350.05,-70.53 C331.27,-67.41 313.64,-59.39 298.93,-47.3 C298.93,-47.3 278.99,-30.93 278.99,-30.93 C278.99,-30.93 273.35,-27.54 273.35,-27.54 C273.35,-27.54 261.42,-17.38 261.42,-17.38 C260.05,-16.18 257.97,-16.31 256.76,-17.67 C256.08,-18.45 255.79,-19.5 256,-20.51 C256,-20.51 258,-28.62 258,-28.62 C265.75,-63.96 287.14,-93.24 318.27,-112.95 C318.27,-112.95 318.82,-113.3 318.82,-113.3 C329.9,-119.79 341.5,-125.36 353.49,-129.94 C369.35,-135.99 385.82,-140.27 402.62,-142.71z "/><path id="_R_G_L_0_G_D_3_P_0" fill="#039be5" fill-opacity="1" fill-rule="nonzero" d=" M518.8 -19.13 C518.8,-19.13 527.44,-61.34 527.44,-61.34 C527.44,-61.34 458.77,-81.57 458.77,-81.57 C458.77,-81.57 434.88,-130.33 434.88,-130.33 C434.88,-130.33 423.04,-52.57 423.04,-52.57 C442.61,-34.15 452.03,-7.38 448.31,19.24 C445.79,37.81 438.68,57.23 426.83,72.1 C426.83,72.1 396.29,108.78 396.29,108.78 C395.14,110.16 395.32,112.21 396.71,113.37 C397.53,114.05 398.63,114.29 399.66,114.01 C399.66,114.01 410.66,111.63 413.09,110.88 C414.72,110.45 416.37,110.11 418.04,109.88 C448.46,99.27 474.25,78.45 491.04,50.97 C491.04,50.97 491.38,50.41 491.38,50.41 C504.45,28.97 513.72,5.44 518.78,-19.15 C518.78,-19.15 518.8,-19.13 518.8,-19.13z "/><path id="_R_G_L_0_G_D_4_P_0" fill="#039be5" fill-opacity="1" fill-rule="nonzero" d=" M549.15 -85.55 C549.15,-85.55 622.75,-26.59 644.83,-16.56 C669.93,-5.14 676.64,3.25 724.09,3.67 C774.96,4.11 831.92,15.65 832.86,30.53 C835,64.25 732.9,79.85 671.69,64.88 C648.56,59.22 577.99,31.01 517.32,-13.39 C497.13,-28.17 477.88,-44.2 459.69,-61.39 C459.69,-61.39 533.02,-101.39 533.02,-101.39 C539.37,-95.06 544.87,-89.68 549.15,-85.55z "/><path id="_R_G_L_0_G_D_5_P_0" fill="#039be5" fill-opacity="1" fill-rule="nonzero" d=" M774.29 -95.42 C770.75,-109.13 688.42,-163.23 662.99,-183.56 C643.72,-201.33 617.78,-210.02 591.7,-207.44 C591.7,-207.44 474.49,-183.99 474.49,-183.99 C474.49,-183.99 459.73,-179.42 459.73,-179.42 C423.05,-168.75 396.27,-135.34 400.15,-96.24 C402.32,-74.32 412.63,-55.61 429.39,-43.24 C430.34,-42.53 432.05,-40.89 432.05,-40.89 C445.74,-31.74 461.96,-27.13 478.42,-27.72 C523.92,-29.25 559.69,-67.57 557.69,-111.8 C557.69,-111.8 557.69,-111.99 557.69,-111.99 C560.12,-118.1 566.07,-130.29 578.3,-134.69 C586.39,-137.61 593.91,-135.93 597.91,-134.93 C637.53,-124.99 703.83,-78.68 722.77,-67.67 C737.3,-58.87 780.86,-69.97 774.29,-95.42z  M492.2 -83.44 C491.44,-83.35 490.69,-83.17 489.96,-82.91 C486.84,-81.4 484.21,-81.1 480.6,-80.84 C466.93,-79.65 454.88,-89.75 453.69,-103.42 C453.64,-103.91 453.61,-104.41 453.6,-104.9 C452.96,-119.3 463.81,-129.68 478.48,-130.71 C481.95,-131.14 485.47,-130.74 488.75,-129.54 C489.82,-129.23 490.92,-129.01 492.03,-128.88 C500,-124.72 505.14,-116.63 505.53,-107.64 C505.89,-97.74 500.76,-88.44 492.2,-83.44z "/></g></g></g><g id="time_group"/></svg>