<svg xmlns="http://www.w3.org/2000/svg" xmlns:xlink="http://www.w3.org/1999/xlink" preserveAspectRatio="xMidYMid meet" width="500" height="500" viewBox="0 0 500 500" style="width:100%;height:100%"><defs><animateMotion repeatCount="indefinite" dur="2s" begin="0s" xlink:href="#_R_G_L_0_G" fill="freeze" keyTimes="0;0.0333333;0.2333333;0.7333333;0.9666667;1" path="M-71.08 -268.52 C-71.08,-268.52 -71.08,-268.52 -71.08,-268.52 C-71.08,-240.93 -71.08,-142.68 -71.08,-103.02 C-71.08,-63.35 -71.08,-30.52 -71.08,-30.52 C-71.08,-30.52 -71.08,-228.85 -71.08,-268.52 C-71.08,-268.52 -71.08,-268.52 -71.08,-268.52 " keyPoints="0;0;0.35;0.5;1;1" keySplines="0.167 0.167 0.833 0.833;0.167 0.167 0.833 0.833;0.167 0.167 0.667 1;0.333 0 0.833 0.833;0 0 0 0" calcMode="spline"/><animateTransform repeatCount="indefinite" dur="2s" begin="0s" xlink:href="#_R_G_L_0_G" fill="freeze" attributeName="transform" from="0" to="0" type="rotate" additive="sum" keyTimes="0;0.0333333;0.2333333;0.4;0.5666667;0.7333333;1" values="0;0;0;3;-3;0;0" keySplines="0.167 0 0.667 1;0.167 0 0.667 1;0.333 0 0.833 1;0.167 0 0.833 1;0.167 0 0.833 1;0 0 0 0" calcMode="spline"/><animateTransform repeatCount="indefinite" dur="2s" begin="0s" xlink:href="#_R_G_L_0_G" fill="freeze" attributeName="transform" from="0.5 0.5" to="0.5 0.5" type="scale" additive="sum" keyTimes="0;1" values="0.5 0.5;0.5 0.5" keySplines="0 0 1 1" calcMode="spline"/><animateTransform repeatCount="indefinite" dur="2s" begin="0s" xlink:href="#_R_G_L_0_G" fill="freeze" attributeName="transform" from="-166.917 -184.092" to="-166.917 -184.092" type="translate" additive="sum" keyTimes="0;1" values="-166.917 -184.092;-166.917 -184.092" keySplines="0 0 1 1" calcMode="spline"/><animate attributeType="XML" attributeName="opacity" dur="2s" from="0" to="1" xlink:href="#time_group"/></defs><g id="_R_G"><g id="_R_G_L_1_G_N_1_T_0" transform=" translate(250, 250) scale(0.95, 0.95) translate(0, 0)"><g id="_R_G_L_1_G" transform=" translate(-11.702, 4.349) scale(0.5, 0.5) translate(-238.298, -254.349)"><path id="_R_G_L_1_G_D_0_P_0" fill="#039be5" fill-opacity="1" fill-rule="nonzero" d=" M-87.74 -24.68 C-83.93,-42.48 -77.65,-60.06 -68.44,-75.21 C-47.31,-109.97 -15.13,-128.55 26.14,-128.58 C67.83,-128.61 103.03,-110.54 136.63,-87.75 C172.47,-63.44 209.68,-41.33 251.36,-28.28 C265.1,-23.98 279.6,-22.16 293.5,-18.31 C299.01,-16.79 305.47,-13.74 308.98,-9.99 C305.14,-6.81 299.06,-3.85 293.74,-2.98 C259.35,2.65 228.48,-10.8 197.16,-21.65 C160.41,-34.38 123.55,-46.81 86.89,-59.78 C65.54,-67.34 44.63,-66.76 24.19,-57.53 C7.08,-49.79 -3.4,-35.68 -4.22,-17.25 C-5.54,12.13 1.7,40.33 15.96,65.96 C27.25,86.24 42.39,104.44 53.09,124.98 C70.76,158.9 78.41,195.69 79.67,234.06 C81.03,275.32 72.72,315.18 65.36,355.31 C56.12,405.65 57.04,456.06 68.85,505.82 C78.27,545.48 93.16,583.33 111.53,619.78 C114.61,625.89 116.75,632.59 118.45,639.24 C119.16,642.06 119.36,646.35 117.08,648.59 C114.82,649.57 109.26,647.8 107.53,645.66 C94.16,629.09 80.04,612.91 68.6,595.04 C37.86,547.02 24.39,492.9 18.27,437.08 C13.95,397.68 12.18,357.96 10.6,318.33 C9.87,300.23 13.67,281.96 13.07,263.84 C11.89,228.09 0.36,194.6 -14.84,162.74 C-28.61,133.86 -43.98,105.63 -60.3,78.1 C-72.87,56.89 -82.03,34.73 -87.74,10.94 C-90.37,-2.18 -90.7,-8.79 -87.74,-24.68z "/><path id="_R_G_L_1_G_D_1_P_0" fill="#039be5" fill-opacity="1" fill-rule="nonzero" d=" M182.66 -76.11 C191.86,-76.11 210.16,-75.96 219.3,-75.24 C285.81,-70.06 350.28,-78.06 412.75,-102.41 C439.09,-112.67 466.85,-116.75 495.29,-113.14 C534.72,-108.13 561.24,-80.72 565.27,-41.2 C570.81,12.99 556.05,62.74 531.21,109.87 C517.14,136.58 500.5,161.93 485.79,188.32 C465.79,224.19 455.79,263.25 454.75,304.01 C453.94,335.61 457.37,367.3 457.22,398.95 C456.92,464.62 436.51,524.51 401.55,579.58 C389.35,598.8 375.86,617.23 362.48,635.68 C360.59,638.28 355.92,640.78 352.55,640.4 C350.59,637.52 350.08,632.88 351.16,629.98 C360.68,604.38 370.78,578.99 380.64,553.51 C392.97,521.68 399.32,488.48 402.89,454.68 C407.55,410.58 404.82,366.76 395.7,323.49 C389.17,292.53 390.3,261.73 399.46,232.15 C408.43,203.16 420.84,175.12 433.06,147.25 C451.43,105.34 468.51,63.05 478.32,18.21 C485.48,-14.53 469.45,-37.64 435.96,-39.14 C408.19,-40.39 380.11,-39.14 352.4,-36.52 C298.53,-31.43 247.32,-39.53 198.59,-62.96 C195.23,-64.57 192.25,-66.17 189.1,-68.79 C186.17,-71.24 183.16,-74.51 182.66,-76.11z "/><path id="_R_G_L_1_G_D_2_P_0" fill="#039be5" fill-opacity="1" fill-rule="nonzero" d=" M133.67 623.68 C128.68,614.77 121.36,606.41 119.11,596.86 C111.52,564.54 103.11,532.07 99.76,499.17 C91.72,420.02 109.42,344.94 141.81,272.91 C151.12,252.23 163.77,234.11 181.76,220.09 C214.21,194.8 255.44,199.49 288.13,231.52 C322.12,264.82 339.27,306.64 350.6,351.73 C360.26,390.2 365.26,429.22 363.81,468.78 C362.08,516.08 357.41,563.08 339.44,607.6 C338.46,610.02 336.06,613.66 333.39,613.61 C330.45,612.62 329.02,609.4 328.71,607.05 C324.81,577.37 321.01,547.66 317.69,517.9 C314.7,491.03 312.93,464.02 309.51,437.21 C306.48,413.48 304.69,389.03 297.23,366.6 C290.54,346.47 278.75,327.24 265.85,310.15 C246.61,284.67 213.56,287.82 192.14,314.45 C176.68,333.66 166.39,355.43 157.35,378.16 C144.47,410.6 140.82,444.44 140.54,478.79 C140.19,523.57 140.74,568.35 140.7,613.13 C140.69,616.3 140.07,619.4 139.17,622.57 C138.54,624.28 136.49,626.7 133.67,623.68z "/><path id="_R_G_L_1_G_D_3_P_0" fill="#039be5" fill-opacity="1" fill-rule="nonzero" d=" M126.83 -107.13 C128.69,-105.89 130.27,-104.92 136.87,-104.13 C143.47,-103.33 212.98,-103.71 251.02,-102.86 C269.18,-102.45 287.37,-100.93 305.45,-99.01 C337.48,-95.6 368.87,-96.65 398.78,-110.13 C401.27,-111.25 406.1,-115.07 408.18,-117.12 C406.06,-119.27 401.22,-121.42 398.65,-122.45 C366.79,-135.32 333.12,-138.93 299.25,-139.98 C276.28,-140.69 253.22,-139.29 230.23,-138.31 C199.35,-137 153.47,-125.59 141.33,-117.7 C129.18,-109.81 126.83,-107.13 126.83,-107.13z "/></g></g><g id="_R_G_L_0_G_N_1_T_0" transform=" translate(250, 250) scale(0.95, 0.95) translate(0, 0)"><g id="_R_G_L_0_G"><path id="_R_G_L_0_G_D_0_P_0" stroke="#039be5" stroke-linecap="round" stroke-linejoin="round" fill="none" stroke-width="12.298" stroke-opacity="1" d=" M166.52 -162.52 C166.52,-162.52 166.92,184.09 166.92,184.09 "/><path id="_R_G_L_0_G_D_1_P_0" fill="#039be5" fill-opacity="1" fill-rule="nonzero" d=" M187.7 151.42 C187.7,151.42 146.13,151.42 146.13,151.42 C146.13,151.42 146.13,137.88 146.13,137.88 C146.13,137.88 187.7,137.88 187.7,137.88 C187.7,137.88 187.7,151.42 187.7,151.42z "/><path id="_R_G_L_0_G_D_2_P_0" fill="#039be5" fill-opacity="1" fill-rule="nonzero" d=" M187.7 174.16 C187.7,174.16 146.13,174.16 146.13,174.16 C146.13,174.16 146.13,160.62 146.13,160.62 C146.13,160.62 187.7,160.62 187.7,160.62 C187.7,160.62 187.7,174.16 187.7,174.16z "/><path id="_R_G_L_0_G_D_3_P_0" fill="#039be5" fill-opacity="1" fill-rule="nonzero" d=" M187.7 105.92 C187.7,105.92 146.13,105.92 146.13,105.92 C146.13,105.92 146.13,92.38 146.13,92.38 C146.13,92.38 187.7,92.38 187.7,92.38 C187.7,92.38 187.7,105.92 187.7,105.92z "/><path id="_R_G_L_0_G_D_4_P_0" fill="#039be5" fill-opacity="1" fill-rule="nonzero" d=" M187.7 128.67 C187.7,128.67 146.13,128.67 146.13,128.67 C146.13,128.67 146.13,115.13 146.13,115.13 C146.13,115.13 187.7,115.13 187.7,115.13 C187.7,115.13 187.7,128.67 187.7,128.67z "/><path id="_R_G_L_0_G_D_5_P_0" fill="#039be5" fill-opacity="1" fill-rule="nonzero" d=" M187.7 60.43 C187.7,60.43 146.13,60.43 146.13,60.43 C146.13,60.43 146.13,46.89 146.13,46.89 C146.13,46.89 187.7,46.89 187.7,46.89 C187.7,46.89 187.7,60.43 187.7,60.43z "/><path id="_R_G_L_0_G_D_6_P_0" fill="#039be5" fill-opacity="1" fill-rule="nonzero" d=" M187.7 83.18 C187.7,83.18 146.13,83.18 146.13,83.18 C146.13,83.18 146.13,69.64 146.13,69.64 C146.13,69.64 187.7,69.64 187.7,69.64 C187.7,69.64 187.7,83.18 187.7,83.18z "/><path id="_R_G_L_0_G_D_7_P_0" stroke="#039be5" stroke-linecap="round" stroke-linejoin="round" fill="none" stroke-width="10.325" stroke-opacity="1" d=" M187.7 -228.78 C187.7,-228.78 146.13,-228.78 146.13,-228.78 C146.13,-228.78 146.13,-165.41 146.13,-165.41 C146.13,-165.41 187.7,-165.41 187.7,-165.41 C187.7,-165.41 187.7,-228.78 187.7,-228.78z "/><path id="_R_G_L_0_G_D_8_P_0" fill="#039be5" fill-opacity="1" fill-rule="nonzero" d=" M209.5 -366.34 C209.5,-366.34 124.34,-366.34 124.34,-366.34 C124.34,-366.34 124.34,-228.78 124.34,-228.78 C124.34,-228.78 209.5,-228.78 209.5,-228.78 C209.5,-228.78 209.5,-366.34 209.5,-366.34z "/></g></g></g><g id="time_group"/></svg>