<svg xmlns="http://www.w3.org/2000/svg" xmlns:xlink="http://www.w3.org/1999/xlink" preserveAspectRatio="xMidYMid meet" width="500" height="500" viewBox="0 0 500 500" style="width:100%;height:100%"><defs><animateTransform repeatCount="indefinite" dur="2s" begin="0s" xlink:href="#_R_G_L_4_G" fill="freeze" attributeName="transform" from="0 1" to="1 1" type="scale" additive="sum" keyTimes="0;0.0333333;0.25;1" values="0 1;0 1;1 1;1 1" keySplines="0.333 0 0.667 1;0.333 0 0.667 1;0 0 0 0" calcMode="spline"/><animateTransform repeatCount="indefinite" dur="2s" begin="0s" xlink:href="#_R_G_L_4_G" fill="freeze" attributeName="transform" from="131.512 -97.89" to="131.512 -97.89" type="translate" additive="sum" keyTimes="0;1" values="131.512 -97.89;131.512 -97.89" keySplines="0 0 1 1" calcMode="spline"/><animateTransform repeatCount="indefinite" dur="2s" begin="0s" xlink:href="#_R_G_L_3_G" fill="freeze" attributeName="transform" from="0 1" to="1 1" type="scale" additive="sum" keyTimes="0;0.0333333;0.25;1" values="0 1;0 1;1 1;1 1" keySplines="0.333 0 0.667 1;0.333 0 0.667 1;0 0 0 0" calcMode="spline"/><animateTransform repeatCount="indefinite" dur="2s" begin="0s" xlink:href="#_R_G_L_3_G" fill="freeze" attributeName="transform" from="-595.387 -97.89" to="-595.387 -97.89" type="translate" additive="sum" keyTimes="0;1" values="-595.387 -97.89;-595.387 -97.89" keySplines="0 0 1 1" calcMode="spline"/><animateTransform repeatCount="indefinite" dur="2s" begin="0s" xlink:href="#_R_G_L_2_G" fill="freeze" attributeName="transform" from="1 0" to="1 1" type="scale" additive="sum" keyTimes="0;0.25;0.55;1" values="1 0;1 0;1 1;1 1" keySplines="0.333 0 0.667 1;0.333 0 0.667 1;0 0 0 0" calcMode="spline"/><animateTransform repeatCount="indefinite" dur="2s" begin="0s" xlink:href="#_R_G_L_2_G" fill="freeze" attributeName="transform" from="-231.938 -168.569" to="-231.938 -168.569" type="translate" additive="sum" keyTimes="0;1" values="-231.938 -168.569;-231.938 -168.569" keySplines="0 0 1 1" calcMode="spline"/><animateTransform repeatCount="indefinite" dur="2s" begin="0s" xlink:href="#_R_G_L_1_G" fill="freeze" attributeName="transform" from="1 0" to="1 1" type="scale" additive="sum" keyTimes="0;0.2166667;0.5166667;1" values="1 0;1 0;1 1;1 1" keySplines="0.333 0 0.667 1;0.333 0 0.667 1;0 0 0 0" calcMode="spline"/><animateTransform repeatCount="indefinite" dur="2s" begin="0s" xlink:href="#_R_G_L_1_G" fill="freeze" attributeName="transform" from="-291.718 -27.211" to="-291.718 -27.211" type="translate" additive="sum" keyTimes="0;1" values="-291.718 -27.211;-291.718 -27.211" keySplines="0 0 1 1" calcMode="spline"/><animateTransform repeatCount="indefinite" dur="2s" begin="0s" xlink:href="#_R_G_L_0_G" fill="freeze" attributeName="transform" from="1 0" to="1 1" type="scale" additive="sum" keyTimes="0;0.2166667;0.5166667;1" values="1 0;1 0;1 1;1 1" keySplines="0.333 0 0.667 1;0.333 0 0.667 1;0 0 0 0" calcMode="spline"/><animateTransform repeatCount="indefinite" dur="2s" begin="0s" xlink:href="#_R_G_L_0_G" fill="freeze" attributeName="transform" from="-173.479 -27.211" to="-173.479 -27.211" type="translate" additive="sum" keyTimes="0;1" values="-173.479 -27.211;-173.479 -27.211" keySplines="0 0 1 1" calcMode="spline"/><animate attributeType="XML" attributeName="opacity" dur="2s" from="0" to="1" xlink:href="#time_group"/></defs><g id="_R_G"><g id="_R_G_L_6_G_N_1_T_0" transform=" translate(250, 250) scale(0.5, 0.5) translate(0, 0)"><g id="_R_G_L_6_G" transform=" translate(-11.702, 4.349) translate(-238.298, -254.349)"><path id="_R_G_L_6_G_D_0_P_0" fill="#ffffff" fill-opacity="1" fill-rule="nonzero" d=" M111.53 619.78 C93.16,583.33 78.27,545.48 68.85,505.82 C57.04,456.06 56.12,405.65 65.36,355.31 C72.72,315.18 81.04,275.32 79.68,234.06 C78.41,195.69 70.76,158.9 53.09,124.98 C51.99,122.86 50.83,120.77 49.64,118.7 C49.64,118.7 -37.28,118.7 -37.28,118.7 C-29.44,133.2 -21.92,147.88 -14.84,162.74 C0.36,194.6 11.89,228.09 13.07,263.84 C13.67,281.96 9.87,300.23 10.6,318.33 C12.18,357.96 13.96,397.68 18.27,437.08 C24.39,492.9 37.86,547.02 68.6,595.04 C80.04,612.91 94.16,629.09 107.53,645.66 C109.26,647.8 114.82,649.57 117.08,648.59 C119.36,646.35 119.16,642.06 118.45,639.24 C116.75,632.59 114.61,625.89 111.53,619.78z "/><path id="_R_G_L_6_G_D_1_P_0" fill="#ffffff" fill-opacity="1" fill-rule="nonzero" d=" M293.5 -18.31 C279.6,-22.16 265.1,-23.98 251.36,-28.28 C209.68,-41.33 172.47,-63.44 136.63,-87.75 C103.03,-110.54 67.83,-128.61 26.14,-128.58 C-15.13,-128.55 -47.31,-109.97 -68.44,-75.21 C-77.65,-60.06 -83.93,-42.48 -87.74,-24.68 C-90.7,-8.79 -90.37,-2.18 -87.74,10.94 C-82.12,34.35 -73.16,56.18 -60.89,77.08 C-60.89,77.08 22.6,77.08 22.6,77.08 C20.29,73.43 18.06,69.73 15.96,65.96 C1.7,40.33 -5.54,12.13 -4.22,-17.25 C-3.4,-35.67 7.08,-49.79 24.19,-57.52 C44.63,-66.76 65.54,-67.34 86.89,-59.78 C123.55,-46.8 160.41,-34.38 197.16,-21.65 C228.48,-10.8 259.35,2.65 293.74,-2.98 C299.06,-3.85 305.14,-6.81 308.98,-9.99 C305.47,-13.74 299.01,-16.79 293.5,-18.31z "/><path id="_R_G_L_6_G_D_2_P_0" fill="#ffffff" fill-opacity="1" fill-rule="nonzero" d=" M435.95 -39.14 C469.44,-37.65 485.48,-14.53 478.32,18.21 C473.93,38.28 468.07,57.84 461.31,77.08 C461.31,77.08 546.55,77.08 546.55,77.08 C561.73,39.74 569.54,0.59 565.27,-41.2 C561.24,-80.72 534.72,-108.13 495.29,-113.14 C466.85,-116.75 439.09,-112.67 412.75,-102.41 C350.28,-78.06 285.81,-70.06 219.3,-75.24 C210.15,-75.96 191.86,-76.11 182.66,-76.11 C183.16,-74.51 186.17,-71.24 189.1,-68.79 C192.25,-66.17 195.23,-64.57 198.59,-62.96 C247.32,-39.53 298.53,-31.43 352.4,-36.52 C380.11,-39.14 408.18,-40.39 435.95,-39.14z "/><path id="_R_G_L_6_G_D_3_P_0" fill="#ffffff" fill-opacity="1" fill-rule="nonzero" d=" M485.79 188.32 C498.87,164.85 513.47,142.21 526.44,118.7 C526.44,118.7 445.26,118.7 445.26,118.7 C441.3,128.25 437.22,137.76 433.06,147.25 C420.84,175.12 408.43,203.16 399.46,232.15 C390.3,261.73 389.17,292.53 395.7,323.49 C404.82,366.76 407.55,410.58 402.89,454.68 C399.32,488.48 392.97,521.68 380.64,553.51 C370.78,578.99 360.68,604.38 351.16,629.98 C350.08,632.88 350.59,637.52 352.55,640.41 C355.92,640.78 360.59,638.28 362.48,635.68 C375.86,617.24 389.35,598.8 401.55,579.58 C436.51,524.51 456.92,464.62 457.22,398.95 C457.36,367.3 453.94,335.61 454.75,304.01 C455.79,263.25 465.79,224.19 485.79,188.32z "/><path id="_R_G_L_6_G_D_4_P_0" fill="#ffffff" fill-opacity="1" fill-rule="nonzero" d=" M133.67 623.68 C128.68,614.77 121.36,606.41 119.11,596.86 C111.52,564.54 103.11,532.07 99.76,499.17 C91.72,420.02 109.42,344.94 141.81,272.91 C151.12,252.23 163.77,234.11 181.76,220.09 C214.21,194.8 255.44,199.49 288.13,231.52 C322.12,264.82 339.27,306.64 350.6,351.73 C360.26,390.2 365.26,429.22 363.81,468.78 C362.08,516.08 357.41,563.08 339.44,607.6 C338.46,610.02 336.06,613.66 333.39,613.61 C330.45,612.62 329.02,609.4 328.71,607.05 C324.81,577.37 321.01,547.66 317.69,517.9 C314.7,491.03 312.93,464.02 309.51,437.21 C306.48,413.48 304.69,389.03 297.23,366.6 C290.54,346.47 278.75,327.24 265.85,310.15 C246.61,284.67 213.56,287.82 192.14,314.45 C176.68,333.66 166.39,355.43 157.35,378.16 C144.47,410.6 140.82,444.44 140.54,478.79 C140.19,523.57 140.74,568.35 140.7,613.13 C140.69,616.3 140.07,619.4 139.17,622.57 C138.54,624.28 136.49,626.7 133.67,623.68z "/><path id="_R_G_L_6_G_D_5_P_0" fill="#ffffff" fill-opacity="1" fill-rule="nonzero" d=" M126.83 -107.13 C128.69,-105.89 130.27,-104.92 136.87,-104.13 C143.47,-103.33 212.98,-103.71 251.02,-102.86 C269.18,-102.45 287.37,-100.93 305.45,-99.01 C337.48,-95.6 368.87,-96.65 398.78,-110.13 C401.27,-111.25 406.1,-115.07 408.18,-117.12 C406.06,-119.27 401.22,-121.42 398.65,-122.45 C366.79,-135.32 333.12,-138.93 299.25,-139.98 C276.28,-140.69 253.22,-139.29 230.23,-138.31 C199.35,-137 153.47,-125.59 141.33,-117.7 C129.18,-109.81 126.83,-107.13 126.83,-107.13z "/></g></g><g id="_R_G_L_5_G_N_1_T_0" transform=" translate(250, 250) scale(0.5, 0.5) translate(0, 0)"><g id="_R_G_L_5_G" transform=" translate(-18.062, -222.789) translate(-231.938, -27.211)"/></g><g id="_R_G_L_4_G_N_1_T_0" transform=" translate(250, 250) scale(0.5, 0.5) translate(0, 0)"><g id="_R_G_L_4_G" transform=" translate(-381.512, -152.11)"><path id="_R_G_L_4_G_D_0_P_0" fill="#ffffff" fill-opacity="1" fill-rule="nonzero" d=" M138.18 113.74 C138.18,113.74 -131.51,113.74 -131.51,113.74 C-131.51,113.74 -131.51,82.04 -131.51,82.04 C-131.51,82.04 138.18,82.04 138.18,82.04 C138.18,82.04 138.18,113.74 138.18,113.74z "/></g></g><g id="_R_G_L_3_G_N_1_T_0" transform=" translate(250, 250) scale(0.5, 0.5) translate(0, 0)"><g id="_R_G_L_3_G" transform=" translate(345.387, -152.11)"><path id="_R_G_L_3_G_D_0_P_0" fill="#ffffff" fill-opacity="1" fill-rule="nonzero" d=" M595.39 113.74 C595.39,113.74 325.69,113.74 325.69,113.74 C325.69,113.74 325.69,82.04 325.69,82.04 C325.69,82.04 595.39,82.04 595.39,82.04 C595.39,82.04 595.39,113.74 595.39,113.74z "/></g></g><g id="_R_G_L_2_G_N_1_T_0" transform=" translate(250, 250) scale(0.5, 0.5) translate(0, 0)"><g id="_R_G_L_2_G" transform=" translate(-18.062, -81.431)"><path id="_R_G_L_2_G_D_0_P_0" fill="#ffffff" fill-opacity="1" fill-rule="nonzero" d=" M253.1 168.57 C253.1,168.57 210.77,168.57 210.77,168.57 C209.68,168.57 208.77,167.67 208.77,166.57 C208.77,166.57 208.77,29.21 208.77,29.21 C208.77,28.11 209.68,27.21 210.77,27.21 C210.77,27.21 253.1,27.21 253.1,27.21 C254.2,27.21 255.1,28.11 255.1,29.21 C255.1,29.21 255.1,166.57 255.1,166.57 C255.1,167.67 254.2,168.57 253.1,168.57z "/></g></g><g id="_R_G_L_1_G_N_1_T_0" transform=" translate(250, 250) scale(0.5, 0.5) translate(0, 0)"><g id="_R_G_L_1_G" transform=" translate(41.718, -222.789)"><path id="_R_G_L_1_G_D_0_P_0" fill="#ffffff" fill-opacity="1" fill-rule="nonzero" d=" M312.88 168.57 C312.88,168.57 270.56,168.57 270.56,168.57 C269.46,168.57 268.56,167.67 268.56,166.57 C268.56,166.57 268.56,29.21 268.56,29.21 C268.56,28.11 269.46,27.21 270.56,27.21 C270.56,27.21 312.88,27.21 312.88,27.21 C313.98,27.21 314.88,28.11 314.88,29.21 C314.88,29.21 314.88,166.57 314.88,166.57 C314.88,167.67 313.98,168.57 312.88,168.57z "/></g></g><g id="_R_G_L_0_G_N_1_T_0" transform=" translate(250, 250) scale(0.5, 0.5) translate(0, 0)"><g id="_R_G_L_0_G" transform=" translate(-76.521, -222.789)"><path id="_R_G_L_0_G_D_0_P_0" fill="#ffffff" fill-opacity="1" fill-rule="nonzero" d=" M194.64 168.57 C194.64,168.57 152.32,168.57 152.32,168.57 C151.22,168.57 150.32,167.67 150.32,166.57 C150.32,166.57 150.32,29.21 150.32,29.21 C150.32,28.11 151.22,27.21 152.32,27.21 C152.32,27.21 194.64,27.21 194.64,27.21 C195.74,27.21 196.64,28.11 196.64,29.21 C196.64,29.21 196.64,166.57 196.64,166.57 C196.64,167.67 195.74,168.57 194.64,168.57z "/></g></g></g><g id="time_group"/></svg>