<svg xmlns="http://www.w3.org/2000/svg" xmlns:xlink="http://www.w3.org/1999/xlink" preserveAspectRatio="xMidYMid meet" width="500" height="500" viewBox="0 0 500 500" style="width:100%;height:100%"><defs><animateTransform repeatCount="indefinite" dur="3s" begin="0s" xlink:href="#_R_G_L_0_G_L_1_G" fill="freeze" attributeName="transform" from="0" to="360" type="rotate" additive="sum" keyTimes="0;0.1444444;1" values="0;0;360" keySplines="0.167 0.167 0.833 0.833;0.167 0.167 0.833 0.833" calcMode="spline"/><animateTransform repeatCount="indefinite" dur="3s" begin="0s" xlink:href="#_R_G_L_0_G_L_1_G" fill="freeze" attributeName="transform" from="-577.795 -360.605" to="-577.795 -360.605" type="translate" additive="sum" keyTimes="0;1" values="-577.795 -360.605;-577.795 -360.605" keySplines="0 0 1 1" calcMode="spline"/><animateMotion repeatCount="indefinite" dur="3s" begin="0s" xlink:href="#_R_G_L_0_G_L_0_G" fill="freeze" keyTimes="0;0.0555556;0.0888889;0.1111111;0.1444444;1" path="M588.87 183.56 C588.87,183.56 588.87,183.56 588.87,183.56 C588.87,187.97 588.87,205.64 588.87,210.06 C588.87,210.06 588.87,210.06 588.87,210.06 C588.87,205.64 588.87,187.97 588.87,183.56 C588.87,183.56 588.87,183.56 588.87,183.56 " keyPoints="0;0;0.5;0.5;1;1" keySplines="0.333 0 0.667 1;0.333 0 0.667 1;0.333 0.333 0.667 0.667;0.333 0 0.667 1;0 0 0 0" calcMode="spline"/><animateTransform repeatCount="indefinite" dur="3s" begin="0s" xlink:href="#_R_G_L_0_G_L_0_G" fill="freeze" attributeName="transform" from="-130.62 -82.898" to="-130.62 -82.898" type="translate" additive="sum" keyTimes="0;1" values="-130.62 -82.898;-130.62 -82.898" keySplines="0 0 1 1" calcMode="spline"/><animate attributeType="XML" attributeName="opacity" dur="3s" from="0" to="1" xlink:href="#time_group"/></defs><g id="_R_G"><g id="_R_G_L_0_G" transform=" translate(250, 227) scale(0.5, 0.5) translate(-500, -500)"><g id="_R_G_L_0_G_L_3_G" transform=" translate(491.528, 616.611) translate(-480.323, -360.638)"><path id="_R_G_L_0_G_L_3_G_D_0_P_0" fill="#ffffff" fill-opacity="1" fill-rule="nonzero" d=" M494.99 9.85 C427.73,24.24 363.82,56.41 311.58,106.4 C300.15,117.34 289.61,128.82 279.96,140.75 C279.49,140.71 279.02,140.68 278.55,140.68 C278.55,140.68 145.83,140.68 145.83,140.68 C135.55,140.68 127.21,148.66 127.21,158.5 C127.21,168.35 135.55,176.33 145.83,176.33 C145.83,176.33 254.62,176.33 254.62,176.33 C240.96,198.21 229.95,221.18 221.57,244.84 C221.57,244.84 18.87,244.84 18.87,244.84 C8.59,244.84 0.25,252.82 0.25,262.66 C0.25,272.5 8.59,280.48 18.87,280.48 C18.87,280.48 211.05,280.48 211.05,280.48 C205.68,303.03 202.6,325.98 201.8,348.99 C201.8,348.99 119.45,348.99 119.45,348.99 C109.16,348.99 100.82,356.97 100.82,366.82 C100.82,376.66 109.16,384.64 119.45,384.64 C119.45,384.64 202.4,384.64 202.4,384.64 C203.97,407.71 207.84,430.66 214.03,453.15 C214.03,453.15 93.37,453.15 93.37,453.15 C83.09,453.15 74.75,461.13 74.75,470.98 C74.75,480.82 83.09,488.8 93.37,488.8 C93.37,488.8 225.91,488.8 225.91,488.8 C244.18,535.06 272.74,578.41 311.58,615.59 C372.94,674.31 454.21,711.14 540.41,719.29 C552.72,720.45 565.03,721.03 577.32,721.03 C650,721.03 721.75,700.9 782.63,662.96 C791.25,657.58 793.69,646.54 788.08,638.29 C782.46,630.04 770.93,627.71 762.31,633.08 C629.04,716.14 450.56,698.18 337.92,590.38 C205.76,463.9 205.76,258.1 337.92,131.61 C470.08,5.13 685.12,5.13 817.28,131.61 C929.77,239.27 948.64,409.94 862.14,537.42 C856.54,545.67 858.99,556.71 867.62,562.07 C876.25,567.43 887.78,565.09 893.38,556.83 C939.59,488.72 960.4,406.45 951.96,325.18 C943.4,242.76 904.92,165.07 843.62,106.4 C791.24,56.27 727.12,24.05 659.65,9.72 C659.65,9.72 622.4,3.66 622.4,3.66 C592.46,0.25 562.17,0.27 532.24,3.72 C532.24,3.72 494.99,9.85 494.99,9.85z "/><path id="_R_G_L_0_G_L_3_G_D_1_P_0" fill="#ffffff" fill-opacity="1" fill-rule="nonzero" d=" M830.46 585.15 C825.54,585.15 820.76,587.06 817.3,590.37 C813.81,593.69 811.84,598.29 811.84,602.98 C811.84,607.66 813.81,612.26 817.3,615.58 C820.76,618.91 825.55,620.8 830.46,620.8 C835.36,620.8 840.15,618.91 843.63,615.58 C847.09,612.26 849.09,607.66 849.09,602.98 C849.09,598.29 847.09,593.69 843.63,590.37 C840.15,587.06 835.36,585.15 830.46,585.15z "/><path id="_R_G_L_0_G_L_3_G_D_2_P_0" fill="#ffffff" fill-opacity="1" fill-rule="nonzero" d=" M577.6 84.49 C418.29,84.49 288.69,208.53 288.69,360.99 C288.69,513.46 418.29,637.5 577.6,637.5 C736.91,637.5 866.52,513.46 866.52,360.99 C866.52,208.53 736.91,84.49 577.6,84.49z  M577.6 601.85 C438.83,601.85 325.93,493.8 325.93,360.99 C325.93,228.19 438.83,120.14 577.6,120.14 C716.37,120.14 829.27,228.19 829.27,360.99 C829.27,493.8 716.37,601.85 577.6,601.85z "/><path id="_R_G_L_0_G_L_3_G_D_3_P_0" fill="#ffffff" fill-opacity="1" fill-rule="nonzero" d=" M603.17 311.32 C595.45,307.67 586.78,305.61 577.6,305.61 C568.43,305.61 559.75,307.67 552.04,311.32 C552.04,311.32 545.06,313.85 537.79,320.81 C530.52,327.77 525.7,336.52 525.7,336.52 C521.88,343.91 519.73,352.21 519.73,360.99 C519.73,391.53 545.69,416.38 577.6,416.38 C609.52,416.38 635.48,391.53 635.48,360.99 C635.48,352.21 633.32,343.91 629.51,336.52 C629.51,336.52 624.04,327.53 618.68,322.63 C613.19,317.62 603.17,311.32 603.17,311.32z  M577.6 380.73 C566.23,380.73 556.98,371.88 556.98,360.99 C556.98,350.11 566.23,341.25 577.6,341.25 C588.98,341.25 598.23,350.11 598.23,360.99 C598.23,371.88 588.98,380.73 577.6,380.73z "/><path id="_R_G_L_0_G_L_3_G_D_4_P_0" fill="#ffffff" fill-opacity="1" fill-rule="nonzero" d=" M579.13 561.74 C585.92,561.74 591.42,556.48 591.42,549.98 C591.42,549.98 591.42,539.08 591.42,539.08 C591.42,532.58 585.92,527.31 579.13,527.31 C572.34,527.31 566.84,532.58 566.84,539.08 C566.84,539.08 566.84,549.98 566.84,549.98 C566.84,556.48 572.34,561.74 579.13,561.74z "/><path id="_R_G_L_0_G_L_3_G_D_5_P_0" fill="#ffffff" fill-opacity="1" fill-rule="nonzero" d=" M737.27 361.67 C737.23,368.46 742.47,374 748.96,374.03 C748.96,374.03 759.86,374.09 759.86,374.09 C766.36,374.13 771.66,368.65 771.7,361.86 C771.74,355.08 766.5,349.54 760,349.5 C760,349.5 749.1,349.44 749.1,349.44 C742.6,349.41 737.31,354.88 737.27,361.67z "/><path id="_R_G_L_0_G_L_3_G_D_6_P_0" fill="#ffffff" fill-opacity="1" fill-rule="nonzero" d=" M362.56 359.19 C362.52,365.98 367.76,371.52 374.26,371.55 C374.26,371.55 385.16,371.61 385.16,371.61 C391.65,371.65 396.95,366.17 396.99,359.38 C397.03,352.6 391.79,347.06 385.29,347.02 C385.29,347.02 374.39,346.96 374.39,346.96 C367.9,346.92 362.6,352.4 362.56,359.19z "/></g><g id="_R_G_L_0_G_L_2_G" transform=" translate(589, 616.578) translate(-577.795, -360.605)"><path id="_R_G_L_0_G_L_2_G_D_0_P_0" fill="#ffffff" fill-opacity="1" fill-rule="nonzero" d=" M563.73 323.36 C557.34,316.77 555.29,314.53 552.04,311.32 C552.04,311.32 510.75,271.81 510.75,271.81 C503.48,264.85 491.69,264.85 484.41,271.81 C477.14,278.77 477.14,290.05 484.41,297.01 C484.41,297.01 525.7,336.52 525.7,336.52 C531.29,342.03 535.54,344.9 538.98,346.74 C543.21,349.01 555.17,350.53 560.73,344.62 C566.74,338.22 567.17,326.9 563.73,323.36z "/></g><g id="_R_G_L_0_G_L_1_G" transform=" translate(589, 616.578)"><path id="_R_G_L_0_G_L_1_G_D_0_P_0" fill="#ffffff" fill-opacity="1" fill-rule="nonzero" d=" M695.41 223.04 C695.41,223.04 603.17,311.32 603.17,311.32 C597.79,315.78 595.37,319.33 593.85,323.36 C592.05,328.15 590.92,333.15 596.73,339.99 C602.73,347.06 611.41,346.27 615.1,345.12 C619.8,343.65 622.79,341.78 629.51,336.52 C629.51,336.52 719.04,250.83 719.04,250.83 C719.04,250.83 721.75,248.24 721.75,248.24 C729.02,241.28 729.02,230 721.75,223.04 C714.48,216.08 702.69,216.08 695.41,223.04z "/></g><g id="_R_G_L_0_G_L_0_G"><path id="_R_G_L_0_G_L_0_G_D_0_P_0" fill="#ffffff" fill-opacity="1" fill-rule="nonzero" d=" M212.75 165.55 C212.75,165.55 212.95,119.66 212.95,119.66 C240.51,113.1 260.99,89.23 260.99,60.85 C260.99,27.44 232.58,0.25 197.67,0.25 C197.67,0.25 63.57,0.25 63.57,0.25 C28.66,0.25 0.25,27.44 0.25,60.85 C0.25,89.22 20.73,113.1 48.29,119.66 C48.29,119.66 48.29,165.07 48.29,165.07 C48.29,165.07 85.54,165.34 85.54,165.34 C85.54,165.34 85.54,121.46 85.54,121.46 C85.54,121.46 175.7,121.46 175.7,121.46 C175.7,121.46 175.7,165.34 175.7,165.34  M197.67 85.81 C197.67,85.81 194.33,85.81 194.33,85.81 C194.33,85.81 66.91,85.81 66.91,85.81 C66.91,85.81 63.57,85.81 63.57,85.81 C49.19,85.81 37.5,74.61 37.5,60.85 C37.5,47.09 49.19,35.9 63.57,35.9 C63.57,35.9 197.67,35.9 197.67,35.9 C212.05,35.9 223.74,47.09 223.74,60.85 C223.74,74.61 212.05,85.81 197.67,85.81z "/></g></g></g><g id="time_group"/></svg>