<svg xmlns="http://www.w3.org/2000/svg" xmlns:xlink="http://www.w3.org/1999/xlink" preserveAspectRatio="xMidYMid meet" width="500" height="500" viewBox="0 0 500 500" style="width:100%;height:100%"><defs><animateTransform repeatCount="indefinite" dur="2s" begin="0s" xlink:href="#_R_G_L_8_G" fill="freeze" attributeName="transform" from="0 0" to="1 1" type="scale" additive="sum" keyTimes="0;0.6666667;0.8333333;1" values="0 0;0 0;1 1;1 1" keySplines="0.167 0.167 0.667 1;0.167 0.167 0.667 1;0 0 0 0" calcMode="spline"/><animate repeatCount="indefinite" dur="2s" begin="0s" xlink:href="#_R_G_L_8_G_M" fill="freeze" attributeName="opacity" from="0" to="1" keyTimes="0;0.6666667;0.6666683;1" values="0;0;1;1" keySplines="0 0 0 0;0 0 0 0;0 0 0 0" calcMode="spline"/><animateTransform repeatCount="indefinite" dur="2s" begin="0s" xlink:href="#_R_G_L_7_G" fill="freeze" attributeName="transform" from="0 0" to="1 1" type="scale" additive="sum" keyTimes="0;0.5833333;0.75;1" values="0 0;0 0;1 1;1 1" keySplines="0.167 0.167 0.667 1;0.167 0.167 0.667 1;0 0 0 0" calcMode="spline"/><animate repeatCount="indefinite" dur="2s" begin="0s" xlink:href="#_R_G_L_7_G_M" fill="freeze" attributeName="opacity" from="0" to="1" keyTimes="0;0.5833333;0.583335;1" values="0;0;1;1" keySplines="0 0 0 0;0 0 0 0;0 0 0 0" calcMode="spline"/><animateTransform repeatCount="indefinite" dur="2s" begin="0s" xlink:href="#_R_G_L_6_G" fill="freeze" attributeName="transform" from="0 0" to="1 1" type="scale" additive="sum" keyTimes="0;0.5;0.6666667;1" values="0 0;0 0;1 1;1 1" keySplines="0.167 0.167 0.667 1;0.167 0.167 0.667 1;0 0 0 0" calcMode="spline"/><animate repeatCount="indefinite" dur="2s" begin="0s" xlink:href="#_R_G_L_6_G_M" fill="freeze" attributeName="opacity" from="0" to="1" keyTimes="0;0.5;0.5000017;1" values="0;0;1;1" keySplines="0 0 0 0;0 0 0 0;0 0 0 0" calcMode="spline"/><animateTransform repeatCount="indefinite" dur="2s" begin="0s" xlink:href="#_R_G_L_5_G" fill="freeze" attributeName="transform" from="0 0" to="1 1" type="scale" additive="sum" keyTimes="0;0.4166667;0.5833333;1" values="0 0;0 0;1 1;1 1" keySplines="0.167 0.167 0.667 1;0.167 0.167 0.667 1;0 0 0 0" calcMode="spline"/><animate repeatCount="indefinite" dur="2s" begin="0s" xlink:href="#_R_G_L_5_G_M" fill="freeze" attributeName="opacity" from="0" to="1" keyTimes="0;0.4166667;0.4166683;1" values="0;0;1;1" keySplines="0 0 0 0;0 0 0 0;0 0 0 0" calcMode="spline"/><animateTransform repeatCount="indefinite" dur="2s" begin="0s" xlink:href="#_R_G_L_4_G" fill="freeze" attributeName="transform" from="0 0" to="1 1" type="scale" additive="sum" keyTimes="0;0.3333333;0.5;1" values="0 0;0 0;1 1;1 1" keySplines="0.167 0.167 0.667 1;0.167 0.167 0.667 1;0 0 0 0" calcMode="spline"/><animate repeatCount="indefinite" dur="2s" begin="0s" xlink:href="#_R_G_L_4_G_M" fill="freeze" attributeName="opacity" from="0" to="1" keyTimes="0;0.3333333;0.333335;1" values="0;0;1;1" keySplines="0 0 0 0;0 0 0 0;0 0 0 0" calcMode="spline"/><animateTransform repeatCount="indefinite" dur="2s" begin="0s" xlink:href="#_R_G_L_3_G" fill="freeze" attributeName="transform" from="0 0" to="1 1" type="scale" additive="sum" keyTimes="0;0.25;0.4166667;1" values="0 0;0 0;1 1;1 1" keySplines="0.167 0.167 0.667 1;0.167 0.167 0.667 1;0 0 0 0" calcMode="spline"/><animate repeatCount="indefinite" dur="2s" begin="0s" xlink:href="#_R_G_L_3_G_M" fill="freeze" attributeName="opacity" from="0" to="1" keyTimes="0;0.25;0.2500017;1" values="0;0;1;1" keySplines="0 0 0 0;0 0 0 0;0 0 0 0" calcMode="spline"/><animateTransform repeatCount="indefinite" dur="2s" begin="0s" xlink:href="#_R_G_L_2_G" fill="freeze" attributeName="transform" from="0 0" to="1 1" type="scale" additive="sum" keyTimes="0;0.1666667;0.3333333;1" values="0 0;0 0;1 1;1 1" keySplines="0.167 0.167 0.667 1;0.167 0.167 0.667 1;0 0 0 0" calcMode="spline"/><animate repeatCount="indefinite" dur="2s" begin="0s" xlink:href="#_R_G_L_2_G_M" fill="freeze" attributeName="opacity" from="0" to="1" keyTimes="0;0.1666667;0.1666683;1" values="0;0;1;1" keySplines="0 0 0 0;0 0 0 0;0 0 0 0" calcMode="spline"/><animateTransform repeatCount="indefinite" dur="2s" begin="0s" xlink:href="#_R_G_L_1_G" fill="freeze" attributeName="transform" from="0 0" to="1 1" type="scale" additive="sum" keyTimes="0;0.0833333;0.25;1" values="0 0;0 0;1 1;1 1" keySplines="0.167 0.167 0.667 1;0.167 0.167 0.667 1;0 0 0 0" calcMode="spline"/><animate repeatCount="indefinite" dur="2s" begin="0s" xlink:href="#_R_G_L_1_G_M" fill="freeze" attributeName="opacity" from="0" to="1" keyTimes="0;0.0833333;0.083335;1" values="0;0;1;1" keySplines="0 0 0 0;0 0 0 0;0 0 0 0" calcMode="spline"/><animateTransform repeatCount="indefinite" dur="2s" begin="0s" xlink:href="#_R_G_L_0_G" fill="freeze" attributeName="transform" from="0 0" to="1 1" type="scale" additive="sum" keyTimes="0;0.1666667;1" values="0 0;1 1;1 1" keySplines="0.167 0.167 0.667 1;0 0 0 0" calcMode="spline"/><animate attributeType="XML" attributeName="opacity" dur="2s" from="0" to="1" xlink:href="#time_group"/></defs><g id="_R_G"><g id="_R_G_L_12_G"><path id="_R_G_L_12_G_D_0_P_0" fill="#ffffff" fill-opacity="1" fill-rule="nonzero" d=" M47.35 47.35 C29.75,47.35 15.35,61.75 15.35,79.35 C15.35,79.35 15.35,143.35 15.35,143.35 C15.35,143.35 15.35,442.05 15.35,442.05 C15.35,459.65 29.75,474.05 47.35,474.05 C47.35,474.05 452.65,474.05 452.65,474.05 C470.25,474.05 484.65,459.65 484.65,442.05 C484.65,442.05 484.65,143.35 484.65,143.35 C484.65,143.35 484.65,79.35 484.65,79.35 C484.65,61.75 470.35,47.35 452.65,47.35 C452.65,47.35 47.35,47.35 47.35,47.35z  M463.35 442.05 C463.35,447.95 458.55,452.75 452.65,452.75 C452.65,452.75 47.35,452.75 47.35,452.75 C41.45,452.75 36.65,447.95 36.65,442.05 C36.65,442.05 36.65,154.05 36.65,154.05 C36.65,154.05 463.35,154.05 463.35,154.05 C463.35,154.05 463.35,442.05 463.35,442.05z  M463.35 132.65 C463.35,132.65 36.65,132.65 36.65,132.65 C36.65,132.65 36.65,79.35 36.65,79.35 C36.65,73.45 41.45,68.65 47.35,68.65 C47.35,68.65 452.65,68.65 452.65,68.65 C458.55,68.65 463.35,73.45 463.35,79.35 C463.35,79.35 463.35,132.65 463.35,132.65z "/></g><g id="_R_G_L_11_G" transform=" translate(111.02, 57.956) translate(0, 0)"><path id="_R_G_L_11_G_D_0_P_0" stroke="#ffffff" stroke-linecap="round" stroke-linejoin="round" fill="none" stroke-width="21" stroke-opacity="1" d=" M0 -28.29 C0,-28.29 0,28.29 0,28.29 "/></g><g id="_R_G_L_10_G" transform=" translate(389.212, 57.956) translate(0, 0)"><path id="_R_G_L_10_G_D_0_P_0" stroke="#ffffff" stroke-linecap="round" stroke-linejoin="round" fill="none" stroke-width="21" stroke-opacity="1" d=" M0 -28.29 C0,-28.29 0,28.29 0,28.29 "/></g><g id="_R_G_L_9_G" transform=" translate(250, 57.956) translate(0, 0)"><path id="_R_G_L_9_G_D_0_P_0" stroke="#ffffff" stroke-linecap="round" stroke-linejoin="round" fill="none" stroke-width="21" stroke-opacity="1" d=" M0 -28.29 C0,-28.29 0,28.29 0,28.29 "/></g><g id="_R_G_L_8_G_M"><g id="_R_G_L_8_G" transform=" translate(365.81, 393.637)"><path id="_R_G_L_8_G_D_0_P_0" stroke="#ffffff" stroke-linecap="round" stroke-linejoin="round" fill="none" stroke-width="10" stroke-opacity="1" d=" M18.03 29.43 C18.03,29.43 -18.03,29.43 -18.03,29.43 C-27.1,29.43 -34.31,22.22 -34.31,13.14 C-34.31,13.14 -34.31,-13.14 -34.31,-13.14 C-34.31,-22.21 -27.1,-29.43 -18.03,-29.43 C-18.03,-29.43 18.03,-29.43 18.03,-29.43 C27.1,-29.43 34.31,-22.21 34.31,-13.14 C34.31,-13.14 34.31,13.14 34.31,13.14 C34.31,22.22 26.87,29.43 18.03,29.43z "/></g></g><g id="_R_G_L_7_G_M"><g id="_R_G_L_7_G" transform=" translate(250.61, 393.637)"><path id="_R_G_L_7_G_D_0_P_0" stroke="#ffffff" stroke-linecap="round" stroke-linejoin="round" fill="none" stroke-width="10" stroke-opacity="1" d=" M18.03 29.43 C18.03,29.43 -18.03,29.43 -18.03,29.43 C-27.1,29.43 -34.31,22.22 -34.31,13.14 C-34.31,13.14 -34.31,-13.14 -34.31,-13.14 C-34.31,-22.21 -27.1,-29.43 -18.03,-29.43 C-18.03,-29.43 18.03,-29.43 18.03,-29.43 C27.1,-29.43 34.31,-22.21 34.31,-13.14 C34.31,-13.14 34.31,13.14 34.31,13.14 C34.31,22.22 26.87,29.43 18.03,29.43z "/></g></g><g id="_R_G_L_6_G_M"><g id="_R_G_L_6_G" transform=" translate(134.296, 393.637)"><path id="_R_G_L_6_G_D_0_P_0" stroke="#ffffff" stroke-linecap="round" stroke-linejoin="round" fill="none" stroke-width="10" stroke-opacity="1" d=" M18.03 29.43 C18.03,29.43 -18.03,29.43 -18.03,29.43 C-27.1,29.43 -34.31,22.22 -34.31,13.14 C-34.31,13.14 -34.31,-13.14 -34.31,-13.14 C-34.31,-22.21 -27.1,-29.43 -18.03,-29.43 C-18.03,-29.43 18.03,-29.43 18.03,-29.43 C27.1,-29.43 34.31,-22.21 34.31,-13.14 C34.31,-13.14 34.31,13.14 34.31,13.14 C34.31,22.22 26.87,29.43 18.03,29.43z "/></g></g><g id="_R_G_L_5_G_M"><g id="_R_G_L_5_G" transform=" translate(365.81, 307.942)"><path id="_R_G_L_5_G_D_0_P_0" stroke="#ffffff" stroke-linecap="round" stroke-linejoin="round" fill="none" stroke-width="10" stroke-opacity="1" d=" M18.03 29.43 C18.03,29.43 -18.03,29.43 -18.03,29.43 C-27.1,29.43 -34.31,22.22 -34.31,13.14 C-34.31,13.14 -34.31,-13.14 -34.31,-13.14 C-34.31,-22.21 -27.1,-29.43 -18.03,-29.43 C-18.03,-29.43 18.03,-29.43 18.03,-29.43 C27.1,-29.43 34.31,-22.21 34.31,-13.14 C34.31,-13.14 34.31,13.14 34.31,13.14 C34.31,22.22 26.87,29.43 18.03,29.43z "/></g></g><g id="_R_G_L_4_G_M"><g id="_R_G_L_4_G" transform=" translate(250.61, 307.942)"><path id="_R_G_L_4_G_D_0_P_0" stroke="#ffffff" stroke-linecap="round" stroke-linejoin="round" fill="none" stroke-width="10" stroke-opacity="1" d=" M18.03 29.43 C18.03,29.43 -18.03,29.43 -18.03,29.43 C-27.1,29.43 -34.31,22.22 -34.31,13.14 C-34.31,13.14 -34.31,-13.14 -34.31,-13.14 C-34.31,-22.21 -27.1,-29.43 -18.03,-29.43 C-18.03,-29.43 18.03,-29.43 18.03,-29.43 C27.1,-29.43 34.31,-22.21 34.31,-13.14 C34.31,-13.14 34.31,13.14 34.31,13.14 C34.31,22.22 26.87,29.43 18.03,29.43z "/></g></g><g id="_R_G_L_3_G_M"><g id="_R_G_L_3_G" transform=" translate(134.296, 307.942)"><path id="_R_G_L_3_G_D_0_P_0" stroke="#ffffff" stroke-linecap="round" stroke-linejoin="round" fill="none" stroke-width="10" stroke-opacity="1" d=" M18.03 29.43 C18.03,29.43 -18.03,29.43 -18.03,29.43 C-27.1,29.43 -34.31,22.22 -34.31,13.14 C-34.31,13.14 -34.31,-13.14 -34.31,-13.14 C-34.31,-22.21 -27.1,-29.43 -18.03,-29.43 C-18.03,-29.43 18.03,-29.43 18.03,-29.43 C27.1,-29.43 34.31,-22.21 34.31,-13.14 C34.31,-13.14 34.31,13.14 34.31,13.14 C34.31,22.22 26.87,29.43 18.03,29.43z "/></g></g><g id="_R_G_L_2_G_M"><g id="_R_G_L_2_G" transform=" translate(365.81, 213.163)"><path id="_R_G_L_2_G_D_0_P_0" stroke="#ffffff" stroke-linecap="round" stroke-linejoin="round" fill="none" stroke-width="10" stroke-opacity="1" d=" M18.03 29.43 C18.03,29.43 -18.03,29.43 -18.03,29.43 C-27.1,29.43 -34.31,22.22 -34.31,13.14 C-34.31,13.14 -34.31,-13.14 -34.31,-13.14 C-34.31,-22.21 -27.1,-29.43 -18.03,-29.43 C-18.03,-29.43 18.03,-29.43 18.03,-29.43 C27.1,-29.43 34.31,-22.21 34.31,-13.14 C34.31,-13.14 34.31,13.14 34.31,13.14 C34.31,22.22 26.87,29.43 18.03,29.43z "/></g></g><g id="_R_G_L_1_G_M"><g id="_R_G_L_1_G" transform=" translate(250.61, 213.163)"><path id="_R_G_L_1_G_D_0_P_0" stroke="#ffffff" stroke-linecap="round" stroke-linejoin="round" fill="none" stroke-width="10" stroke-opacity="1" d=" M18.03 29.43 C18.03,29.43 -18.03,29.43 -18.03,29.43 C-27.1,29.43 -34.31,22.22 -34.31,13.14 C-34.31,13.14 -34.31,-13.14 -34.31,-13.14 C-34.31,-22.21 -27.1,-29.43 -18.03,-29.43 C-18.03,-29.43 18.03,-29.43 18.03,-29.43 C27.1,-29.43 34.31,-22.21 34.31,-13.14 C34.31,-13.14 34.31,13.14 34.31,13.14 C34.31,22.22 26.87,29.43 18.03,29.43z "/></g></g><g id="_R_G_L_0_G" transform=" translate(134.296, 213.163)"><path id="_R_G_L_0_G_D_0_P_0" stroke="#ffffff" stroke-linecap="round" stroke-linejoin="round" fill="none" stroke-width="10" stroke-opacity="1" d=" M18.03 29.43 C18.03,29.43 -18.03,29.43 -18.03,29.43 C-27.1,29.43 -34.31,22.22 -34.31,13.14 C-34.31,13.14 -34.31,-13.14 -34.31,-13.14 C-34.31,-22.21 -27.1,-29.43 -18.03,-29.43 C-18.03,-29.43 18.03,-29.43 18.03,-29.43 C27.1,-29.43 34.31,-22.21 34.31,-13.14 C34.31,-13.14 34.31,13.14 34.31,13.14 C34.31,22.22 26.87,29.43 18.03,29.43z "/></g></g><g id="time_group"/></svg>