<svg xmlns="http://www.w3.org/2000/svg" xmlns:xlink="http://www.w3.org/1999/xlink" preserveAspectRatio="xMidYMid meet" width="500" height="500" viewBox="0 0 500 500" style="width:100%;height:100%"><defs><animate repeatCount="indefinite" dur="1.3333333s" begin="0s" xlink:href="#_R_G_L_1_G_D_0_P_0" fill="white" attributeName="opacity" from="0" to="0" keyTimes="0;0.375;0.7;0.85;1" values="0;0;1;0;0" keySplines="0.167 0.167 0.833 0.833;0.167 0.167 0.833 0.833;0.167 0.167 0.833 0.833;0 0 0 0" calcMode="spline"/><animateTransform repeatCount="indefinite" dur="1.3333333s" begin="0s" xlink:href="#_R_G_L_1_G_D_0_P_0_G_0_T_0" fill="white" attributeName="transform" from="0.48 0.48" to="1 1" type="scale" additive="sum" keyTimes="0;0.375;0.625;1" values="0.48 0.48;0.48 0.48;1 1;1 1" keySplines="0.167 0.167 0.833 0.833;0.167 0.167 0.833 0.833;0 0 0 0" calcMode="spline"/><animate repeatCount="indefinite" dur="1.3333333s" begin="0s" xlink:href="#_R_G_L_1_G_D_1_P_0" fill="white" attributeName="opacity" from="0" to="0" keyTimes="0;0.325;0.65;0.8;1" values="0;0;1;0;0" keySplines="0.167 0.167 0.833 0.833;0.167 0.167 0.833 0.833;0.167 0.167 0.833 0.833;0 0 0 0" calcMode="spline"/><animateTransform repeatCount="indefinite" dur="1.3333333s" begin="0s" xlink:href="#_R_G_L_1_G_D_1_P_0_G_0_T_0" fill="white" attributeName="transform" from="0.36 0.36" to="1 1" type="scale" additive="sum" keyTimes="0;0.325;0.575;1" values="0.36 0.36;0.36 0.36;1 1;1 1" keySplines="0.167 0.167 0.833 0.833;0.167 0.167 0.833 0.833;0 0 0 0" calcMode="spline"/><animate repeatCount="indefinite" dur="1.3333333s" begin="0s" xlink:href="#_R_G_L_1_G_D_2_P_0" fill="white" attributeName="opacity" from="0" to="0" keyTimes="0;0.275;0.6;0.75;1" values="0;0;1;0;0" keySplines="0.167 0.167 0.833 0.833;0.167 0.167 0.833 0.833;0.167 0.167 0.833 0.833;0 0 0 0" calcMode="spline"/><animateTransform repeatCount="indefinite" dur="1.3333333s" begin="0s" xlink:href="#_R_G_L_1_G_D_2_P_0_G_0_T_0" fill="white" attributeName="transform" from="0.2 0.2" to="1 1" type="scale" additive="sum" keyTimes="0;0.275;0.525;1" values="0.2 0.2;0.2 0.2;1 1;1 1" keySplines="0.167 0.167 0.833 0.833;0.167 0.167 0.833 0.833;0 0 0 0" calcMode="spline"/><animate repeatCount="indefinite" dur="1.3333333s" begin="0s" xlink:href="#_R_G_L_1_G_D_3_P_0" fill="white" attributeName="opacity" from="0" to="0" keyTimes="0;0.225;0.55;0.7;1" values="0;0;1;0;0" keySplines="0.167 0.167 0.833 0.833;0.167 0.167 0.833 0.833;0.167 0.167 0.833 0.833;0 0 0 0" calcMode="spline"/><animateTransform repeatCount="indefinite" dur="1.3333333s" begin="0s" xlink:href="#_R_G_L_1_G_D_3_P_0_G_0_T_0" fill="white" attributeName="transform" from="0 0" to="1 1" type="scale" additive="sum" keyTimes="0;0.225;0.475;1" values="0 0;0 0;1 1;1 1" keySplines="0.167 0.167 0.833 0.833;0.167 0.167 0.833 0.833;0 0 0 0" calcMode="spline"/><animateMotion repeatCount="indefinite" dur="1.3333333s" begin="0s" xlink:href="#_R_G_L_0_G" fill="white" keyTimes="0;0.05;0.275;0.65;0.9;1" path="M250 250 C250,250 250,250 250,250 C250,262 250,310 250,322 C250,322 250,322 250,322 C250,310 250,262 250,250 C250,250 250,250 250,250 " keyPoints="0;0;0.5;0.5;1;1" keySplines="0.646 0 0.757 1;0.646 0 0.757 1;0.167 0.167 0.757 0.757;0.167 0 0.667 1;0 0 0 0" calcMode="spline"/><animateTransform repeatCount="indefinite" dur="1.3333333s" begin="0s" xlink:href="#_R_G_L_0_G" fill="white" attributeName="transform" from="4.67 4.67" to="4.67 4.67" type="scale" additive="sum" keyTimes="0;1" values="4.67 4.67;4.67 4.67" keySplines="0 0 1 1" calcMode="spline"/><animateTransform repeatCount="indefinite" dur="1.3333333s" begin="0s" xlink:href="#_R_G_L_0_G" fill="white" attributeName="transform" from="245.367 539.639" to="245.367 539.639" type="translate" additive="sum" keyTimes="0;1" values="245.367 539.639;245.367 539.639" keySplines="0 0 1 1" calcMode="spline"/><animate attributeType="XML" attributeName="opacity" dur="1s" from="0" to="1" xlink:href="#time_group"/></defs><g id="_R_G"><g id="_R_G_L_1_G" transform=" translate(250, 250) scale(4.67, 4.67) translate(245.367, 539.639)"><g id="_R_G_L_1_G_D_0_P_0_G_0_T_0" transform=" translate(-245.367, -507.385)"><path id="_R_G_L_1_G_D_0_P_0" stroke="white" stroke-linecap="round" stroke-linejoin="round" fill="none" stroke-width="1.832" stroke-opacity="1" d=" M47.23 0 C47.23,7.36 26.08,13.32 0,13.32 C-26.08,13.32 -47.23,7.36 -47.23,0 C-47.23,-7.36 -26.08,-13.32 0,-13.32 C26.08,-13.32 47.23,-7.36 47.23,0z "/></g><g id="_R_G_L_1_G_D_1_P_0_G_0_T_0" transform=" translate(-245.367, -507.385)"><path id="_R_G_L_1_G_D_1_P_0" stroke="white" stroke-linecap="round" stroke-linejoin="round" fill="none" stroke-width="1.832" stroke-opacity="1" d=" M33.06 0 C33.06,5.15 18.26,9.32 0,9.32 C-18.26,9.32 -33.06,5.15 -33.06,0 C-33.06,-5.15 -18.26,-9.32 0,-9.32 C18.26,-9.32 33.06,-5.15 33.06,0z "/></g><g id="_R_G_L_1_G_D_2_P_0_G_0_T_0" transform=" translate(-245.367, -507.385)"><path id="_R_G_L_1_G_D_2_P_0" stroke="white" stroke-linecap="round" stroke-linejoin="round" fill="none" stroke-width="1.832" stroke-opacity="1" d=" M16.53 0 C16.53,2.58 9.13,4.66 0,4.66 C-9.13,4.66 -16.53,2.58 -16.53,0 C-16.53,-2.57 -9.13,-4.66 0,-4.66 C9.13,-4.66 16.53,-2.57 16.53,0z "/></g><g id="_R_G_L_1_G_D_3_P_0_G_0_T_0" transform=" translate(-245.367, -507.385)"><path id="_R_G_L_1_G_D_3_P_0" stroke="white" stroke-linecap="round" stroke-linejoin="round" fill="none" stroke-width="1.832" stroke-opacity="1" d=" M4.13 0 C4.13,0.64 2.28,1.17 0,1.17 C-2.28,1.17 -4.13,0.64 -4.13,0 C-4.13,-0.64 -2.28,-1.17 0,-1.17 C2.28,-1.17 4.13,-0.64 4.13,0z "/></g></g><g id="_R_G_L_0_G"><path id="_R_G_L_0_G_D_0_P_0" stroke="white" stroke-linecap="round" stroke-linejoin="round" fill="none" stroke-width="2" stroke-opacity="1" d=" M-224.67 -564.52 C-224.67,-553.09 -245.37,-524.83 -245.37,-524.83 C-245.37,-524.83 -266.06,-553.09 -266.06,-564.52 C-266.06,-575.95 -256.8,-585.21 -245.37,-585.21 C-233.94,-585.21 -224.67,-575.95 -224.67,-564.52z "/><path id="_R_G_L_0_G_D_1_P_0" stroke="white" stroke-linecap="round" stroke-linejoin="round" fill="none" stroke-width="1.832" stroke-opacity="1" d=" M-239.09 -564.52 C-239.09,-561.05 -241.9,-558.24 -245.37,-558.24 C-248.83,-558.24 -251.64,-561.05 -251.64,-564.52 C-251.64,-567.98 -248.83,-570.8 -245.37,-570.8 C-241.9,-570.8 -239.09,-567.98 -239.09,-564.52z "/></g></g><g id="time_group"/></svg>