<svg xmlns="http://www.w3.org/2000/svg" xmlns:xlink="http://www.w3.org/1999/xlink" preserveAspectRatio="xMidYMid meet" width="500" height="500" viewBox="0 0 500 500" style="width:100%;height:100%"><defs><animateMotion repeatCount="indefinite" dur="2.5s" begin="0s" xlink:href="#_R_G_L_5_G" fill="freeze" keyTimes="0;0.64;0.6933333;1" path="M140.38 230.75 C140.38,230.75 140.38,230.75 140.38,230.75 C140.46,235.19 140.79,252.94 140.88,257.38 C140.88,257.38 140.88,257.38 140.88,257.38 " keyPoints="0;0;1;1" keySplines="0.33 0 0.25 1;0.33 0 0.25 1;0 0 0 0" calcMode="spline"/><animateTransform repeatCount="indefinite" dur="2.5s" begin="0s" xlink:href="#_R_G_L_5_G" fill="freeze" attributeName="transform" from="1.97 1.97" to="1.97 1.97" type="scale" additive="sum" keyTimes="0;1" values="1.97 1.97;1.97 1.97" keySplines="0 0 1 1" calcMode="spline"/><animateTransform repeatCount="indefinite" dur="2.5s" begin="0s" xlink:href="#_R_G_L_5_G" fill="freeze" attributeName="transform" from="94.25 -19.75" to="94.25 -19.75" type="translate" additive="sum" keyTimes="0;1" values="94.25 -19.75;94.25 -19.75" keySplines="0 0 1 1" calcMode="spline"/><animate repeatCount="indefinite" dur="2.5s" begin="0s" xlink:href="#_R_G_L_5_G_M" fill="freeze" attributeName="opacity" from="0" to="0" keyTimes="0;0.64;0.6400013;0.7333333;0.7333333;1" values="0;0;1;1;0;0" keySplines="0 0 0 0;0 0 0 0;0 0 0 0;0 0 0 0;0 0 0 0" calcMode="spline"/><animateMotion repeatCount="indefinite" dur="2.5s" begin="0s" xlink:href="#_R_G_L_4_G_N_7_T_0" fill="freeze" keyTimes="0;0.64;0.6933333;1" path="M140.38 230.75 C140.38,230.75 140.38,230.75 140.38,230.75 C140.46,235.19 140.79,252.94 140.88,257.38 C140.88,257.38 140.88,257.38 140.88,257.38 " keyPoints="0;0;1;1" keySplines="0.33 0 0.25 1;0.33 0 0.25 1;0 0 0 0" calcMode="spline"/><animateTransform repeatCount="indefinite" dur="2.5s" begin="0s" xlink:href="#_R_G_L_4_G_N_7_T_0" fill="freeze" attributeName="transform" from="1.97 1.97" to="1.97 1.97" type="scale" additive="sum" keyTimes="0;1" values="1.97 1.97;1.97 1.97" keySplines="0 0 1 1" calcMode="spline"/><animateTransform repeatCount="indefinite" dur="2.5s" begin="0s" xlink:href="#_R_G_L_4_G_N_7_T_0" fill="freeze" attributeName="transform" from="94.25 -19.75" to="94.25 -19.75" type="translate" additive="sum" keyTimes="0;1" values="94.25 -19.75;94.25 -19.75" keySplines="0 0 1 1" calcMode="spline"/><animate repeatCount="indefinite" dur="2.5s" begin="0s" xlink:href="#_R_G_L_4_G_N_7_T_0_M" fill="freeze" attributeName="opacity" from="0" to="0" keyTimes="0;0.64;0.6400013;0.7333333;0.7333333;1" values="0;0;1;1;0;0" keySplines="0 0 0 0;0 0 0 0;0 0 0 0;0 0 0 0;0 0 0 0" calcMode="spline"/><animateMotion repeatCount="indefinite" dur="2.5s" begin="0s" xlink:href="#_R_G_L_3_G" fill="freeze" keyTimes="0;0.8;0.8533333;1" path="M140.38 230.75 C140.38,230.75 140.38,230.75 140.38,230.75 C140.46,235.19 140.79,252.94 140.88,257.38 C140.88,257.38 140.88,257.38 140.88,257.38 " keyPoints="0;0;1;1" keySplines="0.33 0 0.25 1;0.33 0 0.25 1;0 0 0 0" calcMode="spline"/><animateTransform repeatCount="indefinite" dur="2.5s" begin="0s" xlink:href="#_R_G_L_3_G" fill="freeze" attributeName="transform" from="1.97 1.97" to="1.97 1.97" type="scale" additive="sum" keyTimes="0;1" values="1.97 1.97;1.97 1.97" keySplines="0 0 1 1" calcMode="spline"/><animateTransform repeatCount="indefinite" dur="2.5s" begin="0s" xlink:href="#_R_G_L_3_G" fill="freeze" attributeName="transform" from="94.25 -19.75" to="94.25 -19.75" type="translate" additive="sum" keyTimes="0;1" values="94.25 -19.75;94.25 -19.75" keySplines="0 0 1 1" calcMode="spline"/><animate repeatCount="indefinite" dur="2.5s" begin="0s" xlink:href="#_R_G_L_3_G_M" fill="freeze" attributeName="opacity" from="0" to="0" keyTimes="0;0.8;0.8000013;0.8933333;0.8933333;1" values="0;0;1;1;0;0" keySplines="0 0 0 0;0 0 0 0;0 0 0 0;0 0 0 0;0 0 0 0" calcMode="spline"/><animateMotion repeatCount="indefinite" dur="2.5s" begin="0s" xlink:href="#_R_G_L_2_G_N_5_T_0" fill="freeze" keyTimes="0;0.8;0.8533333;1" path="M140.38 230.75 C140.38,230.75 140.38,230.75 140.38,230.75 C140.46,235.19 140.79,252.94 140.88,257.38 C140.88,257.38 140.88,257.38 140.88,257.38 " keyPoints="0;0;1;1" keySplines="0.33 0 0.25 1;0.33 0 0.25 1;0 0 0 0" calcMode="spline"/><animateTransform repeatCount="indefinite" dur="2.5s" begin="0s" xlink:href="#_R_G_L_2_G_N_5_T_0" fill="freeze" attributeName="transform" from="1.97 1.97" to="1.97 1.97" type="scale" additive="sum" keyTimes="0;1" values="1.97 1.97;1.97 1.97" keySplines="0 0 1 1" calcMode="spline"/><animateTransform repeatCount="indefinite" dur="2.5s" begin="0s" xlink:href="#_R_G_L_2_G_N_5_T_0" fill="freeze" attributeName="transform" from="94.25 -19.75" to="94.25 -19.75" type="translate" additive="sum" keyTimes="0;1" values="94.25 -19.75;94.25 -19.75" keySplines="0 0 1 1" calcMode="spline"/><animate repeatCount="indefinite" dur="2.5s" begin="0s" xlink:href="#_R_G_L_2_G_N_5_T_0_M" fill="freeze" attributeName="opacity" from="0" to="0" keyTimes="0;0.8;0.8000013;0.8933333;0.8933333;1" values="0;0;1;1;0;0" keySplines="0 0 0 0;0 0 0 0;0 0 0 0;0 0 0 0;0 0 0 0" calcMode="spline"/><animateMotion repeatCount="indefinite" dur="2.5s" begin="0s" xlink:href="#_R_G_L_1_G" fill="freeze" keyTimes="0;0.0533333;0.12;0.2;0.2533333;0.32556;0.4351867;0.5174133;0.6133333;1" path="M279 144.5 C279,144.5 279,144.5 279,144.5 C278.83,149.33 270.69,163.84 278,173.5 C285.75,183.74 309.75,188.36 324.48,183.21 C339.21,178.06 364.12,155.39 366.37,142.59 C368.63,129.78 349.88,112.23 338.01,106.36 C326.13,100.49 303.35,98.79 295.1,107.36 C283.89,119 283.07,133.76 276.79,143.16 C270.5,152.57 260.61,160.35 257.37,163.79 C257.37,163.79 257.37,163.79 257.37,163.79 " keyPoints="0;0;0.1;0.26;0.46;0.62;0.77;0.91;1;1" keySplines="0.167 0.167 0.833 0.833;0.167 0.167 0.833 0.833;0.167 0.167 0.833 0.833;0.167 0.167 0.833 0.833;0.167 0.167 0.833 0.833;0.167 0.167 0.833 0.833;0.167 0.167 0.833 0.833;0.167 0.167 0.833 0.833;0 0 0 0" calcMode="spline"/><animateTransform repeatCount="indefinite" dur="2.5s" begin="0s" xlink:href="#_R_G_L_1_G" fill="freeze" attributeName="transform" from="0.52 0.52" to="0.52 0.52" type="scale" additive="sum" keyTimes="0;1" values="0.52 0.52;0.52 0.52" keySplines="0 0 1 1" calcMode="spline"/><animateTransform repeatCount="indefinite" dur="2.5s" begin="0s" xlink:href="#_R_G_L_1_G" fill="freeze" attributeName="transform" from="-305.171 -81.261" to="-305.171 -81.261" type="translate" additive="sum" keyTimes="0;1" values="-305.171 -81.261;-305.171 -81.261" keySplines="0 0 1 1" calcMode="spline"/><animate attributeType="XML" attributeName="opacity" dur="3s" from="0" to="1" xlink:href="#time_group"/></defs><g id="_R_G"><g id="_R_G_L_5_G_M"><g id="_R_G_L_5_G" opacity="0.3"><path id="_R_G_L_5_G_D_0_P_0" fill="#8395a7" fill-opacity="1" fill-rule="nonzero" d=" M-94.25 6.25 C-86.8,6.25 -80.75,12.3 -80.75,19.75 C-80.75,27.2 -86.8,33.25 -94.25,33.25 C-101.7,33.25 -107.75,27.2 -107.75,19.75 C-107.75,12.3 -101.7,6.25 -94.25,6.25z "/></g></g><g id="_R_G_L_4_G_N_7_T_0_M"><g id="_R_G_L_4_G_N_7_T_0"><g id="_R_G_L_4_G" transform=" translate(-94.504, 19.75) rotate(-2) scale(0.35533000000000003, 0.35533000000000003) translate(-82.662, -262.585)"><path id="_R_G_L_4_G_D_0_P_0" stroke="#ffffff" stroke-linecap="round" stroke-linejoin="round" fill="none" stroke-width="4" stroke-opacity="1" d=" M51.74 256.83 C51.74,256.83 52.3,269.17 52.3,269.17 "/><path id="_R_G_L_4_G_D_1_P_0" stroke="#ffffff" stroke-linecap="round" stroke-linejoin="round" fill="none" stroke-width="4" stroke-opacity="1" d=" M59.37 247.98 C59.37,247.98 59.74,256.09 59.74,256.09 "/><path id="_R_G_L_4_G_D_2_P_0" stroke="#ffffff" stroke-linecap="round" stroke-linejoin="round" fill="none" stroke-width="4" stroke-opacity="1" d=" M60.04 262.74 C60.04,262.74 60.66,276.55 60.66,276.55 "/><path id="_R_G_L_4_G_D_3_P_0" stroke="#ffffff" stroke-linecap="round" stroke-linejoin="round" fill="none" stroke-width="4" stroke-opacity="1" d=" M67.7 275.62 C67.7,275.62 68.32,289.43 68.32,289.43 "/><path id="_R_G_L_4_G_D_4_P_0" stroke="#ffffff" stroke-linecap="round" stroke-linejoin="round" fill="none" stroke-width="4" stroke-opacity="1" d=" M51.47 250.7 C51.47,250.7 51.52,251.91 51.52,251.91 "/><path id="_R_G_L_4_G_D_5_P_0" stroke="#ffffff" stroke-linecap="round" stroke-linejoin="round" fill="none" stroke-width="4" stroke-opacity="1" d=" M59.01 239.84 C59.01,239.84 59.11,242.09 59.11,242.09 "/><path id="_R_G_L_4_G_D_6_P_0" stroke="#ffffff" stroke-linecap="round" stroke-linejoin="round" fill="none" stroke-width="4" stroke-opacity="1" d=" M66.18 241.77 C66.18,241.77 66.63,251.88 66.63,251.88 "/><path id="_R_G_L_4_G_D_7_P_0" stroke="#ffffff" stroke-linecap="round" stroke-linejoin="round" fill="none" stroke-width="4" stroke-opacity="1" d=" M66.91 258.17 C66.91,258.17 67.37,268.28 67.37,268.28 "/><path id="_R_G_L_4_G_D_8_P_0" stroke="#ffffff" stroke-linecap="round" stroke-linejoin="round" fill="none" stroke-width="4" stroke-opacity="1" d=" M65.86 234.76 C65.86,234.76 65.91,235.88 65.91,235.88 "/><path id="_R_G_L_4_G_D_9_P_0" stroke="#ffffff" stroke-linecap="round" stroke-linejoin="round" fill="none" stroke-width="4" stroke-opacity="1" d=" M101.35 274.11 C101.35,274.11 101.97,287.91 101.97,287.91 "/><path id="_R_G_L_4_G_D_10_P_0" stroke="#ffffff" stroke-linecap="round" stroke-linejoin="round" fill="none" stroke-width="4" stroke-opacity="1" d=" M100.02 244.66 C100.02,244.66 100.28,250.36 100.28,250.36 "/><path id="_R_G_L_4_G_D_11_P_0" stroke="#ffffff" stroke-linecap="round" stroke-linejoin="round" fill="none" stroke-width="4" stroke-opacity="1" d=" M107.27 256.36 C107.27,256.36 107.52,262.06 107.52,262.06 "/><path id="_R_G_L_4_G_D_12_P_0" stroke="#ffffff" stroke-linecap="round" stroke-linejoin="round" fill="none" stroke-width="4" stroke-opacity="1" d=" M100.56 256.66 C100.56,256.66 101.02,266.77 101.02,266.77 "/><path id="_R_G_L_4_G_D_13_P_0" stroke="#ffffff" stroke-linecap="round" stroke-linejoin="round" fill="none" stroke-width="4" stroke-opacity="1" d=" M107.8 268.12 C107.8,268.12 108.42,281.92 108.42,281.92 "/><path id="_R_G_L_4_G_D_14_P_0" stroke="#ffffff" stroke-linecap="round" stroke-linejoin="round" fill="none" stroke-width="4" stroke-opacity="1" d=" M106.57 240.79 C106.57,240.79 107.02,250.9 107.02,250.9 "/><path id="_R_G_L_4_G_D_15_P_0" stroke="#ffffff" stroke-linecap="round" stroke-linejoin="round" fill="none" stroke-width="4" stroke-opacity="1" d=" M99.59 234.95 C99.59,234.95 99.8,239.8 99.8,239.8 "/><path id="_R_G_L_4_G_D_16_P_0" stroke="#ffffff" stroke-linecap="round" stroke-linejoin="round" fill="none" stroke-width="4" stroke-opacity="1" d=" M75.01 280.8 C75.01,280.8 75.63,294.61 75.63,294.61 "/><path id="_R_G_L_4_G_D_17_P_0" stroke="#ffffff" stroke-linecap="round" stroke-linejoin="round" fill="none" stroke-width="4" stroke-opacity="1" d=" M73.15 239.45 C73.15,239.45 73.7,251.56 73.7,251.56 "/><path id="_R_G_L_4_G_D_18_P_0" stroke="#ffffff" stroke-linecap="round" stroke-linejoin="round" fill="none" stroke-width="4" stroke-opacity="1" d=" M74 258.26 C74,258.26 74.75,274.89 74.75,274.89 "/><path id="_R_G_L_4_G_D_19_P_0" stroke="#ffffff" stroke-linecap="round" stroke-linejoin="round" fill="none" stroke-width="4" stroke-opacity="1" d=" M72.79 231.3 C72.79,231.3 72.84,232.43 72.84,232.43 "/><path id="_R_G_L_4_G_D_20_P_0" stroke="#ffffff" stroke-linecap="round" stroke-linejoin="round" fill="none" stroke-width="4" stroke-opacity="1" d=" M93.01 244.23 C93.01,244.23 92.45,231.78 92.45,231.78 "/><path id="_R_G_L_4_G_D_21_P_0" stroke="#ffffff" stroke-linecap="round" stroke-linejoin="round" fill="none" stroke-width="4" stroke-opacity="1" d=" M94.87 285.58 C94.87,285.58 94.33,273.47 94.33,273.47 "/><path id="_R_G_L_4_G_D_22_P_0" stroke="#ffffff" stroke-linecap="round" stroke-linejoin="round" fill="none" stroke-width="4" stroke-opacity="1" d=" M94.03 266.77 C94.03,266.77 93.28,250.14 93.28,250.14 "/><path id="_R_G_L_4_G_D_23_P_0" stroke="#ffffff" stroke-linecap="round" stroke-linejoin="round" fill="none" stroke-width="4" stroke-opacity="1" d=" M95.24 293.73 C95.24,293.73 95.19,292.6 95.19,292.6 "/><path id="_R_G_L_4_G_D_24_P_0" stroke="#ffffff" stroke-linecap="round" stroke-linejoin="round" fill="none" stroke-width="4" stroke-opacity="1" d=" M81.74 285.43 C81.74,285.43 82.18,295.28 82.18,295.28 "/><path id="_R_G_L_4_G_D_25_P_0" stroke="#ffffff" stroke-linecap="round" stroke-linejoin="round" fill="none" stroke-width="4" stroke-opacity="1" d=" M79.7 240.04 C79.7,240.04 79.94,245.57 79.94,245.57 "/><path id="_R_G_L_4_G_D_26_P_0" stroke="#ffffff" stroke-linecap="round" stroke-linejoin="round" fill="none" stroke-width="4" stroke-opacity="1" d=" M80.26 252.55 C80.26,252.55 81.44,278.73 81.44,278.73 "/><path id="_R_G_L_4_G_D_27_P_0" stroke="#ffffff" stroke-linecap="round" stroke-linejoin="round" fill="none" stroke-width="4" stroke-opacity="1" d=" M79.24 229.89 C79.24,229.89 79.41,233.61 79.41,233.61 "/><path id="_R_G_L_4_G_D_28_P_0" stroke="#ffffff" stroke-linecap="round" stroke-linejoin="round" fill="none" stroke-width="4" stroke-opacity="1" d=" M113.12 258.7 C113.12,258.7 113.53,267.86 113.53,267.86 "/><path id="_R_G_L_4_G_D_29_P_0" stroke="#ffffff" stroke-linecap="round" stroke-linejoin="round" fill="none" stroke-width="4" stroke-opacity="1" d=" M113.79 273.55 C113.79,273.55 113.86,275.17 113.86,275.17 "/><path id="_R_G_L_4_G_D_30_P_0" stroke="#ffffff" stroke-linecap="round" stroke-linejoin="round" fill="none" stroke-width="4" stroke-opacity="1" d=" M112.66 248.56 C112.66,248.56 112.83,252.27 112.83,252.27 "/><path id="_R_G_L_4_G_D_31_P_0" stroke="#ffffff" stroke-linecap="round" stroke-linejoin="round" fill="none" stroke-width="4" stroke-opacity="1" d=" M88.21 280.21 C88.21,280.21 88.84,294.26 88.84,294.26 "/><path id="_R_G_L_4_G_D_32_P_0" stroke="#ffffff" stroke-linecap="round" stroke-linejoin="round" fill="none" stroke-width="4" stroke-opacity="1" d=" M86.74 247.62 C86.74,247.62 87.1,255.49 87.1,255.49 "/><path id="_R_G_L_4_G_D_33_P_0" stroke="#ffffff" stroke-linecap="round" stroke-linejoin="round" fill="none" stroke-width="4" stroke-opacity="1" d=" M87.4 262.32 C87.4,262.32 87.9,273.37 87.9,273.37 "/><path id="_R_G_L_4_G_D_34_P_0" stroke="#ffffff" stroke-linecap="round" stroke-linejoin="round" fill="none" stroke-width="4" stroke-opacity="1" d=" M85.98 230.71 C85.98,230.71 86.42,240.4 86.42,240.4 "/><path id="_R_G_L_4_G_D_35_P_0" stroke="#ffffff" stroke-linecap="round" stroke-linejoin="round" fill="none" stroke-width="4" stroke-opacity="1" d=" M52.51 273.96 C52.51,273.96 52.55,274.73 52.55,274.73 "/><path id="_R_G_L_4_G_D_36_P_0" stroke="#ffffff" stroke-linecap="round" stroke-linejoin="round" fill="none" stroke-width="4" stroke-opacity="1" d=" M61.01 284.51 C61.01,284.51 61.05,285.27 61.05,285.27 "/></g></g></g><g id="_R_G_L_3_G_M"><g id="_R_G_L_3_G" opacity="0.3"><path id="_R_G_L_3_G_D_0_P_0" fill="#8395a7" fill-opacity="1" fill-rule="nonzero" d=" M-94.25 6.25 C-86.8,6.25 -80.75,12.3 -80.75,19.75 C-80.75,27.2 -86.8,33.25 -94.25,33.25 C-101.7,33.25 -107.75,27.2 -107.75,19.75 C-107.75,12.3 -101.7,6.25 -94.25,6.25z "/></g></g><g id="_R_G_L_2_G_N_5_T_0_M"><g id="_R_G_L_2_G_N_5_T_0"><g id="_R_G_L_2_G" transform=" translate(-94.504, 19.75) rotate(-2) scale(0.35533000000000003, 0.35533000000000003) translate(-82.662, -262.585)"><path id="_R_G_L_2_G_D_0_P_0" stroke="#ffffff" stroke-linecap="round" stroke-linejoin="round" fill="none" stroke-width="4" stroke-opacity="1" d=" M51.74 256.83 C51.74,256.83 52.3,269.17 52.3,269.17 "/><path id="_R_G_L_2_G_D_1_P_0" stroke="#ffffff" stroke-linecap="round" stroke-linejoin="round" fill="none" stroke-width="4" stroke-opacity="1" d=" M59.37 247.98 C59.37,247.98 59.74,256.09 59.74,256.09 "/><path id="_R_G_L_2_G_D_2_P_0" stroke="#ffffff" stroke-linecap="round" stroke-linejoin="round" fill="none" stroke-width="4" stroke-opacity="1" d=" M60.04 262.74 C60.04,262.74 60.66,276.55 60.66,276.55 "/><path id="_R_G_L_2_G_D_3_P_0" stroke="#ffffff" stroke-linecap="round" stroke-linejoin="round" fill="none" stroke-width="4" stroke-opacity="1" d=" M67.7 275.62 C67.7,275.62 68.32,289.43 68.32,289.43 "/><path id="_R_G_L_2_G_D_4_P_0" stroke="#ffffff" stroke-linecap="round" stroke-linejoin="round" fill="none" stroke-width="4" stroke-opacity="1" d=" M51.47 250.7 C51.47,250.7 51.52,251.91 51.52,251.91 "/><path id="_R_G_L_2_G_D_5_P_0" stroke="#ffffff" stroke-linecap="round" stroke-linejoin="round" fill="none" stroke-width="4" stroke-opacity="1" d=" M59.01 239.84 C59.01,239.84 59.11,242.09 59.11,242.09 "/><path id="_R_G_L_2_G_D_6_P_0" stroke="#ffffff" stroke-linecap="round" stroke-linejoin="round" fill="none" stroke-width="4" stroke-opacity="1" d=" M66.18 241.77 C66.18,241.77 66.63,251.88 66.63,251.88 "/><path id="_R_G_L_2_G_D_7_P_0" stroke="#ffffff" stroke-linecap="round" stroke-linejoin="round" fill="none" stroke-width="4" stroke-opacity="1" d=" M66.91 258.17 C66.91,258.17 67.37,268.28 67.37,268.28 "/><path id="_R_G_L_2_G_D_8_P_0" stroke="#ffffff" stroke-linecap="round" stroke-linejoin="round" fill="none" stroke-width="4" stroke-opacity="1" d=" M65.86 234.76 C65.86,234.76 65.91,235.88 65.91,235.88 "/><path id="_R_G_L_2_G_D_9_P_0" stroke="#ffffff" stroke-linecap="round" stroke-linejoin="round" fill="none" stroke-width="4" stroke-opacity="1" d=" M101.35 274.11 C101.35,274.11 101.97,287.91 101.97,287.91 "/><path id="_R_G_L_2_G_D_10_P_0" stroke="#ffffff" stroke-linecap="round" stroke-linejoin="round" fill="none" stroke-width="4" stroke-opacity="1" d=" M100.02 244.66 C100.02,244.66 100.28,250.36 100.28,250.36 "/><path id="_R_G_L_2_G_D_11_P_0" stroke="#ffffff" stroke-linecap="round" stroke-linejoin="round" fill="none" stroke-width="4" stroke-opacity="1" d=" M107.27 256.36 C107.27,256.36 107.52,262.06 107.52,262.06 "/><path id="_R_G_L_2_G_D_12_P_0" stroke="#ffffff" stroke-linecap="round" stroke-linejoin="round" fill="none" stroke-width="4" stroke-opacity="1" d=" M100.56 256.66 C100.56,256.66 101.02,266.77 101.02,266.77 "/><path id="_R_G_L_2_G_D_13_P_0" stroke="#ffffff" stroke-linecap="round" stroke-linejoin="round" fill="none" stroke-width="4" stroke-opacity="1" d=" M107.8 268.12 C107.8,268.12 108.42,281.92 108.42,281.92 "/><path id="_R_G_L_2_G_D_14_P_0" stroke="#ffffff" stroke-linecap="round" stroke-linejoin="round" fill="none" stroke-width="4" stroke-opacity="1" d=" M106.57 240.79 C106.57,240.79 107.02,250.9 107.02,250.9 "/><path id="_R_G_L_2_G_D_15_P_0" stroke="#ffffff" stroke-linecap="round" stroke-linejoin="round" fill="none" stroke-width="4" stroke-opacity="1" d=" M99.59 234.95 C99.59,234.95 99.8,239.8 99.8,239.8 "/><path id="_R_G_L_2_G_D_16_P_0" stroke="#ffffff" stroke-linecap="round" stroke-linejoin="round" fill="none" stroke-width="4" stroke-opacity="1" d=" M75.01 280.8 C75.01,280.8 75.63,294.61 75.63,294.61 "/><path id="_R_G_L_2_G_D_17_P_0" stroke="#ffffff" stroke-linecap="round" stroke-linejoin="round" fill="none" stroke-width="4" stroke-opacity="1" d=" M73.15 239.45 C73.15,239.45 73.7,251.56 73.7,251.56 "/><path id="_R_G_L_2_G_D_18_P_0" stroke="#ffffff" stroke-linecap="round" stroke-linejoin="round" fill="none" stroke-width="4" stroke-opacity="1" d=" M74 258.26 C74,258.26 74.75,274.89 74.75,274.89 "/><path id="_R_G_L_2_G_D_19_P_0" stroke="#ffffff" stroke-linecap="round" stroke-linejoin="round" fill="none" stroke-width="4" stroke-opacity="1" d=" M72.79 231.3 C72.79,231.3 72.84,232.43 72.84,232.43 "/><path id="_R_G_L_2_G_D_20_P_0" stroke="#ffffff" stroke-linecap="round" stroke-linejoin="round" fill="none" stroke-width="4" stroke-opacity="1" d=" M93.01 244.23 C93.01,244.23 92.45,231.78 92.45,231.78 "/><path id="_R_G_L_2_G_D_21_P_0" stroke="#ffffff" stroke-linecap="round" stroke-linejoin="round" fill="none" stroke-width="4" stroke-opacity="1" d=" M94.87 285.58 C94.87,285.58 94.33,273.47 94.33,273.47 "/><path id="_R_G_L_2_G_D_22_P_0" stroke="#ffffff" stroke-linecap="round" stroke-linejoin="round" fill="none" stroke-width="4" stroke-opacity="1" d=" M94.03 266.77 C94.03,266.77 93.28,250.14 93.28,250.14 "/><path id="_R_G_L_2_G_D_23_P_0" stroke="#ffffff" stroke-linecap="round" stroke-linejoin="round" fill="none" stroke-width="4" stroke-opacity="1" d=" M95.24 293.73 C95.24,293.73 95.19,292.6 95.19,292.6 "/><path id="_R_G_L_2_G_D_24_P_0" stroke="#ffffff" stroke-linecap="round" stroke-linejoin="round" fill="none" stroke-width="4" stroke-opacity="1" d=" M81.74 285.43 C81.74,285.43 82.18,295.28 82.18,295.28 "/><path id="_R_G_L_2_G_D_25_P_0" stroke="#ffffff" stroke-linecap="round" stroke-linejoin="round" fill="none" stroke-width="4" stroke-opacity="1" d=" M79.7 240.04 C79.7,240.04 79.94,245.57 79.94,245.57 "/><path id="_R_G_L_2_G_D_26_P_0" stroke="#ffffff" stroke-linecap="round" stroke-linejoin="round" fill="none" stroke-width="4" stroke-opacity="1" d=" M80.26 252.55 C80.26,252.55 81.44,278.73 81.44,278.73 "/><path id="_R_G_L_2_G_D_27_P_0" stroke="#ffffff" stroke-linecap="round" stroke-linejoin="round" fill="none" stroke-width="4" stroke-opacity="1" d=" M79.24 229.89 C79.24,229.89 79.41,233.61 79.41,233.61 "/><path id="_R_G_L_2_G_D_28_P_0" stroke="#ffffff" stroke-linecap="round" stroke-linejoin="round" fill="none" stroke-width="4" stroke-opacity="1" d=" M113.12 258.7 C113.12,258.7 113.53,267.86 113.53,267.86 "/><path id="_R_G_L_2_G_D_29_P_0" stroke="#ffffff" stroke-linecap="round" stroke-linejoin="round" fill="none" stroke-width="4" stroke-opacity="1" d=" M113.79 273.55 C113.79,273.55 113.86,275.17 113.86,275.17 "/><path id="_R_G_L_2_G_D_30_P_0" stroke="#ffffff" stroke-linecap="round" stroke-linejoin="round" fill="none" stroke-width="4" stroke-opacity="1" d=" M112.66 248.56 C112.66,248.56 112.83,252.27 112.83,252.27 "/><path id="_R_G_L_2_G_D_31_P_0" stroke="#ffffff" stroke-linecap="round" stroke-linejoin="round" fill="none" stroke-width="4" stroke-opacity="1" d=" M88.21 280.21 C88.21,280.21 88.84,294.26 88.84,294.26 "/><path id="_R_G_L_2_G_D_32_P_0" stroke="#ffffff" stroke-linecap="round" stroke-linejoin="round" fill="none" stroke-width="4" stroke-opacity="1" d=" M86.74 247.62 C86.74,247.62 87.1,255.49 87.1,255.49 "/><path id="_R_G_L_2_G_D_33_P_0" stroke="#ffffff" stroke-linecap="round" stroke-linejoin="round" fill="none" stroke-width="4" stroke-opacity="1" d=" M87.4 262.32 C87.4,262.32 87.9,273.37 87.9,273.37 "/><path id="_R_G_L_2_G_D_34_P_0" stroke="#ffffff" stroke-linecap="round" stroke-linejoin="round" fill="none" stroke-width="4" stroke-opacity="1" d=" M85.98 230.71 C85.98,230.71 86.42,240.4 86.42,240.4 "/><path id="_R_G_L_2_G_D_35_P_0" stroke="#ffffff" stroke-linecap="round" stroke-linejoin="round" fill="none" stroke-width="4" stroke-opacity="1" d=" M52.51 273.96 C52.51,273.96 52.55,274.73 52.55,274.73 "/><path id="_R_G_L_2_G_D_36_P_0" stroke="#ffffff" stroke-linecap="round" stroke-linejoin="round" fill="none" stroke-width="4" stroke-opacity="1" d=" M61.01 284.51 C61.01,284.51 61.05,285.27 61.05,285.27 "/></g></g></g><g id="_R_G_L_1_G"><path id="_R_G_L_1_G_D_0_P_0" fill="#ffffff" fill-opacity="1" fill-rule="nonzero" d=" M595.08 -500.95 C595.08,-500.95 504.69,-124.03 504.69,-124.03 C504.69,-124.03 313.83,7.7 313.83,7.7 C313.83,7.7 315.27,67.8 315.27,67.8 C315.27,67.8 579.21,-66.33 579.21,-66.33 C579.21,-66.33 709.98,-482.2 709.98,-482.2 C709.98,-482.2 595.08,-500.95 595.08,-500.95z "/><path id="_R_G_L_1_G_D_1_P_0" fill="#ffffff" fill-opacity="1" fill-rule="nonzero" d=" M300.6 145.2 C300.6,145.2 220.8,182.22 220.8,182.22 C220.8,182.22 266.95,234.63 266.95,234.63 C266.95,234.63 247,250.25 247,250.25 C247,250.25 222.81,271.19 229.21,312.75 C233.06,337.75 257.82,352.42 272.96,359.15 C303.81,372.86 376.81,337.51 376.81,337.51 C376.81,337.51 367.19,305.3 367.19,305.3 C367.19,305.3 271.04,346.17 265.27,305.3 C259.5,264.44 287.38,269.72 287.38,269.72 C287.38,269.72 367.91,257.94 367.91,257.94 C367.91,257.94 334.74,165.64 334.74,165.64 C334.74,165.64 322.39,147.97 322.39,147.97 C322.39,147.97 300.6,145.2 300.6,145.2z "/><path id="_R_G_L_1_G_D_2_P_0" stroke="#8395a7" stroke-linecap="round" stroke-linejoin="round" fill="none" stroke-width="23" stroke-opacity="1" d=" M589.5 -501.5 C589.5,-501.5 510.5,-120.5 510.5,-120.5 C510.5,-120.5 313.5,13.5 313.5,13.5 "/><path id="_R_G_L_1_G_D_3_P_0" stroke="#8395a7" stroke-linecap="round" stroke-linejoin="round" fill="none" stroke-width="23" stroke-opacity="1" d=" M714.04 -480 C714.04,-480 584.5,-67.5 584.5,-67.5 C584.5,-67.5 313.5,71.48 313.5,71.48 "/><path id="_R_G_L_1_G_D_4_P_0" fill="#ffffff" fill-opacity="1" fill-rule="nonzero" d=" M232.23 189.5 C232.23,189.5 207.77,189.5 207.77,189.5 C165.82,189.5 131.5,155.18 131.5,113.23 C131.5,113.23 131.5,29.77 131.5,29.77 C131.5,-12.18 165.82,-46.5 207.77,-46.5 C207.77,-46.5 232.23,-46.5 232.23,-46.5 C274.18,-46.5 308.5,-12.18 308.5,29.77 C308.5,29.77 308.5,113.23 308.5,113.23 C308.5,155.18 274.18,189.5 232.23,189.5z "/><path id="_R_G_L_1_G_D_5_P_0" stroke="#8395a7" stroke-linecap="round" stroke-linejoin="round" fill="none" stroke-width="28.577" stroke-opacity="1" d=" M232.23 189.5 C232.23,189.5 207.77,189.5 207.77,189.5 C165.82,189.5 131.5,155.18 131.5,113.23 C131.5,113.23 131.5,29.77 131.5,29.77 C131.5,-12.18 165.82,-46.5 207.77,-46.5 C207.77,-46.5 232.23,-46.5 232.23,-46.5 C274.18,-46.5 308.5,-12.18 308.5,29.77 C308.5,29.77 308.5,113.23 308.5,113.23 C308.5,155.18 274.18,189.5 232.23,189.5z "/><path id="_R_G_L_1_G_D_6_P_0" stroke="#8395a7" stroke-linecap="round" stroke-linejoin="round" fill="none" stroke-width="23" stroke-opacity="1" d=" M201.28 71.48 C201.28,71.48 311.5,71.48 311.5,71.48 "/><path id="_R_G_L_1_G_D_7_P_0" fill="#ffffff" fill-opacity="1" fill-rule="nonzero" d=" M0.81 -68.42 C0.81,-68.42 6.43,57.46 6.43,57.46 C6.43,57.46 -12.69,58 -12.69,58 C-12.69,58 -12.53,203 -12.53,203 C-12.53,203 6.47,203 6.47,203 C6.47,203 8.47,240 8.47,240 C8.47,240 98.36,236.06 98.36,236.06 C98.36,236.06 96.47,200 96.47,200 C96.47,200 114.67,198.51 114.67,198.51 C114.67,198.51 95.57,53.8 95.57,53.8 C95.57,53.8 79.98,54.63 79.98,54.63 C79.98,54.63 69.47,-70 69.47,-70 C69.47,-70 0.81,-68.42 0.81,-68.42z "/><path id="_R_G_L_1_G_D_8_P_0" stroke="#8395a7" stroke-linecap="round" stroke-linejoin="round" fill="none" stroke-width="18" stroke-opacity="1" d=" M0.81 -68.42 C0.81,-68.42 6.43,57.46 6.43,57.46 C6.43,57.46 -12.69,58 -12.69,58 C-12.69,58 -12.53,203 -12.53,203 C-12.53,203 6.47,203 6.47,203 C6.47,203 8.47,240 8.47,240 C8.47,240 98.36,236.06 98.36,236.06 C98.36,236.06 96.47,200 96.47,200 C96.47,200 114.67,198.51 114.67,198.51 C114.67,198.51 95.57,53.8 95.57,53.8 C95.57,53.8 79.98,54.63 79.98,54.63 C79.98,54.63 69.47,-70 69.47,-70 C69.47,-70 0.81,-68.42 0.81,-68.42z "/><path id="_R_G_L_1_G_D_9_P_0" stroke="#8395a7" stroke-linecap="round" stroke-linejoin="round" fill="none" stroke-width="18" stroke-opacity="1" d=" M6.47 203 C6.47,203 96.47,200 96.47,200 "/><path id="_R_G_L_1_G_D_10_P_0" stroke="#8395a7" stroke-linecap="round" stroke-linejoin="round" fill="none" stroke-width="18" stroke-opacity="1" d=" M6.43 57.46 C6.43,57.46 79.98,54.63 79.98,54.63 "/><path id="_R_G_L_1_G_D_11_P_0" stroke="#8395a7" stroke-linecap="round" stroke-linejoin="round" fill="none" stroke-width="18" stroke-opacity="1" d=" M8.91 -33.19 C8.91,-33.19 66.62,-34.96 66.62,-34.96 "/><path id="_R_G_L_1_G_D_12_P_0" fill="#ffffff" fill-opacity="1" fill-rule="nonzero" d=" M27.85 -52.93 C27.85,-52.93 33.47,72.96 33.47,72.96 C33.47,72.96 14.34,73.5 14.34,73.5 C14.34,73.5 14.5,218.5 14.5,218.5 C14.5,218.5 33.5,218.5 33.5,218.5 C33.5,218.5 35.5,255.5 35.5,255.5 C35.5,255.5 125.39,251.55 125.39,251.55 C125.39,251.55 123.5,215.5 123.5,215.5 C123.5,215.5 141.7,214.01 141.7,214.01 C141.7,214.01 122.61,69.3 122.61,69.3 C122.61,69.3 107.01,70.13 107.01,70.13 C107.01,70.13 96.5,-54.5 96.5,-54.5 C96.5,-54.5 27.85,-52.93 27.85,-52.93z "/><path id="_R_G_L_1_G_D_13_P_0" stroke="#8395a7" stroke-linecap="round" stroke-linejoin="round" fill="none" stroke-width="18" stroke-opacity="1" d=" M27.85 -52.93 C27.85,-52.93 33.47,72.96 33.47,72.96 C33.47,72.96 14.34,73.5 14.34,73.5 C14.34,73.5 14.5,218.5 14.5,218.5 C14.5,218.5 33.5,218.5 33.5,218.5 C33.5,218.5 35.5,255.5 35.5,255.5 C35.5,255.5 125.39,251.55 125.39,251.55 C125.39,251.55 123.5,215.5 123.5,215.5 C123.5,215.5 141.7,214.01 141.7,214.01 C141.7,214.01 122.61,69.3 122.61,69.3 C122.61,69.3 107.01,70.13 107.01,70.13 C107.01,70.13 96.5,-54.5 96.5,-54.5 C96.5,-54.5 27.85,-52.93 27.85,-52.93z "/><path id="_R_G_L_1_G_D_14_P_0" stroke="#8395a7" stroke-linecap="round" stroke-linejoin="round" fill="none" stroke-width="18" stroke-opacity="1" d=" M33.5 218.5 C33.5,218.5 123.5,215.5 123.5,215.5 "/><path id="_R_G_L_1_G_D_15_P_0" stroke="#8395a7" stroke-linecap="round" stroke-linejoin="round" fill="none" stroke-width="18" stroke-opacity="1" d=" M33.46 72.96 C33.46,72.96 107.01,70.13 107.01,70.13 "/><path id="_R_G_L_1_G_D_16_P_0" stroke="#8395a7" stroke-linecap="round" stroke-linejoin="round" fill="none" stroke-width="18" stroke-opacity="1" d=" M36.19 -17.69 C36.19,-17.69 97.02,-19.46 97.02,-19.46 "/><path id="_R_G_L_1_G_D_17_P_0" fill="#ffffff" fill-opacity="1" fill-rule="nonzero" d=" M378.12 273.13 C378.12,273.13 340.51,284.24 340.51,284.24 C337.88,285.02 335.08,283.5 334.3,280.86 C334.3,280.86 301.98,171.46 301.98,171.46 C301.2,168.82 302.72,166.02 305.36,165.25 C305.36,165.25 342.97,154.14 342.97,154.14 C345.6,153.36 348.4,154.88 349.18,157.51 C349.18,157.51 381.5,266.92 381.5,266.92 C382.28,269.56 380.75,272.35 378.12,273.13z "/><path id="_R_G_L_1_G_D_18_P_0" stroke="#8395a7" stroke-linecap="round" stroke-linejoin="round" fill="none" stroke-width="15.82" stroke-opacity="1" d=" M378.12 273.13 C378.12,273.13 340.51,284.24 340.51,284.24 C337.88,285.02 335.08,283.5 334.3,280.86 C334.3,280.86 301.98,171.46 301.98,171.46 C301.2,168.82 302.72,166.02 305.36,165.25 C305.36,165.25 342.97,154.14 342.97,154.14 C345.6,153.36 348.4,154.88 349.18,157.51 C349.18,157.51 381.5,266.92 381.5,266.92 C382.28,269.56 380.75,272.35 378.12,273.13z "/><path id="_R_G_L_1_G_D_19_P_0" fill="#ffffff" fill-opacity="1" fill-rule="nonzero" d=" M371.23 350.46 C371.23,350.46 359.5,313.04 359.5,313.04 C358.68,310.42 360.16,307.6 362.78,306.77 C362.78,306.77 442.51,281.79 442.51,281.79 C445.13,280.96 447.95,282.44 448.78,285.06 C448.78,285.06 460.5,322.48 460.5,322.48 C461.32,325.1 459.85,327.92 457.23,328.75 C457.23,328.75 377.5,353.73 377.5,353.73 C374.87,354.55 372.05,353.08 371.23,350.46z "/><path id="_R_G_L_1_G_D_20_P_0" stroke="#8395a7" stroke-linecap="round" stroke-linejoin="round" fill="none" stroke-width="13.737" stroke-opacity="1" d=" M371.23 350.46 C371.23,350.46 359.5,313.04 359.5,313.04 C358.68,310.42 360.16,307.6 362.78,306.77 C362.78,306.77 442.51,281.79 442.51,281.79 C445.13,280.96 447.95,282.44 448.78,285.06 C448.78,285.06 460.5,322.48 460.5,322.48 C461.32,325.1 459.85,327.92 457.23,328.75 C457.23,328.75 377.5,353.73 377.5,353.73 C374.87,354.55 372.05,353.08 371.23,350.46z "/><path id="_R_G_L_1_G_D_21_P_0" stroke="#8395a7" stroke-linecap="round" stroke-linejoin="round" fill="none" stroke-width="15.82" stroke-opacity="1" d=" M328.1 157.02 C328.1,157.02 321.83,148.1 321.83,148.1 C321.83,148.1 305.64,145.29 305.64,145.29 "/><path id="_R_G_L_1_G_D_22_P_0" stroke="#8395a7" stroke-linecap="round" stroke-linejoin="round" fill="none" stroke-width="30" stroke-opacity="1" d=" M235.29 190.87 C235.29,190.87 275.75,236.62 275.75,236.62 "/><path id="_R_G_L_1_G_D_23_P_0" fill="#ffffff" fill-opacity="1" fill-rule="nonzero" d=" M339.88 244.32 C339.88,260.98 326.38,274.49 309.72,274.49 C293.06,274.49 279.55,260.98 279.55,244.32 C279.55,227.66 293.06,214.16 309.72,214.16 C326.38,214.16 339.88,227.66 339.88,244.32z "/><path id="_R_G_L_1_G_D_24_P_0" stroke="#8395a7" stroke-linecap="round" stroke-linejoin="round" fill="none" stroke-width="15" stroke-opacity="1" d=" M339.88 244.32 C339.88,260.98 326.38,274.49 309.72,274.49 C293.06,274.49 279.55,260.98 279.55,244.32 C279.55,227.66 293.06,214.16 309.72,214.16 C326.38,214.16 339.88,227.66 339.88,244.32z "/><path id="_R_G_L_1_G_D_25_P_0" stroke="#8395a7" stroke-linecap="round" stroke-linejoin="round" fill="none" stroke-width="14.144" stroke-opacity="1" d=" M288.61 265.87 C274.27,268.49 259.07,283.85 261.97,301.72 C264.48,317.24 277.28,328.9 292.94,327.46 C292.94,327.46 361.89,307.15 361.89,307.15 "/><path id="_R_G_L_1_G_D_26_P_0" stroke="#8395a7" stroke-linecap="round" stroke-linejoin="round" fill="none" stroke-width="14" stroke-opacity="1" d=" M274.55 240.47 C241.68,245.54 226.36,275.1 231.43,307.98 C236.5,340.85 267.26,363.38 300.14,358.31 C300.14,358.31 366.58,338.51 366.58,338.51 "/><path id="_R_G_L_1_G_D_27_P_0" fill="#ffffff" fill-opacity="1" fill-rule="nonzero" d=" M193 64.5 C193,91.29 171.29,113 144.5,113 C117.71,113 96,91.29 96,64.5 C96,37.71 117.71,16 144.5,16 C171.29,16 193,37.71 193,64.5z "/><path id="_R_G_L_1_G_D_28_P_0" stroke="#8395a7" stroke-linecap="round" stroke-linejoin="round" fill="none" stroke-width="16.105" stroke-opacity="1" d=" M162.5 64.5 C162.5,74.44 154.44,82.5 144.5,82.5 C134.56,82.5 126.5,74.44 126.5,64.5 C126.5,54.56 134.56,46.5 144.5,46.5 C154.44,46.5 162.5,54.56 162.5,64.5z "/><path id="_R_G_L_1_G_D_29_P_0" stroke="#8395a7" stroke-linecap="round" stroke-linejoin="round" fill="none" stroke-width="15" stroke-opacity="1" d=" M198 64.5 C198,94.05 174.05,118 144.5,118 C114.95,118 91,94.05 91,64.5 C91,34.95 114.95,11 144.5,11 C174.05,11 198,34.95 198,64.5z "/></g><g id="_R_G_L_0_G" transform=" translate(141, 402.5) scale(0.52, 0.52) translate(-47.136, -567.214)"><path id="_R_G_L_0_G_D_0_P_0" fill="#ffffff" fill-opacity="1" fill-rule="nonzero" d=" M-99.78 441.48 C-98.06,433.46 -95.24,425.54 -91.09,418.71 C-81.56,403.04 -67.06,394.67 -48.47,394.66 C-29.68,394.65 -13.82,402.79 1.32,413.06 C17.47,424.01 34.24,433.98 53.02,439.86 C59.21,441.79 65.75,442.62 72.01,444.35 C74.49,445.04 77.4,446.41 78.98,448.1 C77.26,449.53 74.52,450.87 72.12,451.26 C56.62,453.79 42.71,447.73 28.6,442.84 C12.04,437.11 -4.57,431.51 -21.09,425.66 C-30.71,422.26 -40.14,422.52 -49.34,426.68 C-57.06,430.16 -61.78,436.52 -62.15,444.83 C-62.74,458.06 -59.48,470.77 -53.05,482.32 C-47.97,491.46 -41.14,499.66 -36.32,508.92 C-28.36,524.2 -24.91,540.78 -24.34,558.07 C-23.73,576.66 -27.48,594.62 -30.79,612.71 C-34.96,635.39 -34.54,658.11 -29.22,680.53 C-24.97,698.4 -18.27,715.46 -9.99,731.89 C-8.6,734.64 -7.63,737.66 -6.87,740.65 C-6.55,741.92 -6.46,743.86 -7.49,744.87 C-8.51,745.31 -11.01,744.51 -11.79,743.54 C-17.81,736.08 -24.18,728.79 -29.33,720.74 C-43.18,699.1 -49.26,674.71 -52.01,649.56 C-53.96,631.8 -54.75,613.9 -55.47,596.05 C-55.8,587.89 -54.09,579.66 -54.36,571.49 C-54.89,555.38 -60.08,540.29 -66.93,525.93 C-73.14,512.92 -80.06,500.2 -87.42,487.79 C-93.08,478.24 -97.21,468.25 -99.78,457.53 C-100.97,451.62 -101.12,448.64 -99.78,441.48z "/><path id="_R_G_L_0_G_D_1_P_0" fill="#ffffff" fill-opacity="1" fill-rule="nonzero" d=" M22.06 418.3 C26.21,418.3 34.45,418.37 38.58,418.69 C68.54,421.03 97.6,417.43 125.75,406.45 C137.62,401.83 150.13,399.99 162.94,401.62 C180.71,403.87 192.66,416.23 194.48,434.04 C196.97,458.45 190.32,480.87 179.13,502.11 C172.79,514.15 165.29,525.57 158.66,537.46 C149.65,553.63 145.14,571.23 144.67,589.59 C144.31,603.83 145.85,618.11 145.79,632.37 C145.65,661.97 136.45,688.95 120.7,713.77 C115.2,722.43 109.13,730.74 103.09,739.05 C102.24,740.22 100.14,741.35 98.62,741.18 C97.74,739.88 97.51,737.79 97.99,736.48 C102.28,724.94 106.83,713.5 111.28,702.02 C116.83,687.68 119.69,672.72 121.3,657.49 C123.4,637.62 122.18,617.87 118.06,598.37 C115.12,584.42 115.63,570.54 119.76,557.21 C123.8,544.15 129.39,531.51 134.9,518.95 C143.18,500.07 150.87,481.01 155.29,460.8 C158.52,446.05 151.29,435.64 136.2,434.96 C123.69,434.4 111.04,434.96 98.55,436.14 C74.28,438.44 51.2,434.79 29.24,424.23 C27.73,423.5 26.38,422.78 24.97,421.6 C23.64,420.5 22.29,419.02 22.06,418.3z "/><path id="_R_G_L_0_G_D_2_P_0" fill="#ffffff" fill-opacity="1" fill-rule="nonzero" d=" M-0.01 733.64 C-2.26,729.63 -5.56,725.86 -6.57,721.56 C-9.99,706.99 -13.78,692.36 -15.29,677.54 C-18.91,641.87 -10.94,608.04 3.66,575.58 C7.85,566.26 13.55,558.09 21.66,551.78 C36.28,540.38 54.86,542.49 69.59,556.93 C84.91,571.93 92.64,590.78 97.74,611.09 C102.09,628.43 104.35,646.02 103.7,663.84 C102.92,685.16 100.81,706.33 92.71,726.4 C92.27,727.49 91.19,729.13 89.98,729.1 C88.66,728.66 88.02,727.21 87.88,726.15 C86.12,712.77 84.41,699.39 82.91,685.98 C81.56,673.87 80.77,661.7 79.22,649.61 C77.86,638.92 77.05,627.9 73.69,617.8 C70.67,608.73 65.36,600.06 59.55,592.36 C50.88,580.88 35.99,582.3 26.33,594.3 C19.37,602.95 14.73,612.76 10.66,623.01 C4.85,637.62 3.21,652.88 3.09,668.35 C2.92,688.53 3.17,708.71 3.16,728.89 C3.15,730.32 2.87,731.71 2.47,733.14 C2.18,733.91 1.26,735 -0.01,733.64z "/><path id="_R_G_L_0_G_D_3_P_0" fill="#ffffff" fill-opacity="1" fill-rule="nonzero" d=" M-3.09 404.33 C-2.26,404.88 -1.54,405.32 1.43,405.68 C4.4,406.04 35.73,405.86 52.87,406.25 C61.05,406.44 69.25,407.12 77.4,407.99 C91.83,409.52 105.97,409.05 119.45,402.97 C120.58,402.47 122.75,400.75 123.69,399.82 C122.73,398.85 120.55,397.89 119.39,397.42 C105.04,391.62 89.86,389.99 74.6,389.52 C64.25,389.2 53.86,389.83 43.5,390.27 C29.58,390.86 8.91,396.01 3.44,399.56 C-2.03,403.12 -3.09,404.33 -3.09,404.33z "/></g></g><g id="time_group"/></svg>