<svg xmlns="http://www.w3.org/2000/svg" xmlns:xlink="http://www.w3.org/1999/xlink" preserveAspectRatio="xMidYMid meet" width="500" height="500" viewBox="0 0 500 500" style="width:100%;height:100%"><defs><animateTransform repeatCount="indefinite" dur="1.3333333s" begin="0s" xlink:href="#_R_G_L_0_G" fill="freeze" attributeName="transform" from="0" to="0" type="rotate" additive="sum" keyTimes="0;0.125;0.325;0.525;0.75;1" values="0;0;5;-5;0;0" keySplines="0.817 0 0.667 1;0.817 0 0.667 1;0.333 0 0.667 1;0.333 0 0.12 1;0 0 0 0" calcMode="spline"/><animateTransform repeatCount="indefinite" dur="1.3333333s" begin="0s" xlink:href="#_R_G_L_0_G" fill="freeze" attributeName="transform" from="5.64 5.64" to="5.64 5.64" type="scale" additive="sum" keyTimes="0;1" values="5.64 5.64;5.64 5.64" keySplines="0 0 1 1" calcMode="spline"/><animateTransform repeatCount="indefinite" dur="1.3333333s" begin="0s" xlink:href="#_R_G_L_0_G" fill="freeze" attributeName="transform" from="-936.359 538.651" to="-936.359 538.651" type="translate" additive="sum" keyTimes="0;1" values="-936.359 538.651;-936.359 538.651" keySplines="0 0 1 1" calcMode="spline"/><animate attributeType="XML" attributeName="opacity" dur="1s" from="0" to="1" xlink:href="#time_group"/></defs><g id="_R_G"><g id="_R_G_L_0_G" transform=" translate(250, 250)"><path id="_R_G_L_0_G_D_0_P_0" stroke="white" stroke-linecap="round" stroke-linejoin="round" fill="none" stroke-width="3" stroke-opacity="1" d=" M914.09 -568.1 C914.09,-568.1 958.17,-568.1 958.17,-568.1 "/><path id="_R_G_L_0_G_D_1_P_0" stroke="white" stroke-linecap="round" stroke-linejoin="round" fill="none" stroke-width="3" stroke-opacity="1" d=" M914.09 -514.84 C914.09,-514.84 958.43,-514.84 958.43,-514.84 "/><path id="_R_G_L_0_G_D_2_P_0" fill="white" fill-opacity="1" fill-rule="nonzero" d=" M941.53 -571.62 C941.53,-571.62 931.18,-571.62 931.18,-571.62 C930.16,-571.62 929.31,-572.47 929.31,-573.49 C929.31,-573.49 929.31,-573.49 929.31,-573.49 C929.31,-574.52 930.16,-575.37 931.18,-575.37 C931.18,-575.37 941.53,-575.37 941.53,-575.37 C942.56,-575.37 943.4,-574.52 943.4,-573.49 C943.4,-573.49 943.4,-573.49 943.4,-573.49 C943.4,-572.47 942.56,-571.62 941.53,-571.62z "/><path id="_R_G_L_0_G_D_3_P_0" fill="white" fill-opacity="1" fill-rule="nonzero" d=" M941.15 -507.27 C941.15,-504.63 939,-502.49 936.36,-502.49 C933.71,-502.49 931.57,-504.63 931.57,-507.27 C931.57,-509.92 933.71,-512.06 936.36,-512.06 C939,-512.06 941.15,-509.92 941.15,-507.27z "/><path id="_R_G_L_0_G_D_4_P_0" stroke="white" stroke-linecap="round" stroke-linejoin="round" fill="none" stroke-width="2" stroke-opacity="1" d=" M959.14 -577.84 C959.14,-577.84 959.14,-499.47 959.14,-499.47 C959.14,-499.47 913.31,-499.47 913.31,-499.47 C913.31,-499.47 913.31,-577.84 913.31,-577.84 C913.31,-577.84 959.14,-577.84 959.14,-577.84z "/></g></g><g id="time_group"/></svg>