<svg xmlns="http://www.w3.org/2000/svg" xmlns:xlink="http://www.w3.org/1999/xlink" preserveAspectRatio="xMidYMid meet" width="500" height="500" viewBox="0 0 500 500" style="width:100%;height:100%"><defs><animateTransform repeatCount="indefinite" dur="1.1666667s" begin="0s" xlink:href="#_R_G_L_3_G" fill="freeze" attributeName="transform" from="0 1" to="1 1" type="scale" additive="sum" keyTimes="0;0.0571429;0.2571429;1" values="0 1;0 1;1 1;1 1" keySplines="0.167 0.167 0.667 1;0.167 0.167 0.667 1;0 0 0 0" calcMode="spline"/><animateTransform repeatCount="indefinite" dur="1.1666667s" begin="0s" xlink:href="#_R_G_L_3_G" fill="freeze" attributeName="transform" from="-1.356 -27.824" to="-1.356 -27.824" type="translate" additive="sum" keyTimes="0;1" values="-1.356 -27.824;-1.356 -27.824" keySplines="0 0 1 1" calcMode="spline"/><animateTransform repeatCount="indefinite" dur="1.1666667s" begin="0s" xlink:href="#_R_G_L_2_G" fill="freeze" attributeName="transform" from="0 1" to="1 1" type="scale" additive="sum" keyTimes="0;0.2;0.4;1" values="0 1;0 1;1 1;1 1" keySplines="0.167 0.167 0.667 1;0.167 0.167 0.667 1;0 0 0 0" calcMode="spline"/><animateTransform repeatCount="indefinite" dur="1.1666667s" begin="0s" xlink:href="#_R_G_L_2_G" fill="freeze" attributeName="transform" from="-1.356 -27.824" to="-1.356 -27.824" type="translate" additive="sum" keyTimes="0;1" values="-1.356 -27.824;-1.356 -27.824" keySplines="0 0 1 1" calcMode="spline"/><animateTransform repeatCount="indefinite" dur="1.1666667s" begin="0s" xlink:href="#_R_G_L_1_G" fill="freeze" attributeName="transform" from="0 1" to="1 1" type="scale" additive="sum" keyTimes="0;0.3428571;0.5428571;1" values="0 1;0 1;1 1;1 1" keySplines="0.167 0.167 0.667 1;0.167 0.167 0.667 1;0 0 0 0" calcMode="spline"/><animateTransform repeatCount="indefinite" dur="1.1666667s" begin="0s" xlink:href="#_R_G_L_1_G" fill="freeze" attributeName="transform" from="-1.356 -27.824" to="-1.356 -27.824" type="translate" additive="sum" keyTimes="0;1" values="-1.356 -27.824;-1.356 -27.824" keySplines="0 0 1 1" calcMode="spline"/><animateTransform repeatCount="indefinite" dur="1.1666667s" begin="0s" xlink:href="#_R_G_L_0_G" fill="freeze" attributeName="transform" from="1 1" to="1 1" type="scale" additive="sum" keyTimes="0;0.1428571;0.4285714;0.6285714;1" values="1 1;1 1;1 0.8;1 1;1 1" keySplines="0.333 0 0.667 1;0.333 0 0.667 1;0.333 0 0.667 1;0 0 0 0" calcMode="spline"/><animateTransform repeatCount="indefinite" dur="1.1666667s" begin="0s" xlink:href="#_R_G_L_0_G" fill="freeze" attributeName="transform" from="-74.367 -178.124" to="-74.367 -178.124" type="translate" additive="sum" keyTimes="0;1" values="-74.367 -178.124;-74.367 -178.124" keySplines="0 0 1 1" calcMode="spline"/><animate attributeType="XML" attributeName="opacity" dur="1s" from="0" to="1" xlink:href="#time_group"/></defs><g id="_R_G"><g id="_R_G_L_4_G" transform=" translate(250, 267.835) translate(-240.25, -186.085)"><path id="_R_G_L_4_G_D_0_P_0" fill="#ffffff" fill-opacity="1" fill-rule="nonzero" d=" M472.25 40.25 C467.83,40.25 464.25,43.83 464.25,48.25 C464.25,48.25 464.25,336.25 464.25,336.25 C464.25,336.25 420.81,336.25 420.81,336.25 C369.33,336.26 318.01,342.1 267.85,353.68 C261.41,355.15 254.73,352.5 251.05,347 C279.61,329.52 312.45,320.26 345.94,320.25 C345.94,320.25 440.25,320.25 440.25,320.25 C444.67,320.25 448.25,316.67 448.25,312.25 C448.25,312.25 448.25,256.25 448.25,256.25 C448.25,251.83 444.67,248.25 440.25,248.25 C435.83,248.25 432.25,251.83 432.25,256.25 C432.25,256.25 432.25,304.25 432.25,304.25 C432.25,304.25 345.94,304.25 345.94,304.25 C311.7,304.22 278.04,313.07 248.25,329.95 C248.25,329.95 248.25,112.25 248.25,112.25 C248.25,107.83 244.67,104.25 240.25,104.25 C235.83,104.25 232.25,107.83 232.25,112.25 C232.25,112.25 232.25,329.94 232.25,329.94 C202.46,313.07 168.8,304.21 134.56,304.25 C134.56,304.25 48.25,304.25 48.25,304.25 C48.25,304.25 48.25,16.25 48.25,16.25 C48.25,16.25 171.45,16.25 171.45,16.25 C205.04,16.27 232.25,43.51 232.25,77.09 C232.25,81.51 235.83,85.09 240.25,85.09 C244.67,85.09 248.25,81.51 248.25,77.09 C248.25,43.51 275.46,16.27 309.05,16.25 C309.05,16.25 432.25,16.25 432.25,16.25 C432.25,16.25 432.25,224.25 432.25,224.25 C432.25,228.67 435.83,232.25 440.25,232.25 C444.67,232.25 448.25,228.67 448.25,224.25 C448.25,224.25 448.25,8.25 448.25,8.25 C448.25,3.83 444.67,0.25 440.25,0.25 C440.25,0.25 309.05,0.25 309.05,0.25 C279.88,0.27 253.24,16.79 240.25,42.91 C227.26,16.79 200.62,0.27 171.45,0.25 C171.45,0.25 40.25,0.25 40.25,0.25 C35.83,0.25 32.25,3.83 32.25,8.25 C32.25,8.25 32.25,312.25 32.25,312.25 C32.25,316.67 35.83,320.25 40.25,320.25 C40.25,320.25 134.56,320.25 134.56,320.25 C168.06,320.26 200.9,329.52 229.47,347 C225.78,352.48 219.11,355.13 212.67,353.68 C162.5,342.1 111.18,336.25 59.69,336.25 C59.69,336.25 16.25,336.25 16.25,336.25 C16.25,336.25 16.25,48.25 16.25,48.25 C16.25,43.83 12.67,40.25 8.25,40.25 C3.83,40.25 0.25,43.83 0.25,48.25 C0.25,48.25 0.25,344.25 0.25,344.25 C0.25,348.67 3.83,352.25 8.25,352.25 C8.25,352.25 59.69,352.25 59.69,352.25 C109.96,352.26 160.07,357.97 209.05,369.27 C220.53,371.92 232.53,368.02 240.25,359.12 C247.97,368.02 259.98,371.92 271.45,369.27 C320.43,357.97 370.54,352.26 420.81,352.25 C420.81,352.25 472.25,352.25 472.25,352.25 C476.67,352.25 480.25,348.67 480.25,344.25 C480.25,344.25 480.25,48.25 480.25,48.25 C480.25,43.83 476.67,40.25 472.25,40.25z "/></g><g id="_R_G_L_3_G" transform=" translate(272.614, 255.562)"><path id="_R_G_L_3_G_D_0_P_0" fill="#ffffff" fill-opacity="1" fill-rule="nonzero" d=" M138.74 0.26 C138.74,0.26 47.54,0.26 47.54,0.26 C32.37,0.25 17.54,4.74 4.92,13.17 C1.24,15.62 0.25,20.59 2.7,24.26 C5.15,27.94 10.12,28.93 13.8,26.48 C23.79,19.81 35.53,16.25 47.54,16.26 C47.54,16.26 138.74,16.26 138.74,16.26 C143.16,16.26 146.74,12.68 146.74,8.26 C146.74,3.84 143.16,0.26 138.74,0.26z "/></g><g id="_R_G_L_2_G" transform=" translate(272.614, 295.562)"><path id="_R_G_L_2_G_D_0_P_0" fill="#ffffff" fill-opacity="1" fill-rule="nonzero" d=" M138.74 0.26 C138.74,0.26 47.54,0.26 47.54,0.26 C32.37,0.25 17.54,4.74 4.92,13.17 C1.24,15.62 0.25,20.59 2.7,24.26 C5.15,27.94 10.12,28.93 13.8,26.48 C23.79,19.81 35.53,16.25 47.54,16.26 C47.54,16.26 138.74,16.26 138.74,16.26 C143.16,16.26 146.74,12.68 146.74,8.26 C146.74,3.84 143.16,0.26 138.74,0.26z "/></g><g id="_R_G_L_1_G" transform=" translate(272.614, 335.562)"><path id="_R_G_L_1_G_D_0_P_0" fill="#ffffff" fill-opacity="1" fill-rule="nonzero" d=" M138.74 0.26 C138.74,0.26 47.54,0.26 47.54,0.26 C32.37,0.25 17.54,4.74 4.92,13.17 C1.24,15.62 0.25,20.59 2.7,24.26 C5.15,27.94 10.12,28.93 13.8,26.48 C23.79,19.81 35.53,16.25 47.54,16.26 C47.54,16.26 138.74,16.26 138.74,16.26 C143.16,16.26 146.74,12.68 146.74,8.26 C146.74,3.84 143.16,0.26 138.74,0.26z "/></g><g id="_R_G_L_0_G" transform=" translate(146.878, 352.134)"><path id="_R_G_L_0_G_D_0_P_0" fill="#ffffff" fill-opacity="1" fill-rule="nonzero" d=" M0.92 26.38 C1.78,22.37 3.19,18.41 5.26,15 C10.03,7.17 17.27,2.98 26.57,2.98 C35.96,2.97 43.89,7.04 51.46,12.18 C59.54,17.65 67.92,22.63 77.31,25.57 C80.41,26.54 83.67,26.95 86.8,27.82 C88.04,28.16 89.5,28.85 90.29,29.69 C89.43,30.41 88.06,31.08 86.86,31.27 C79.11,32.54 72.16,29.51 65.1,27.07 C56.82,24.2 48.52,21.4 40.26,18.48 C35.45,16.77 30.74,16.91 26.13,18.99 C22.28,20.73 19.92,23.91 19.73,28.06 C19.44,34.68 21.07,41.03 24.28,46.8 C26.82,51.37 30.23,55.47 32.64,60.1 C36.62,67.74 38.35,76.03 38.63,84.68 C38.94,93.97 37.07,102.95 35.41,111.99 C33.33,123.33 33.53,134.69 36.19,145.9 C38.32,154.83 41.67,163.36 45.81,171.57 C46.5,172.95 46.99,174.46 47.37,175.96 C47.53,176.59 47.57,177.56 47.06,178.06 C46.55,178.28 45.3,177.88 44.91,177.4 C41.9,173.67 38.71,170.02 36.14,166 C29.21,155.18 26.18,142.99 24.8,130.41 C23.83,121.54 23.43,112.59 23.07,103.66 C22.91,99.58 23.76,95.47 23.63,91.38 C23.36,83.33 20.76,75.79 17.34,68.61 C14.24,62.1 10.78,55.74 7.1,49.54 C4.27,44.76 2.2,39.77 0.92,34.41 C0.32,31.45 0.25,29.96 0.92,26.38z "/><path id="_R_G_L_0_G_D_1_P_0" fill="#ffffff" fill-opacity="1" fill-rule="nonzero" d=" M61.83 14.8 C63.91,14.8 68.03,14.83 70.09,14.99 C85.07,16.16 99.59,14.36 113.67,8.87 C119.6,6.56 125.86,5.64 132.26,6.46 C141.15,7.58 147.12,13.76 148.03,22.66 C149.28,34.87 145.95,46.08 140.36,56.7 C137.18,62.71 133.44,68.42 130.12,74.37 C125.62,82.45 123.36,91.25 123.13,100.43 C122.95,107.55 123.72,114.69 123.69,121.82 C123.62,136.62 119.02,150.11 111.15,162.51 C108.4,166.85 105.36,171 102.34,175.15 C101.92,175.74 100.86,176.3 100.11,176.22 C99.66,175.57 99.55,174.52 99.79,173.87 C101.94,168.1 104.21,162.38 106.43,156.64 C109.21,149.47 110.64,141.99 111.45,134.38 C112.5,124.44 111.88,114.57 109.83,104.82 C108.36,97.85 108.61,90.91 110.67,84.24 C112.7,77.71 115.49,71.4 118.24,65.12 C122.38,55.67 126.23,46.15 128.44,36.05 C130.05,28.67 126.44,23.46 118.9,23.13 C112.64,22.85 106.31,23.13 100.07,23.72 C87.94,24.86 76.4,23.04 65.42,17.76 C64.66,17.4 63.99,17.04 63.28,16.45 C62.62,15.9 61.95,15.16 61.83,14.8z "/><path id="_R_G_L_0_G_D_2_P_0" fill="#ffffff" fill-opacity="1" fill-rule="nonzero" d=" M50.8 172.45 C49.67,170.44 48.02,168.56 47.52,166.41 C45.81,159.13 43.91,151.81 43.16,144.4 C41.35,126.57 45.33,109.65 52.63,93.43 C54.73,88.77 57.58,84.69 61.63,81.53 C68.94,75.83 78.23,76.89 85.59,84.1 C93.25,91.6 97.11,101.03 99.67,111.18 C101.84,119.85 102.97,128.64 102.64,137.55 C102.26,148.21 101.2,158.8 97.15,168.83 C96.93,169.37 96.39,170.19 95.79,170.18 C95.13,169.96 94.81,169.23 94.74,168.7 C93.86,162.02 93,155.32 92.25,148.62 C91.58,142.57 91.18,136.48 90.41,130.44 C89.73,125.1 89.32,119.59 87.64,114.53 C86.14,110 83.48,105.67 80.57,101.82 C76.24,96.08 68.79,96.79 63.97,102.79 C60.48,107.11 58.17,112.02 56.13,117.14 C53.23,124.45 52.41,132.07 52.34,139.81 C52.26,149.9 52.39,159.99 52.38,170.07 C52.38,170.79 52.24,171.49 52.04,172.2 C51.89,172.58 51.43,173.13 50.8,172.45z "/><path id="_R_G_L_0_G_D_3_P_0" fill="#ffffff" fill-opacity="1" fill-rule="nonzero" d=" M49.26 7.81 C49.67,8.09 50.03,8.31 51.52,8.49 C53,8.67 68.66,8.58 77.23,8.77 C81.32,8.87 85.42,9.21 89.5,9.64 C96.71,10.41 103.78,10.17 110.52,7.13 C111.08,6.88 112.17,6.02 112.64,5.56 C112.16,5.07 111.07,4.59 110.49,4.36 C103.32,1.46 95.73,0.65 88.1,0.41 C82.93,0.25 77.73,0.57 72.55,0.79 C65.59,1.08 55.26,3.65 52.52,5.43 C49.79,7.21 49.26,7.81 49.26,7.81z "/></g></g><g id="time_group"/></svg>