<svg id="Layer_2" data-name="Layer 2" xmlns="http://www.w3.org/2000/svg" viewBox="0 0 418.98 287.42"><title>Artboard 56</title><path d="M73.93,143.7c0,2.27,0,4.5.19,6.73.09,1.86.22,3.68.45,5.5a113.35,113.35,0,0,0,1.82,11.9c.36,1.87.77,3.68,1.23,5.5a117.92,117.92,0,0,0,7.9,21.77c.82,1.86,1.77,3.72,2.73,5.49a117.42,117.42,0,0,0,7.68,12.32,66.87,66.87,0,0,0,4.13,5.5,104.21,104.21,0,0,0,10.82,11.91c2,2,4,3.77,6.13,5.49A115.16,115.16,0,0,0,132.78,247a103.87,103.87,0,0,0,10.36,5.5A119.06,119.06,0,0,0,194,263.81h27.27V23.6H194a119.26,119.26,0,0,0-54.71,13.23,96.08,96.08,0,0,0-9.63,5.49A114,114,0,0,0,114,54.23c-2,1.73-3.91,3.59-5.77,5.5A120.78,120.78,0,0,0,91.84,80.59c-1.09,1.77-2.19,3.59-3.18,5.45a117.58,117.58,0,0,0-9.5,22.54c-.54,1.82-1.09,3.63-1.54,5.5a112.16,112.16,0,0,0-3.09,18c-.23,1.82-.37,3.64-.46,5.49Q73.94,140.64,73.93,143.7Z" style="fill:#bc8f23"/><path d="M74.12,150.43c.09,1.86.22,3.68.45,5.5h33.54v-5.5Z" style="fill:#9d791e"/><path d="M76.39,167.83c.36,1.87.77,3.68,1.23,5.5h41.21v-5.5Z" style="fill:#9d791e"/><path d="M85.52,195.1c.82,1.86,1.77,3.72,2.73,5.49h40.58V195.1Z" style="fill:#9d791e"/><path d="M95.93,212.91a66.87,66.87,0,0,0,4.13,5.5h42.13v-5.5Z" style="fill:#9d791e"/><path d="M110.88,230.32c2,2,4,3.77,6.13,5.49h39.45v-5.49Z" style="fill:#9d791e"/><path d="M132.78,247a103.87,103.87,0,0,0,10.36,5.5H177V247Z" style="fill:#9d791e"/><path d="M74.07,137.56h36.31v-5.49H74.53C74.3,133.89,74.16,135.71,74.07,137.56Z" style="fill:#9d791e"/><path d="M77.62,114.08h36.9v-5.5H79.16C78.62,110.4,78.07,112.21,77.62,114.08Z" style="fill:#9d791e"/><path d="M88.66,86h37V80.59H91.84C90.75,82.36,89.65,84.18,88.66,86Z" style="fill:#9d791e"/><path d="M108.2,59.73h41.17v-5.5H114C112,56,110.06,57.82,108.2,59.73Z" style="fill:#9d791e"/><path d="M129.65,42.32h39.9V36.83H139.28A96.08,96.08,0,0,0,129.65,42.32Z" style="fill:#9d791e"/><path d="M101.19,143.7A120.09,120.09,0,1,0,221.27,23.61,120.09,120.09,0,0,0,101.19,143.7Z" style="fill:#f3cf29"/><path d="M121.6,143.7A99.68,99.68,0,1,0,221.27,44,99.67,99.67,0,0,0,121.6,143.7Z" style="fill:#ebbb2a"/><path d="M213,235A99.66,99.66,0,0,0,287.47,69.2,99.66,99.66,0,1,1,146.75,209.87,99.32,99.32,0,0,0,213,235Z" style="fill:#b37e22"/><path d="M215.51,224v-20.7c-11.88-.2-24.18-3.89-31.35-9l4.92-13.73a54.6,54.6,0,0,0,29.5,8.81c14.55,0,24.38-8.4,24.38-20.08,0-11.26-8-18.23-23.15-24.38-20.9-8.19-33.8-17.62-33.8-35.44,0-17,12.08-29.91,30.93-33V55.8h12.71V75.67c12.29.41,20.69,3.69,26.63,7.17l-5.12,13.53a49.49,49.49,0,0,0-25.82-7c-15.77,0-21.71,9.43-21.71,17.62,0,10.65,7.58,16,25.4,23.36,21.1,8.6,31.76,19.26,31.76,37.49,0,16.18-11.27,31.35-32.37,34.83V224Z" style="fill:#bc8f23"/></svg>