<svg id="Layer_1" data-name="Layer 1" xmlns="http://www.w3.org/2000/svg" xmlns:xlink="http://www.w3.org/1999/xlink" viewBox="0 0 782.68 160.22"><defs><clipPath id="clip-path"><rect x="-568.66" y="-459.89" width="1920" height="1080" style="fill:none"/></clipPath></defs><title>Artboard 1</title><g style="clip-path:url(#clip-path)"><path d="M70.12,35.24H92.75A89.32,89.32,0,0,1,82.69,76.56a89.69,89.69,0,0,1,65.62-40.77q-1.31-6.22-3-12.45a11.27,11.27,0,0,0-7.92-7.91,213.62,213.62,0,0,0-113.53,0A11.27,11.27,0,0,0,16,23.34a213.86,213.86,0,0,0-6.53,78.71,67.12,67.12,0,0,0,60.7-66.81" style="fill:#fff"/><path d="M151.85,58.17A67.11,67.11,0,0,0,91.15,125H68.52A89.25,89.25,0,0,1,78.58,83.66h0A89.71,89.71,0,0,1,13,124.43q1.32,6.23,3,12.45a11.29,11.29,0,0,0,7.92,7.91,213.62,213.62,0,0,0,113.53,0,11.29,11.29,0,0,0,7.92-7.91,213.86,213.86,0,0,0,6.53-78.71" style="fill:#fff"/><path d="M200.84,80.11c0-22.87,17-40,39.88-40,18.12,0,34.16,11,37.64,29.56H262.05c-2.93-9.62-11.43-14.92-21.33-14.92-14.22,0-24,10.6-24,25.38s10,25.38,23.84,25.38c10,0,18.54-5.58,21.47-15.06h16.31c-3.62,19-19.8,29.7-37.78,29.7-22.73,0-39.74-17.15-39.74-40" style="fill:#fff"/><polygon points="360.31 41.77 360.31 118.45 344.55 118.45 344.55 86.39 345.53 62.12 307.6 118.45 289.06 118.45 289.06 41.77 304.81 41.77 304.81 73.84 303.84 97.96 341.76 41.77 360.31 41.77" style="fill:#fff"/><path d="M451.18,80.53c0,23.84-17,39.6-38.91,39.6-21.47,0-39.87-14.64-40-46.85,0-54.52,26.77-63.86,69.29-63.86V24.34c-34.85,0-51,5.44-53.26,35.27,5.58-10.59,16.6-16,28.17-16,19.52,0,34.72,14.64,34.72,37m-15.76.84c0-14.64-9.9-24.26-23-24.26s-24.26,9.48-24.26,24.26c0,15.33,10.18,25.09,23.43,25.09s23.84-9.76,23.84-25.09" style="fill:#fff"/><path d="M460.53,80.11c0-22.87,17-40,39.88-40,18.12,0,34.16,11,37.64,29.56H521.74c-2.93-9.62-11.43-14.92-21.33-14.92-14.22,0-24,10.6-24,25.38s10,25.38,23.84,25.38c10,0,18.54-5.58,21.47-15.06h16.31c-3.62,19-19.79,29.7-37.78,29.7-22.73,0-39.74-17.15-39.74-40" style="fill:#fff"/><path d="M624.6,84.43H562.28c1.25,14.08,11.15,21.89,24,21.89,9.2,0,16.87-3.9,20.49-11.43h16.32c-6,17.15-20.64,25.24-37,25.24-23.29,0-39.88-16.73-39.88-39.88s16.45-40.16,39.6-40.16c24.68,0,40.29,19.11,38.76,44.34M563.11,71.61h44.62c-2.37-10.46-10.32-17.85-21.89-17.85-12,0-20.08,7.53-22.73,17.85" style="fill:#fff"/><polygon points="694.41 56.55 669.46 56.55 669.46 118.45 653.7 118.45 653.7 56.55 628.6 56.55 628.6 41.77 669.46 41.77 694.41 41.77 694.41 56.55" style="fill:#fff"/><polygon points="774.4 41.77 774.4 118.45 758.65 118.45 758.65 86.39 759.63 62.12 721.7 118.45 703.16 118.45 703.16 41.77 718.91 41.77 718.91 73.84 717.94 97.96 755.86 41.77 774.4 41.77" style="fill:#fff"/></g></svg>